<svg width="40" height="39" viewBox="0 0 40 39" fill="none" xmlns="http://www.w3.org/2000/svg">
<path d="M2.42424 2.42424H31.5152V16.6136L33.9394 20.8561V0H0V33.9394H9.49242L10.8788 31.5152H2.42424V2.42424ZM9.69697 8.48485V7.27273H7.27273V16.9697H9.69697V8.48485ZM14.5455 8.48485V7.27273H12.1212V16.9697H14.5455V8.48485ZM38.6136 36.3712L26.8485 15.7803L25.4545 13.3409L24.0606 15.7803L12.2955 36.3712L10.9091 38.7955H40L38.6136 36.3712ZM25.4545 18.2273L35.8258 36.3712H15.0909L25.4621 18.2273H25.4545ZM26.6667 24.25V23.0379H24.2424V30.3106H26.6667V24.25ZM26.6667 31.5H24.2424V33.9242H26.6667V31.5Z" fill="white"/>
</svg>
