<svg width="32" height="32" viewBox="0 0 32 32" fill="none" xmlns="http://www.w3.org/2000/svg">
<path d="M15 0H17V2.05C22.0562 2.55 26 6.8125 26 12V18.0875L29.7062 21.7938L30 22.0875V22.5V25V26H29H3H2V25V22.5V22.0875L2.29375 21.7938L6 18.0875V12C6 6.8125 9.94375 2.55 15 2.05V0ZM16 4C11.5813 4 8 7.58125 8 12V18.5V18.9125L7.70625 19.2062L4 22.9125V24H28V22.9125L24.2938 19.2062L24 18.9125V18.5V12C24 7.58125 20.4188 4 16 4ZM12 28H14C14 29.1063 14.8938 30 16 30C17.1062 30 18 29.1063 18 28H20C20 30.2062 18.2062 32 16 32C13.7937 32 12 30.2062 12 28Z" fill="white"/>
</svg>
