<svg width="180" height="21" viewBox="0 0 180 21" fill="none" xmlns="http://www.w3.org/2000/svg">
<path d="M180 0.0103614H175.532V20.5714H180V0.0103614ZM173.945 20.5714L168.94 12.2916C168.94 12.2916 173.107 11.5109 173.067 6.26664C173.027 1.02227 168.94 0.0335637 168.218 0.0103614C167.502 -0.0129518 154.491 0.0103614 154.491 0.0103614V20.5714H159.057V12.5864L163.496 12.6264L168.339 20.5709L173.945 20.5714ZM168.259 6.37066C168.259 8.86851 166.411 8.9611 166.411 8.9611H159.057V3.88436H166.411C166.411 3.88436 168.259 3.87215 168.259 6.37066ZM141.451 20.5714H150.877V16.4835H143.021C143.021 16.4835 139.777 16.4313 139.777 12.095V11.9272H150.877V8.11682H139.783C139.967 4.15035 143.021 4.10417 143.021 4.10417H150.877V0.0103614H141.451C134.72 0.0103614 134.72 8.48695 134.72 8.48695V12.095C134.72 12.095 134.72 20.5714 141.451 20.5714ZM127.81 20.5714H132.278V0.0103614H127.81V20.5714ZM118.274 4.10417H125.12V0.0103614H107.156V4.10417H113.714V20.5714H118.274V4.10417ZM62.8574 0.0103614H53.4308C46.7 0.0103614 46.7 8.48695 46.7 8.48695V12.095C46.7 12.095 46.7 20.5714 53.4308 20.5714H62.8574V16.4835H54.9951C54.9951 16.4835 51.7567 16.4313 51.7567 12.095V8.48695C51.7567 4.15035 54.9951 4.10417 54.9951 4.10417H62.8574V0.0103614ZM39.4727 20.5714H44.1311V7.21482C44.1311 7.21482 44.593 -0.00695697 36.6268 0.0103614C28.6549 0.0281239 26.1669 0.0103614 26.1669 0.0103614V20.5714H30.8254V4.10417H36.6268C36.6268 4.10417 39.4842 4.09307 39.4727 7.17441C39.4616 10.2504 39.4727 20.5714 39.4727 20.5714ZM18.4664 20.5714H22.9343V0.0103614H18.4664V20.5714ZM4.48519 12.2916H15.9957V8.48695H4.48519C4.48519 4.15035 7.68317 4.10417 7.68317 4.10417H15.9957V0.0103614C15.9957 0.0103614 15.8515 -0.0129518 7.68317 0.0103614C-0.485015 0.0336747 0.00564422 8.48695 0.00564422 8.48695V20.5714H4.48519V12.2916ZM73.7271 0.0103614L64.7219 20.5714H69.5651L71.7009 15.8243L75.8803 15.8476L79.9961 15.8243L82.1377 20.5714H86.9809L77.9757 0.0103614H73.7271ZM73.4501 11.8058L75.8861 6.23766L78.3163 11.8058H73.4501ZM88.4125 0.0103614V20.5714H93.0652V4.10417H98.8667C98.8667 4.10417 101.724 4.09307 101.718 7.17441C101.707 10.2504 101.718 20.5714 101.718 20.5714H106.377V7.21482C106.377 7.21482 106.839 -0.00695697 98.8667 0.0103614C90.9005 0.0281239 88.4125 0.0103614 88.4125 0.0103614Z" fill="white"/>
</svg>
