<svg width="32" height="21" viewBox="0 0 32 21" fill="none" xmlns="http://www.w3.org/2000/svg">
<g clip-path="url(#clip0_2315_11823)">
<path d="M0 0H32V21.0002H0V0Z" fill="white"/>
<path d="M18 -0.000244141H14V8.53097H0V12.4685H14V20.9997H18V12.4685H32V8.53097H18V-0.000244141Z" fill="#D80027"/>
<path d="M24.6118 14.1519L32.0003 18.1925V14.1519H24.6118ZM19.4785 14.1519L32.0003 20.9997V19.0633L23.0195 14.1519H19.4785ZM28.6649 20.9997L19.4785 15.9754V20.9997H28.6649Z" fill="#0052B4"/>
<path d="M19.4785 14.1519L32.0003 20.9997V19.0633L23.0195 14.1519H19.4785Z" fill="white"/>
<path d="M19.4785 14.1519L32.0003 20.9997V19.0633L23.0195 14.1519H19.4785Z" fill="#D80027"/>
<path d="M5.64631 14.1519L0 17.2397V14.1519H5.64631ZM12.5218 15.0227V20.9997H1.59319L12.5218 15.0227Z" fill="#0052B4"/>
<path d="M8.98081 14.1519L0 19.0633V20.9997L12.5218 14.1519H8.98081Z" fill="#D80027"/>
<path d="M7.38844 6.84757L0 2.80695V6.84757H7.38844ZM12.5218 6.84757L0 -0.000244141V1.93615L8.98081 6.84757H12.5218ZM3.33538 -0.000244141L12.5218 5.02401V-0.000244141H3.33538Z" fill="#0052B4"/>
<path d="M12.5218 6.84757L0 -0.000244141V1.93615L8.98081 6.84757H12.5218Z" fill="white"/>
<path d="M12.5218 6.84757L0 -0.000244141V1.93615L8.98081 6.84757H12.5218Z" fill="#D80027"/>
<path d="M26.354 6.84763L32.0003 3.75976V6.84763H26.354ZM19.4785 5.97683V-0.000244141H30.4071L19.4785 5.97683Z" fill="#0052B4"/>
<path d="M23.0195 6.84757L32.0003 1.93615V-0.000244141L19.4785 6.84757H23.0195Z" fill="#D80027"/>
</g>
<rect x="0.5" y="0.5" width="31" height="20" rx="4.5" stroke="white"/>
<defs>
<clipPath id="clip0_2315_11823">
<rect width="32" height="21" rx="5" fill="white"/>
</clipPath>
</defs>
</svg>
