<?xml version="1.0" encoding="UTF-8"?>
<svg id="Livello_1" data-name="Livello 1" xmlns="http://www.w3.org/2000/svg" viewBox="0 0 132.67 132.3">
  <defs>
    <style>
      .cls-1 {
        fill: #fff;
      }
    </style>
  </defs>
  <path class="cls-1" d="M66.33,0C29.7,0,0,29.7,0,66.33c0,34.27,25.99,62.47,59.33,65.96h14c33.34-3.5,59.33-31.69,59.33-65.96C132.67,29.7,102.97,0,66.33,0ZM72.33,118.31v-23.49c0-3.31-2.69-6-6-6s-6,2.69-6,6v23.49c-24.13-2.77-43.32-22.01-46-46.16h23.32c3.31,0,6-2.69,6-6s-2.69-6-6-6H14.38c2.84-23.98,21.95-43.04,45.96-45.79v23.12c0,3.31,2.69,6,6,6s6-2.69,6-6V14.35c24.01,2.75,43.12,21.81,45.96,45.79h-23.28c-3.31,0-6,2.69-6,6s2.69,6,6,6h23.32c-2.68,24.16-21.87,43.4-46,46.16Z"/>
</svg>