<svg width="32" height="33" viewBox="0 0 32 33" fill="none" xmlns="http://www.w3.org/2000/svg">
<path d="M27.2727 11.9303C27.2727 19.1364 20.0364 27.7727 16.9757 31.1C16.1576 31.9909 15.6364 32.5 15.6364 32.5C15.6364 32.5 15.1151 31.9909 14.297 31.1C11.2364 27.7727 3.99999 19.1364 3.99999 11.9303C3.99999 5.61515 9.21211 0.5 15.6364 0.5C22.0606 0.5 27.2727 5.61515 27.2727 11.9303ZM5.93938 11.9303C5.93938 13.8273 6.5515 15.9667 7.57575 18.1848C8.59393 20.3909 9.97575 22.5667 11.3818 24.5C12.9636 26.6697 14.5454 28.5 15.6303 29.6879C16.7151 28.5061 18.303 26.6697 19.8788 24.5C21.2848 22.5606 22.6667 20.3909 23.6848 18.1848C24.7151 15.9606 25.3212 13.8273 25.3212 11.9303C25.3212 6.72424 21.0121 2.43939 15.6242 2.43939C10.2364 2.43939 5.93938 6.71818 5.93938 11.9303ZM12.7273 12.1364C12.7273 12.9079 13.0338 13.6478 13.5793 14.1934C14.1249 14.739 14.8648 15.0455 15.6364 15.0455C16.4079 15.0455 17.1478 14.739 17.6934 14.1934C18.239 13.6478 18.5454 12.9079 18.5454 12.1364C18.5454 11.3648 18.239 10.6249 17.6934 10.0793C17.1478 9.53376 16.4079 9.22727 15.6364 9.22727C14.8648 9.22727 14.1249 9.53376 13.5793 10.0793C13.0338 10.6249 12.7273 11.3648 12.7273 12.1364ZM15.6364 16.9848C14.3505 16.9848 13.1172 16.474 12.208 15.5648C11.2987 14.6555 10.7879 13.4223 10.7879 12.1364C10.7879 10.8505 11.2987 9.61723 12.208 8.70797C13.1172 7.7987 14.3505 7.28788 15.6364 7.28788C16.9223 7.28788 18.1555 7.7987 19.0647 8.70797C19.974 9.61723 20.4848 10.8505 20.4848 12.1364C20.4848 13.4223 19.974 14.6555 19.0647 15.5648C18.1555 16.474 16.9223 16.9848 15.6364 16.9848Z" fill="white"/>
</svg>
