<svg width="200" height="1" viewBox="0 0 200 1" fill="none" xmlns="http://www.w3.org/2000/svg">
<g clip-path="url(#clip0_993_10649)">
<path d="M1 0V0.5H0L0 0L1 0ZM5 0V0.5H3V0L5 0ZM9 0V0.5H7V0L9 0ZM13 0V0.5H11V0L13 0ZM17 0V0.5H15V0L17 0ZM21 0V0.5H19V0L21 0ZM25 0V0.5H23V0L25 0ZM29 0V0.5H27V0L29 0ZM33 0V0.5H31V0L33 0ZM37 0V0.5H35V0L37 0ZM41 0V0.5H39V0L41 0ZM45 0V0.5H43V0L45 0ZM49 0V0.5H47V0L49 0ZM53 0V0.5H51V0L53 0ZM57 0V0.5H55V0L57 0ZM61 0V0.5H59V0L61 0ZM65 0V0.5H63V0L65 0ZM69 0V0.5H67V0L69 0ZM73 0V0.5H71V0L73 0ZM77 0V0.5H75V0L77 0ZM81 0V0.5H79V0L81 0ZM85 0V0.5H83V0L85 0ZM89 0V0.5H87V0L89 0ZM93 0V0.5H91V0L93 0ZM97 0V0.5H95V0L97 0ZM101 0V0.5H99V0L101 0ZM105 0V0.5H103V0L105 0ZM109 0V0.5H107V0L109 0ZM113 0V0.5H111V0L113 0ZM117 0V0.5H115V0L117 0ZM121 0V0.5H119V0L121 0ZM125 0V0.5H123V0L125 0ZM129 0V0.5H127V0L129 0ZM133 0V0.5H131V0L133 0ZM137 0V0.5H135V0L137 0ZM141 0V0.5H139V0L141 0ZM145 0V0.5H143V0L145 0ZM149 0V0.5H147V0L149 0ZM153 0V0.5H151V0L153 0ZM157 0V0.5H155V0L157 0ZM161 0V0.5H159V0L161 0ZM165 0V0.5H163V0L165 0ZM169 0V0.5H167V0L169 0ZM173 0V0.5H171V0L173 0ZM177 0V0.5H175V0L177 0ZM181 0V0.5H179V0L181 0ZM185 0V0.5H183V0L185 0ZM189 0V0.5H187V0L189 0ZM193 0V0.5H191V0L193 0ZM197 0V0.5H195V0L197 0ZM201 0V0.5H199V0L201 0ZM205 0V0.5H203V0L205 0ZM209 0V0.5H207V0L209 0ZM213 0V0.5H211V0L213 0ZM217 0V0.5H215V0L217 0ZM221 0V0.5H219V0L221 0ZM225 0V0.5H223V0L225 0ZM229 0V0.5H227V0L229 0ZM233 0V0.5H231V0L233 0ZM237 0V0.5H235V0L237 0ZM241 0V0.5H239V0L241 0ZM245 0V0.5H243V0L245 0ZM249 0V0.5H247V0L249 0ZM253 0V0.5H251V0L253 0ZM257 0V0.5H255V0L257 0ZM261 0V0.5H259V0L261 0ZM265 0V0.5H263V0L265 0ZM269 0V0.5H267V0L269 0ZM273 0V0.5H271V0L273 0ZM277 0V0.5H275V0L277 0ZM281 0V0.5H279V0L281 0ZM285 0V0.5H283V0L285 0ZM289 0V0.5H287V0L289 0ZM293 0V0.5H291V0L293 0ZM297 0V0.5H295V0L297 0ZM301 0V0.5H299V0L301 0ZM305 0V0.5H303V0L305 0ZM309 0V0.5H307V0L309 0ZM313 0V0.5H311V0L313 0ZM317 0V0.5H315V0L317 0ZM321 0V0.5H319V0L321 0ZM325 0V0.5H323V0L325 0ZM329 0V0.5H327V0L329 0ZM333 0V0.5H331V0L333 0ZM337 0V0.5H335V0L337 0ZM341 0V0.5H339V0L341 0ZM345 0V0.5H343V0L345 0ZM349 0V0.5H347V0L349 0ZM353 0V0.5H351V0L353 0ZM357 0V0.5H355V0L357 0ZM361 0V0.5H359V0L361 0ZM365 0V0.5H363V0L365 0ZM369 0V0.5H367V0L369 0ZM373 0V0.5H371V0L373 0ZM377 0V0.5H375V0L377 0ZM381 0V0.5H379V0L381 0ZM385 0V0.5H383V0L385 0ZM389 0V0.5H387V0L389 0ZM393 0V0.5H391V0L393 0ZM397 0V0.5H395V0L397 0ZM401 0V0.5H399V0L401 0ZM405 0V0.5H403V0L405 0ZM409 0V0.5H407V0L409 0ZM413 0V0.5H411V0L413 0ZM417 0V0.5H415V0L417 0ZM421 0V0.5H419V0L421 0ZM425 0V0.5H423V0L425 0ZM429 0V0.5H427V0L429 0ZM433 0V0.5H431V0L433 0ZM437 0V0.5H435V0L437 0ZM441 0V0.5H439V0L441 0ZM445 0V0.5H443V0L445 0ZM449 0V0.5H447V0L449 0ZM453 0V0.5H451V0L453 0ZM457 0V0.5H455V0L457 0ZM461 0V0.5H459V0L461 0ZM465 0V0.5H463V0L465 0ZM469 0V0.5H467V0L469 0ZM473 0V0.5H471V0L473 0ZM477 0V0.5H475V0L477 0ZM481 0V0.5H479V0L481 0ZM485 0V0.5H483V0L485 0ZM489 0V0.5H487V0L489 0ZM493 0V0.5H491V0L493 0ZM497 0V0.5H495V0L497 0ZM501 0V0.5H499V0L501 0ZM505 0V0.5H503V0L505 0ZM509 0V0.5H507V0L509 0ZM513 0V0.5H511V0L513 0ZM517 0V0.5H515V0L517 0ZM521 0V0.5H519V0L521 0ZM525 0V0.5H523V0L525 0ZM529 0V0.5H527V0L529 0ZM533 0V0.5H531V0L533 0ZM537 0V0.5H535V0L537 0ZM541 0V0.5H539V0L541 0ZM545 0V0.5H543V0L545 0ZM549 0V0.5H547V0L549 0ZM553 0V0.5H551V0L553 0ZM557 0V0.5H555V0L557 0ZM561 0V0.5H559V0L561 0ZM565 0V0.5H563V0L565 0ZM569 0V0.5H567V0L569 0ZM573 0V0.5H571V0L573 0ZM577 0V0.5H575V0L577 0ZM581 0V0.5H579V0L581 0ZM585 0V0.5H583V0L585 0ZM589 0V0.5H587V0L589 0ZM593 0V0.5H591V0L593 0ZM597 0V0.5H595V0L597 0ZM601 0V0.5H599V0L601 0ZM605 0V0.5H603V0L605 0ZM609 0V0.5H607V0L609 0ZM613 0V0.5H611V0L613 0ZM617 0V0.5H615V0L617 0ZM621 0V0.5H619V0L621 0ZM625 0V0.5H623V0L625 0ZM629 0V0.5H627V0L629 0ZM633 0V0.5H631V0L633 0ZM637 0V0.5H635V0L637 0ZM641 0V0.5H639V0L641 0ZM645 0V0.5H643V0L645 0ZM649 0V0.5H647V0L649 0ZM653 0V0.5H651V0L653 0ZM657 0V0.5H655V0L657 0ZM661 0V0.5H659V0L661 0ZM665 0V0.5H663V0L665 0ZM669 0V0.5H667V0L669 0ZM673 0V0.5H671V0L673 0ZM677 0V0.5H675V0L677 0ZM681 0V0.5H679V0L681 0ZM685 0V0.5H683V0L685 0ZM689 0V0.5H687V0L689 0ZM693 0V0.5H691V0L693 0ZM697 0V0.5H695V0L697 0ZM701 0V0.5H699V0L701 0ZM705 0V0.5H703V0L705 0ZM709 0V0.5H707V0L709 0ZM713 0V0.5H711V0L713 0ZM717 0V0.5H715V0L717 0ZM721 0V0.5H719V0L721 0ZM725 0V0.5H723V0L725 0ZM729 0V0.5H727V0L729 0ZM733 0V0.5H731V0L733 0ZM737 0V0.5H735V0L737 0ZM741 0V0.5H739V0L741 0ZM745 0V0.5H743V0L745 0ZM749 0V0.5H747V0L749 0ZM753 0V0.5H751V0L753 0ZM757 0V0.5H755V0L757 0ZM761 0V0.5H759V0L761 0ZM765 0V0.5H763V0L765 0ZM769 0V0.5H767V0L769 0ZM773 0V0.5H771V0L773 0ZM777 0V0.5H775V0L777 0ZM781 0V0.5H779V0L781 0ZM785 0V0.5H783V0L785 0ZM789 0V0.5H787V0L789 0ZM793 0V0.5H791V0L793 0ZM797 0V0.5H795V0L797 0ZM801 0V0.5H799V0L801 0ZM805 0V0.5H803V0L805 0ZM809 0V0.5H807V0L809 0ZM813 0V0.5H811V0L813 0ZM817 0V0.5H815V0L817 0ZM821 0V0.5H819V0L821 0ZM825 0V0.5H823V0L825 0ZM829 0V0.5H827V0L829 0ZM833 0V0.5H831V0L833 0ZM837 0V0.5H835V0L837 0ZM841 0V0.5H839V0L841 0ZM845 0V0.5H843V0L845 0ZM849 0V0.5H847V0L849 0ZM853 0V0.5H851V0L853 0ZM857 0V0.5H855V0L857 0ZM861 0V0.5H859V0L861 0ZM865 0V0.5H863V0L865 0ZM869 0V0.5H867V0L869 0ZM873 0V0.5H871V0L873 0ZM877 0V0.5H875V0L877 0ZM881 0V0.5H879V0L881 0ZM885 0V0.5H883V0L885 0ZM889 0V0.5H887V0L889 0ZM893 0V0.5H891V0L893 0ZM897 0V0.5H895V0L897 0ZM901 0V0.5H899V0L901 0ZM905 0V0.5H903V0L905 0ZM909 0V0.5H907V0L909 0ZM913 0V0.5H911V0L913 0ZM917 0V0.5H915V0L917 0ZM921 0V0.5H919V0L921 0ZM925 0V0.5H923V0L925 0ZM929 0V0.5H927V0L929 0ZM933 0V0.5H931V0L933 0ZM937 0V0.5H935V0L937 0ZM941 0V0.5H939V0L941 0ZM945 0V0.5H943V0L945 0ZM949 0V0.5H947V0L949 0ZM953 0V0.5H951V0L953 0ZM957 0V0.5H955V0L957 0ZM961 0V0.5H959V0L961 0ZM965 0V0.5H963V0L965 0ZM969 0V0.5H967V0L969 0ZM973 0V0.5H971V0L973 0ZM977 0V0.5H975V0L977 0ZM981 0V0.5H979V0L981 0ZM985 0V0.5H983V0L985 0ZM989 0V0.5H987V0L989 0ZM993 0V0.5H991V0L993 0ZM997 0V0.5H995V0L997 0ZM1001 0V0.5H999V0L1001 0ZM1005 0V0.5H1003V0L1005 0ZM1009 0V0.5H1007V0L1009 0ZM1013 0V0.5H1011V0L1013 0ZM1017 0V0.5H1015V0L1017 0ZM1021 0V0.5H1019V0L1021 0ZM1025 0V0.5H1023V0L1025 0ZM1029 0V0.5H1027V0L1029 0ZM1033 0V0.5H1031V0L1033 0ZM1037 0V0.5H1035V0L1037 0ZM1041 0V0.5H1039V0L1041 0ZM1045 0V0.5H1043V0L1045 0ZM1049 0V0.5H1047V0L1049 0ZM1053 0V0.5H1051V0L1053 0ZM1057 0V0.5H1055V0L1057 0ZM1061 0V0.5H1059V0L1061 0ZM1065 0V0.5H1063V0L1065 0ZM1069 0V0.5H1067V0L1069 0ZM1073 0V0.5H1071V0L1073 0ZM1077 0V0.5H1075V0L1077 0ZM1081 0V0.5H1079V0L1081 0ZM1085 0V0.5H1083V0L1085 0ZM1089 0V0.5H1087V0L1089 0ZM1093 0V0.5H1091V0L1093 0ZM1097 0V0.5H1095V0L1097 0ZM1101 0V0.5H1099V0L1101 0ZM1105 0V0.5H1103V0L1105 0ZM1109 0V0.5H1107V0L1109 0ZM1113 0V0.5H1111V0L1113 0ZM1117 0V0.5H1115V0L1117 0ZM1121 0V0.5H1119V0L1121 0ZM1125 0V0.5H1123V0L1125 0ZM1129 0V0.5H1127V0L1129 0ZM1133 0V0.5H1131V0L1133 0ZM1137 0V0.5H1135V0L1137 0ZM1141 0V0.5H1139V0L1141 0ZM1145 0V0.5H1143V0L1145 0ZM1149 0V0.5H1147V0L1149 0ZM1153 0V0.5H1151V0L1153 0ZM1157 0V0.5H1155V0L1157 0ZM1161 0V0.5H1159V0L1161 0ZM1165 0V0.5H1163V0L1165 0ZM1169 0V0.5H1167V0L1169 0ZM1173 0V0.5H1171V0L1173 0ZM1177 0V0.5H1175V0L1177 0ZM1181 0V0.5H1179V0L1181 0ZM1185 0V0.5H1183V0L1185 0ZM1189 0V0.5H1187V0L1189 0ZM1193 0V0.5H1191V0L1193 0ZM1197 0V0.5H1195V0L1197 0ZM1201 0V0.5H1199V0L1201 0ZM1205 0V0.5H1203V0L1205 0ZM1209 0V0.5H1207V0L1209 0ZM1213 0V0.5H1211V0L1213 0ZM1217 0V0.5H1215V0L1217 0ZM1221 0V0.5H1219V0L1221 0ZM1225 0V0.5H1223V0L1225 0ZM1229 0V0.5H1227V0L1229 0ZM1233 0V0.5H1231V0L1233 0ZM1237 0V0.5H1235V0L1237 0ZM1241 0V0.5H1239V0L1241 0ZM1245 0V0.5H1243V0L1245 0ZM1249 0V0.5H1247V0L1249 0ZM1253 0V0.5H1251V0L1253 0ZM1257 0V0.5H1255V0L1257 0ZM1261 0V0.5H1259V0L1261 0ZM1265 0V0.5H1263V0L1265 0ZM1269 0V0.5H1267V0L1269 0ZM1273 0V0.5H1271V0L1273 0ZM1277 0V0.5H1275V0L1277 0ZM1281 0V0.5H1279V0L1281 0ZM1285 0V0.5H1283V0L1285 0ZM1289 0V0.5H1287V0L1289 0ZM1293 0V0.5H1291V0L1293 0ZM1297 0V0.5H1295V0L1297 0ZM1301 0V0.5H1299V0L1301 0ZM1305 0V0.5H1303V0L1305 0ZM1309 0V0.5H1307V0L1309 0ZM1313 0V0.5H1311V0L1313 0ZM1317 0V0.5H1315V0L1317 0ZM1321 0V0.5H1319V0L1321 0ZM1325 0V0.5H1323V0L1325 0ZM1329 0V0.5H1327V0L1329 0ZM1333 0V0.5H1331V0L1333 0ZM1337 0V0.5H1335V0L1337 0ZM1341 0V0.5H1339V0L1341 0ZM1345 0V0.5H1343V0L1345 0ZM1349 0V0.5H1347V0L1349 0ZM1353 0V0.5H1351V0L1353 0ZM1357 0V0.5H1355V0L1357 0ZM1361 0V0.5H1359V0L1361 0ZM1365 0V0.5H1363V0L1365 0ZM1369 0V0.5H1367V0L1369 0ZM1373 0V0.5H1371V0L1373 0ZM1377 0V0.5H1375V0L1377 0ZM1381 0V0.5H1379V0L1381 0ZM1385 0V0.5H1383V0L1385 0ZM1389 0V0.5H1387V0L1389 0ZM1393 0V0.5H1391V0L1393 0ZM1397 0V0.5H1395V0L1397 0ZM1401 0V0.5H1399V0L1401 0ZM1405 0V0.5H1403V0L1405 0ZM1409 0V0.5H1407V0L1409 0ZM1413 0V0.5H1411V0L1413 0ZM1417 0V0.5H1415V0L1417 0ZM1421 0V0.5H1419V0L1421 0ZM1425 0V0.5H1423V0L1425 0ZM1429 0V0.5H1427V0L1429 0ZM1433 0V0.5H1431V0L1433 0ZM1437 0V0.5H1435V0L1437 0ZM1441 0V0.5H1439V0L1441 0ZM1445 0V0.5H1443V0L1445 0ZM1449 0V0.5H1447V0L1449 0ZM1453 0V0.5H1451V0L1453 0ZM1457 0V0.5H1455V0L1457 0ZM1461 0V0.5H1459V0L1461 0ZM1465 0V0.5H1463V0L1465 0ZM1469 0V0.5H1467V0L1469 0ZM1473 0V0.5H1471V0L1473 0ZM1477 0V0.5H1475V0L1477 0ZM1481 0V0.5H1479V0L1481 0ZM1485 0V0.5H1483V0L1485 0ZM1489 0V0.5H1487V0L1489 0ZM1493 0V0.5H1491V0L1493 0ZM1497 0V0.5H1495V0L1497 0ZM1501 0V0.5H1499V0L1501 0ZM1505 0V0.5H1503V0L1505 0ZM1509 0V0.5H1507V0L1509 0ZM1513 0V0.5H1511V0L1513 0ZM1517 0V0.5H1515V0L1517 0ZM1521 0V0.5H1519V0L1521 0ZM1525 0V0.5H1523V0L1525 0ZM1529 0V0.5H1527V0L1529 0ZM1533 0V0.5H1531V0L1533 0ZM1537 0V0.5H1535V0L1537 0ZM1541 0V0.5H1539V0L1541 0ZM1545 0V0.5H1543V0L1545 0ZM1549 0V0.5H1547V0L1549 0ZM1553 0V0.5H1551V0L1553 0ZM1557 0V0.5H1555V0L1557 0ZM1561 0V0.5H1559V0L1561 0ZM1565 0V0.5H1563V0L1565 0ZM1569 0V0.5H1567V0L1569 0ZM1573 0V0.5H1571V0L1573 0ZM1577 0V0.5H1575V0L1577 0ZM1581 0V0.5H1579V0L1581 0ZM1585 0V0.5H1583V0L1585 0ZM1589 0V0.5H1587V0L1589 0ZM1593 0V0.5H1591V0L1593 0ZM1597 0V0.5H1595V0L1597 0ZM1601 0V0.5H1599V0L1601 0ZM1605 0V0.5H1603V0L1605 0ZM1609 0V0.5H1607V0L1609 0ZM1613 0V0.5H1611V0L1613 0ZM1617 0V0.5H1615V0L1617 0ZM1621 0V0.5H1619V0L1621 0ZM1625 0V0.5H1623V0L1625 0ZM1629 0V0.5H1627V0L1629 0ZM1633 0V0.5H1631V0L1633 0ZM1637 0V0.5H1635V0L1637 0ZM1641 0V0.5H1639V0L1641 0ZM1645 0V0.5H1643V0L1645 0ZM1649 0V0.5H1647V0L1649 0ZM1653 0V0.5H1651V0L1653 0ZM1657 0V0.5H1655V0L1657 0ZM1661 0V0.5H1659V0L1661 0ZM1665 0V0.5H1663V0L1665 0ZM1669 0V0.5H1667V0L1669 0ZM1673 0V0.5H1671V0L1673 0ZM1677 0V0.5H1675V0L1677 0ZM1681 0V0.5H1679V0L1681 0ZM1685 0V0.5H1683V0L1685 0ZM1689 0V0.5H1687V0L1689 0ZM1693 0V0.5H1691V0L1693 0ZM1697 0V0.5H1695V0L1697 0ZM1701 0V0.5H1699V0L1701 0ZM1705 0V0.5H1703V0L1705 0ZM1709 0V0.5H1707V0L1709 0ZM1713 0V0.5H1711V0L1713 0ZM1717 0V0.5H1715V0L1717 0ZM1721 0V0.5H1719V0L1721 0ZM1725 0V0.5H1723V0L1725 0ZM1729 0V0.5H1727V0L1729 0ZM1733 0V0.5H1731V0L1733 0ZM1737 0V0.5H1735V0L1737 0ZM1741 0V0.5H1739V0L1741 0ZM1745 0V0.5H1743V0L1745 0ZM1749 0V0.5H1747V0L1749 0ZM1753 0V0.5H1751V0L1753 0ZM1757 0V0.5H1755V0L1757 0ZM1761 0V0.5H1759V0L1761 0ZM1765 0V0.5H1763V0L1765 0ZM1769 0V0.5H1767V0L1769 0ZM1773 0V0.5H1771V0L1773 0ZM1777 0V0.5H1775V0L1777 0ZM1781 0V0.5H1779V0L1781 0ZM1785 0V0.5H1783V0L1785 0ZM1789 0V0.5H1787V0L1789 0ZM1793 0V0.5H1791V0L1793 0ZM1797 0V0.5H1795V0L1797 0ZM1801 0V0.5H1799V0L1801 0ZM1805 0V0.5H1803V0L1805 0ZM1809 0V0.5H1807V0L1809 0ZM1813 0V0.5H1811V0L1813 0ZM1817 0V0.5H1815V0L1817 0ZM1821 0V0.5H1819V0L1821 0ZM1825 0V0.5H1823V0L1825 0ZM1829 0V0.5H1827V0L1829 0ZM1833 0V0.5H1831V0L1833 0ZM1837 0V0.5H1835V0L1837 0ZM1841 0V0.5H1839V0L1841 0ZM1845 0V0.5H1843V0L1845 0ZM1849 0V0.5H1847V0L1849 0ZM1853 0V0.5H1851V0L1853 0ZM1857 0V0.5H1855V0L1857 0ZM1861 0V0.5H1859V0L1861 0ZM1865 0V0.5H1863V0L1865 0ZM1869 0V0.5H1867V0L1869 0ZM1873 0V0.5H1871V0L1873 0ZM1877 0V0.5H1875V0L1877 0ZM1881 0V0.5H1879V0L1881 0ZM1885 0V0.5H1883V0L1885 0ZM1889 0V0.5H1887V0L1889 0ZM1893 0V0.5H1891V0L1893 0ZM1897 0V0.5H1895V0L1897 0ZM1901 0V0.5H1899V0L1901 0ZM1905 0V0.5H1903V0L1905 0ZM1909 0V0.5H1907V0L1909 0ZM1913 0V0.5H1911V0L1913 0ZM1917 0V0.5H1915V0L1917 0ZM1921 0V0.5H1919V0L1921 0ZM1925 0V0.5H1923V0L1925 0ZM1929 0V0.5H1927V0L1929 0ZM1933 0V0.5H1931V0L1933 0ZM1937 0V0.5H1935V0L1937 0ZM1941 0V0.5H1939V0L1941 0ZM1945 0V0.5H1943V0L1945 0ZM1949 0V0.5H1947V0L1949 0ZM1953 0V0.5H1951V0L1953 0ZM1957 0V0.5H1955V0L1957 0ZM1961 0V0.5H1959V0L1961 0ZM1965 0V0.5H1963V0L1965 0ZM1969 0V0.5H1967V0L1969 0ZM1973 0V0.5H1971V0L1973 0ZM1977 0V0.5H1975V0L1977 0ZM1981 0V0.5H1979V0L1981 0ZM1985 0V0.5H1983V0L1985 0ZM1989 0V0.5H1987V0L1989 0ZM1993 0V0.5H1991V0L1993 0ZM1997 0V0.5H1995V0L1997 0ZM2001 0V0.5H1999V0L2001 0ZM2005 0V0.5H2003V0L2005 0ZM2009 0V0.5H2007V0L2009 0ZM2013 0V0.5H2011V0L2013 0ZM2017 0V0.5H2015V0L2017 0ZM2021 0V0.5H2019V0L2021 0ZM2025 0V0.5H2023V0L2025 0ZM2029 0V0.5H2027V0L2029 0ZM2033 0V0.5H2031V0L2033 0ZM2037 0V0.5H2035V0L2037 0ZM2041 0V0.5H2039V0L2041 0ZM2045 0V0.5H2043V0L2045 0ZM2049 0V0.5H2047V0L2049 0ZM2053 0V0.5H2051V0L2053 0ZM2057 0V0.5H2055V0L2057 0ZM2061 0V0.5H2059V0L2061 0ZM2065 0V0.5H2063V0L2065 0ZM2069 0V0.5H2067V0L2069 0ZM2073 0V0.5H2071V0L2073 0ZM2077 0V0.5H2075V0L2077 0ZM2081 0V0.5H2079V0L2081 0ZM2085 0V0.5H2083V0L2085 0ZM2089 0V0.5H2087V0L2089 0ZM2093 0V0.5H2091V0L2093 0ZM2097 0V0.5H2095V0L2097 0ZM2101 0V0.5H2099V0L2101 0ZM2105 0V0.5H2103V0L2105 0ZM2109 0V0.5H2107V0L2109 0ZM2113 0V0.5H2111V0L2113 0ZM2117 0V0.5H2115V0L2117 0ZM2121 0V0.5H2119V0L2121 0ZM2125 0V0.5H2123V0L2125 0ZM2129 0V0.5H2127V0L2129 0ZM2133 0V0.5H2131V0L2133 0ZM2137 0V0.5H2135V0L2137 0ZM2141 0V0.5H2139V0L2141 0ZM2145 0V0.5H2143V0L2145 0ZM2149 0V0.5H2147V0L2149 0ZM2153 0V0.5H2151V0L2153 0ZM2157 0V0.5H2155V0L2157 0ZM2161 0V0.5H2159V0L2161 0ZM2165 0V0.5H2163V0L2165 0ZM2169 0V0.5H2167V0L2169 0ZM2173 0V0.5H2171V0L2173 0ZM2177 0V0.5H2175V0L2177 0ZM2181 0V0.5H2179V0L2181 0ZM2185 0V0.5H2183V0L2185 0ZM2189 0V0.5H2187V0L2189 0ZM2193 0V0.5H2191V0L2193 0ZM2197 0V0.5H2195V0L2197 0ZM2201 0V0.5H2199V0L2201 0ZM2205 0V0.5H2203V0L2205 0ZM2209 0V0.5H2207V0L2209 0ZM2213 0V0.5H2211V0L2213 0ZM2217 0V0.5H2215V0L2217 0ZM2221 0V0.5H2219V0L2221 0ZM2225 0V0.5H2223V0L2225 0ZM2229 0V0.5H2227V0L2229 0ZM2233 0V0.5H2231V0L2233 0ZM2237 0V0.5H2235V0L2237 0ZM2241 0V0.5H2239V0L2241 0ZM2245 0V0.5H2243V0L2245 0ZM2249 0V0.5H2247V0L2249 0ZM2253 0V0.5H2251V0L2253 0ZM2257 0V0.5H2255V0L2257 0ZM2261 0V0.5H2259V0L2261 0ZM2265 0V0.5H2263V0L2265 0ZM2269 0V0.5H2267V0L2269 0ZM2273 0V0.5H2271V0L2273 0ZM2277 0V0.5H2275V0L2277 0ZM2281 0V0.5H2279V0L2281 0ZM2285 0V0.5H2283V0L2285 0ZM2289 0V0.5H2287V0L2289 0ZM2293 0V0.5H2291V0L2293 0ZM2297 0V0.5H2295V0L2297 0ZM2301 0V0.5H2299V0L2301 0ZM2305 0V0.5H2303V0L2305 0ZM2309 0V0.5H2307V0L2309 0ZM2313 0V0.5H2311V0L2313 0ZM2317 0V0.5H2315V0L2317 0ZM2321 0V0.5H2319V0L2321 0ZM2325 0V0.5H2323V0L2325 0ZM2329 0V0.5H2327V0L2329 0ZM2333 0V0.5H2331V0L2333 0ZM2337 0V0.5H2335V0L2337 0ZM2341 0V0.5H2339V0L2341 0ZM2345 0V0.5H2343V0L2345 0ZM2349 0V0.5H2347V0L2349 0ZM2353 0V0.5H2351V0L2353 0ZM2357 0V0.5H2355V0L2357 0ZM2361 0V0.5H2359V0L2361 0ZM2365 0V0.5H2363V0L2365 0ZM2369 0V0.5H2367V0L2369 0ZM2373 0V0.5H2371V0L2373 0ZM2377 0V0.5H2375V0L2377 0ZM2381 0V0.5H2379V0L2381 0ZM2385 0V0.5H2383V0L2385 0ZM2389 0V0.5H2387V0L2389 0ZM2393 0V0.5H2391V0L2393 0ZM2397 0V0.5H2395V0L2397 0ZM2401 0V0.5H2399V0L2401 0ZM2405 0V0.5H2403V0L2405 0ZM2409 0V0.5H2407V0L2409 0ZM2413 0V0.5H2411V0L2413 0ZM2417 0V0.5H2415V0L2417 0ZM2421 0V0.5H2419V0L2421 0ZM2425 0V0.5H2423V0L2425 0ZM2429 0V0.5H2427V0L2429 0ZM2433 0V0.5H2431V0L2433 0ZM2437 0V0.5H2435V0L2437 0ZM2441 0V0.5H2439V0L2441 0ZM2445 0V0.5H2443V0L2445 0ZM2449 0V0.5H2447V0L2449 0ZM2453 0V0.5H2451V0L2453 0ZM2457 0V0.5H2455V0L2457 0ZM2461 0V0.5H2459V0L2461 0ZM2465 0V0.5H2463V0L2465 0ZM2469 0V0.5H2467V0L2469 0ZM2473 0V0.5H2471V0L2473 0ZM2477 0V0.5H2475V0L2477 0ZM2481 0V0.5H2479V0L2481 0ZM2485 0V0.5H2483V0L2485 0ZM2489 0V0.5H2487V0L2489 0ZM2493 0V0.5H2491V0L2493 0ZM2497 0V0.5H2495V0L2497 0ZM2501 0V0.5H2499V0L2501 0ZM2505 0V0.5H2503V0L2505 0ZM2509 0V0.5H2507V0L2509 0ZM2513 0V0.5H2511V0L2513 0ZM2517 0V0.5H2515V0L2517 0ZM2521 0V0.5H2519V0L2521 0ZM2525 0V0.5H2523V0L2525 0ZM2529 0V0.5H2527V0L2529 0ZM2533 0V0.5H2531V0L2533 0ZM2537 0V0.5H2535V0L2537 0ZM2541 0V0.5H2539V0L2541 0ZM2545 0V0.5H2543V0L2545 0ZM2549 0V0.5H2547V0L2549 0ZM2553 0V0.5H2551V0L2553 0ZM2557 0V0.5H2555V0L2557 0ZM2561 0V0.5H2559V0L2561 0ZM2565 0V0.5H2563V0L2565 0ZM2569 0V0.5H2567V0L2569 0ZM2573 0V0.5H2571V0L2573 0ZM2577 0V0.5H2575V0L2577 0ZM2581 0V0.5H2579V0L2581 0ZM2585 0V0.5H2583V0L2585 0ZM2589 0V0.5H2587V0L2589 0ZM2593 0V0.5H2591V0L2593 0ZM2597 0V0.5H2595V0L2597 0ZM2601 0V0.5H2599V0L2601 0ZM2605 0V0.5H2603V0L2605 0ZM2609 0V0.5H2607V0L2609 0ZM2613 0V0.5H2611V0L2613 0ZM2617 0V0.5H2615V0L2617 0ZM2621 0V0.5H2619V0L2621 0ZM2625 0V0.5H2623V0L2625 0ZM2629 0V0.5H2627V0L2629 0ZM2633 0V0.5H2631V0L2633 0ZM2637 0V0.5H2635V0L2637 0ZM2641 0V0.5H2639V0L2641 0ZM2645 0V0.5H2643V0L2645 0ZM2649 0V0.5H2647V0L2649 0ZM2653 0V0.5H2651V0L2653 0ZM2657 0V0.5H2655V0L2657 0ZM2661 0V0.5H2659V0L2661 0ZM2665 0V0.5H2663V0L2665 0ZM2669 0V0.5H2667V0L2669 0ZM2673 0V0.5H2671V0L2673 0ZM2677 0V0.5H2675V0L2677 0ZM2681 0V0.5H2679V0L2681 0ZM2685 0V0.5H2683V0L2685 0ZM2689 0V0.5H2687V0L2689 0ZM2693 0V0.5H2691V0L2693 0ZM2697 0V0.5H2695V0L2697 0ZM2701 0V0.5H2699V0L2701 0ZM2705 0V0.5H2703V0L2705 0ZM2709 0V0.5H2707V0L2709 0ZM2713 0V0.5H2711V0L2713 0ZM2717 0V0.5H2715V0L2717 0ZM2721 0V0.5H2719V0L2721 0ZM2725 0V0.5H2723V0L2725 0ZM2729 0V0.5H2727V0L2729 0ZM2733 0V0.5H2731V0L2733 0ZM2737 0V0.5H2735V0L2737 0ZM2741 0V0.5H2739V0L2741 0ZM2745 0V0.5H2743V0L2745 0ZM2749 0V0.5H2747V0L2749 0ZM2753 0V0.5H2751V0L2753 0ZM2757 0V0.5H2755V0L2757 0ZM2761 0V0.5H2759V0L2761 0ZM2765 0V0.5H2763V0L2765 0ZM2769 0V0.5H2767V0L2769 0ZM2773 0V0.5H2771V0L2773 0ZM2777 0V0.5H2775V0L2777 0ZM2781 0V0.5H2779V0L2781 0ZM2785 0V0.5H2783V0L2785 0ZM2789 0V0.5H2787V0L2789 0ZM2793 0V0.5H2791V0L2793 0ZM2797 0V0.5H2795V0L2797 0ZM2801 0V0.5H2799V0L2801 0ZM2805 0V0.5H2803V0L2805 0ZM2809 0V0.5H2807V0L2809 0ZM2813 0V0.5H2811V0L2813 0ZM2817 0V0.5H2815V0L2817 0ZM2821 0V0.5H2819V0L2821 0ZM2825 0V0.5H2823V0L2825 0ZM2829 0V0.5H2827V0L2829 0ZM2833 0V0.5H2831V0L2833 0ZM2837 0V0.5H2835V0L2837 0ZM2841 0V0.5H2839V0L2841 0ZM2845 0V0.5H2843V0L2845 0ZM2849 0V0.5H2847V0L2849 0ZM2853 0V0.5H2851V0L2853 0ZM2857 0V0.5H2855V0L2857 0ZM2861 0V0.5H2859V0L2861 0ZM2865 0V0.5H2863V0L2865 0ZM2869 0V0.5H2867V0L2869 0ZM2873 0V0.5H2871V0L2873 0ZM2877 0V0.5H2875V0L2877 0ZM2881 0V0.5H2879V0L2881 0ZM2885 0V0.5H2883V0L2885 0ZM2889 0V0.5H2887V0L2889 0ZM2893 0V0.5H2891V0L2893 0ZM2897 0V0.5H2895V0L2897 0ZM2901 0V0.5H2899V0L2901 0ZM2905 0V0.5H2903V0L2905 0ZM2909 0V0.5H2907V0L2909 0ZM2913 0V0.5H2911V0L2913 0ZM2917 0V0.5H2915V0L2917 0ZM2921 0V0.5H2919V0L2921 0ZM2925 0V0.5H2923V0L2925 0ZM2929 0V0.5H2927V0L2929 0ZM2933 0V0.5H2931V0L2933 0ZM2937 0V0.5H2935V0L2937 0ZM2941 0V0.5H2939V0L2941 0ZM2945 0V0.5H2943V0L2945 0ZM2949 0V0.5H2947V0L2949 0ZM2953 0V0.5H2951V0L2953 0ZM2957 0V0.5H2955V0L2957 0ZM2961 0V0.5H2959V0L2961 0ZM2965 0V0.5H2963V0L2965 0ZM2969 0V0.5H2967V0L2969 0ZM2973 0V0.5H2971V0L2973 0ZM2977 0V0.5H2975V0L2977 0ZM2981 0V0.5H2979V0L2981 0ZM2985 0V0.5H2983V0L2985 0ZM2989 0V0.5H2987V0L2989 0ZM2993 0V0.5H2991V0L2993 0ZM2997 0V0.5H2995V0L2997 0ZM3001 0V0.5H2999V0L3001 0ZM3005 0V0.5H3003V0L3005 0ZM3009 0V0.5H3007V0L3009 0ZM3013 0V0.5H3011V0L3013 0ZM3017 0V0.5H3015V0L3017 0ZM3021 0V0.5H3019V0L3021 0ZM3025 0V0.5H3023V0L3025 0ZM3029 0V0.5H3027V0L3029 0ZM3033 0V0.5H3031V0L3033 0ZM3037 0V0.5H3035V0L3037 0ZM3041 0V0.5H3039V0L3041 0ZM3045 0V0.5H3043V0L3045 0ZM3049 0V0.5H3047V0L3049 0ZM3053 0V0.5H3051V0L3053 0ZM3057 0V0.5H3055V0L3057 0ZM3061 0V0.5H3059V0L3061 0ZM3065 0V0.5H3063V0L3065 0ZM3069 0V0.5H3067V0L3069 0ZM3073 0V0.5H3071V0L3073 0ZM3077 0V0.5H3075V0L3077 0ZM3081 0V0.5H3079V0L3081 0ZM3085 0V0.5H3083V0L3085 0ZM3089 0V0.5H3087V0L3089 0ZM3093 0V0.5H3091V0L3093 0ZM3097 0V0.5H3095V0L3097 0ZM3101 0V0.5H3099V0L3101 0ZM3105 0V0.5H3103V0L3105 0ZM3109 0V0.5H3107V0L3109 0ZM3113 0V0.5H3111V0L3113 0ZM3117 0V0.5H3115V0L3117 0ZM3121 0V0.5H3119V0L3121 0ZM3125 0V0.5H3123V0L3125 0ZM3129 0V0.5H3127V0L3129 0ZM3133 0V0.5H3131V0L3133 0ZM3137 0V0.5H3135V0L3137 0ZM3141 0V0.5H3139V0L3141 0ZM3145 0V0.5H3143V0L3145 0ZM3149 0V0.5H3147V0L3149 0ZM3153 0V0.5H3151V0L3153 0ZM3157 0V0.5H3155V0L3157 0ZM3161 0V0.5H3159V0L3161 0ZM3165 0V0.5H3163V0L3165 0ZM3169 0V0.5H3167V0L3169 0ZM3173 0V0.5H3171V0L3173 0ZM3177 0V0.5H3175V0L3177 0ZM3181 0V0.5H3179V0L3181 0ZM3185 0V0.5H3183V0L3185 0ZM3189 0V0.5H3187V0L3189 0ZM3193 0V0.5H3191V0L3193 0ZM3197 0V0.5H3195V0L3197 0ZM3201 0V0.5H3199V0L3201 0ZM3205 0V0.5H3203V0L3205 0ZM3209 0V0.5H3207V0L3209 0ZM3213 0V0.5H3211V0L3213 0ZM3217 0V0.5H3215V0L3217 0ZM3221 0V0.5H3219V0L3221 0ZM3225 0V0.5H3223V0L3225 0ZM3229 0V0.5H3227V0L3229 0ZM3233 0V0.5H3231V0L3233 0ZM3237 0V0.5H3235V0L3237 0ZM3241 0V0.5H3239V0L3241 0ZM3245 0V0.5H3243V0L3245 0ZM3249 0V0.5H3247V0L3249 0ZM3253 0V0.5H3251V0L3253 0ZM3257 0V0.5H3255V0L3257 0ZM3261 0V0.5H3259V0L3261 0ZM3265 0V0.5H3263V0L3265 0ZM3269 0V0.5H3267V0L3269 0ZM3273 0V0.5H3271V0L3273 0ZM3277 0V0.5H3275V0L3277 0ZM3281 0V0.5H3279V0L3281 0ZM3285 0V0.5H3283V0L3285 0ZM3289 0V0.5H3287V0L3289 0ZM3293 0V0.5H3291V0L3293 0ZM3297 0V0.5H3295V0L3297 0ZM3301 0V0.5H3299V0L3301 0ZM3305 0V0.5H3303V0L3305 0ZM3309 0V0.5H3307V0L3309 0ZM3313 0V0.5H3311V0L3313 0ZM3317 0V0.5H3315V0L3317 0ZM3321 0V0.5H3319V0L3321 0ZM3325 0V0.5H3323V0L3325 0ZM3329 0V0.5H3327V0L3329 0ZM3333 0V0.5H3331V0L3333 0ZM3337 0V0.5H3335V0L3337 0ZM3341 0V0.5H3339V0L3341 0ZM3345 0V0.5H3343V0L3345 0ZM3349 0V0.5H3347V0L3349 0ZM3353 0V0.5H3351V0L3353 0ZM3357 0V0.5H3355V0L3357 0ZM3361 0V0.5H3359V0L3361 0ZM3365 0V0.5H3363V0L3365 0ZM3369 0V0.5H3367V0L3369 0ZM3373 0V0.5H3371V0L3373 0ZM3377 0V0.5H3375V0L3377 0ZM3381 0V0.5H3379V0L3381 0ZM3385 0V0.5H3383V0L3385 0ZM3389 0V0.5H3387V0L3389 0ZM3393 0V0.5H3391V0L3393 0ZM3397 0V0.5H3395V0L3397 0ZM3401 0V0.5H3399V0L3401 0ZM3405 0V0.5H3403V0L3405 0ZM3409 0V0.5H3407V0L3409 0ZM3413 0V0.5H3411V0L3413 0ZM3417 0V0.5H3415V0L3417 0ZM3421 0V0.5H3419V0L3421 0ZM3425 0V0.5H3423V0L3425 0ZM3429 0V0.5H3427V0L3429 0ZM3433 0V0.5H3431V0L3433 0ZM3437 0V0.5H3435V0L3437 0ZM3441 0V0.5H3439V0L3441 0ZM3445 0V0.5H3443V0L3445 0ZM3449 0V0.5H3447V0L3449 0ZM3453 0V0.5H3451V0L3453 0ZM3457 0V0.5H3455V0L3457 0ZM3461 0V0.5H3459V0L3461 0ZM3465 0V0.5H3463V0L3465 0ZM3469 0V0.5H3467V0L3469 0ZM3473 0V0.5H3471V0L3473 0ZM3477 0V0.5H3475V0L3477 0ZM3481 0V0.5H3479V0L3481 0ZM3485 0V0.5H3483V0L3485 0ZM3489 0V0.5H3487V0L3489 0ZM3493 0V0.5H3491V0L3493 0ZM3497 0V0.5H3495V0L3497 0ZM3501 0V0.5H3499V0L3501 0ZM3505 0V0.5H3503V0L3505 0ZM3509 0V0.5H3507V0L3509 0ZM3513 0V0.5H3511V0L3513 0ZM3517 0V0.5H3515V0L3517 0ZM3521 0V0.5H3519V0L3521 0ZM3525 0V0.5H3523V0L3525 0ZM3529 0V0.5H3527V0L3529 0ZM3533 0V0.5H3531V0L3533 0ZM3537 0V0.5H3535V0L3537 0ZM3541 0V0.5H3539V0L3541 0ZM3545 0V0.5H3543V0L3545 0ZM3549 0V0.5H3547V0L3549 0ZM3553 0V0.5H3551V0L3553 0ZM3557 0V0.5H3555V0L3557 0ZM3561 0V0.5H3559V0L3561 0ZM3565 0V0.5H3563V0L3565 0ZM3569 0V0.5H3567V0L3569 0ZM3573 0V0.5H3571V0L3573 0ZM3577 0V0.5H3575V0L3577 0ZM3581 0V0.5H3579V0L3581 0ZM3585 0V0.5H3583V0L3585 0ZM3589 0V0.5H3587V0L3589 0ZM3593 0V0.5H3591V0L3593 0ZM3597 0V0.5H3595V0L3597 0ZM3601 0V0.5H3599V0L3601 0ZM3605 0V0.5H3603V0L3605 0ZM3609 0V0.5H3607V0L3609 0ZM3613 0V0.5H3611V0L3613 0ZM3617 0V0.5H3615V0L3617 0ZM3621 0V0.5H3619V0L3621 0ZM3625 0V0.5H3623V0L3625 0ZM3629 0V0.5H3627V0L3629 0ZM3633 0V0.5H3631V0L3633 0ZM3637 0V0.5H3635V0L3637 0ZM3641 0V0.5H3639V0L3641 0ZM3645 0V0.5H3643V0L3645 0ZM3649 0V0.5H3647V0L3649 0ZM3653 0V0.5H3651V0L3653 0ZM3657 0V0.5H3655V0L3657 0ZM3661 0V0.5H3659V0L3661 0ZM3665 0V0.5H3663V0L3665 0ZM3669 0V0.5H3667V0L3669 0ZM3673 0V0.5H3671V0L3673 0ZM3677 0V0.5H3675V0L3677 0ZM3681 0V0.5H3679V0L3681 0ZM3685 0V0.5H3683V0L3685 0ZM3689 0V0.5H3687V0L3689 0ZM3693 0V0.5H3691V0L3693 0ZM3697 0V0.5H3695V0L3697 0ZM3701 0V0.5H3699V0L3701 0ZM3705 0V0.5H3703V0L3705 0ZM3709 0V0.5H3707V0L3709 0ZM3713 0V0.5H3711V0L3713 0ZM3717 0V0.5H3715V0L3717 0ZM3721 0V0.5H3719V0L3721 0ZM3725 0V0.5H3723V0L3725 0ZM3729 0V0.5H3727V0L3729 0ZM3733 0V0.5H3731V0L3733 0ZM3737 0V0.5H3735V0L3737 0ZM3741 0V0.5H3739V0L3741 0ZM3745 0V0.5H3743V0L3745 0ZM3749 0V0.5H3747V0L3749 0ZM3753 0V0.5H3751V0L3753 0ZM3757 0V0.5H3755V0L3757 0ZM3761 0V0.5H3759V0L3761 0ZM3765 0V0.5H3763V0L3765 0ZM3769 0V0.5H3767V0L3769 0ZM3773 0V0.5H3771V0L3773 0ZM3777 0V0.5H3775V0L3777 0ZM3781 0V0.5H3779V0L3781 0ZM3785 0V0.5H3783V0L3785 0ZM3789 0V0.5H3787V0L3789 0ZM3793 0V0.5H3791V0L3793 0ZM3797 0V0.5H3795V0L3797 0ZM3801 0V0.5H3799V0L3801 0ZM3805 0V0.5H3803V0L3805 0ZM3809 0V0.5H3807V0L3809 0ZM3813 0V0.5H3811V0L3813 0ZM3817 0V0.5H3815V0L3817 0ZM3821 0V0.5H3819V0L3821 0ZM3825 0V0.5H3823V0L3825 0ZM3829 0V0.5H3827V0L3829 0ZM3833 0V0.5H3831V0L3833 0ZM3837 0V0.5H3835V0L3837 0ZM3841 0V0.5H3839V0L3841 0ZM3845 0V0.5H3843V0L3845 0ZM3849 0V0.5H3847V0L3849 0ZM3853 0V0.5H3851V0L3853 0ZM3857 0V0.5H3855V0L3857 0ZM3861 0V0.5H3859V0L3861 0ZM3865 0V0.5H3863V0L3865 0ZM3869 0V0.5H3867V0L3869 0ZM3873 0V0.5H3871V0L3873 0ZM3877 0V0.5H3875V0L3877 0ZM3881 0V0.5H3879V0L3881 0ZM3885 0V0.5H3883V0L3885 0ZM3889 0V0.5H3887V0L3889 0ZM3893 0V0.5H3891V0L3893 0ZM3897 0V0.5H3895V0L3897 0ZM3901 0V0.5H3899V0L3901 0ZM3905 0V0.5H3903V0L3905 0ZM3909 0V0.5H3907V0L3909 0ZM3913 0V0.5H3911V0L3913 0ZM3917 0V0.5H3915V0L3917 0ZM3921 0V0.5H3919V0L3921 0ZM3925 0V0.5H3923V0L3925 0ZM3929 0V0.5H3927V0L3929 0ZM3933 0V0.5H3931V0L3933 0ZM3937 0V0.5H3935V0L3937 0ZM3941 0V0.5H3939V0L3941 0ZM3945 0V0.5H3943V0L3945 0ZM3949 0V0.5H3947V0L3949 0ZM3953 0V0.5H3951V0L3953 0ZM3957 0V0.5H3955V0L3957 0ZM3961 0V0.5H3959V0L3961 0ZM3965 0V0.5H3963V0L3965 0ZM3969 0V0.5H3967V0L3969 0ZM3973 0V0.5H3971V0L3973 0ZM3977 0V0.5H3975V0L3977 0ZM3981 0V0.5H3979V0L3981 0ZM3985 0V0.5H3983V0L3985 0ZM3989 0V0.5H3987V0L3989 0ZM3993 0V0.5H3991V0L3993 0ZM3997 0V0.5H3995V0L3997 0ZM4001 0V0.5H3999V0L4001 0ZM4005 0V0.5H4003V0L4005 0ZM4009 0V0.5H4007V0L4009 0ZM4013 0V0.5H4011V0L4013 0ZM4017 0V0.5H4015V0L4017 0ZM4021 0V0.5H4019V0L4021 0ZM4025 0V0.5H4023V0L4025 0ZM4029 0V0.5H4027V0L4029 0ZM4033 0V0.5H4031V0L4033 0ZM4037 0V0.5H4035V0L4037 0ZM4041 0V0.5H4039V0L4041 0ZM4045 0V0.5H4043V0L4045 0ZM4049 0V0.5H4047V0L4049 0ZM4053 0V0.5H4051V0L4053 0ZM4057 0V0.5H4055V0L4057 0ZM4061 0V0.5H4059V0L4061 0ZM4065 0V0.5H4063V0L4065 0ZM4069 0V0.5H4067V0L4069 0ZM4073 0V0.5H4071V0L4073 0ZM4077 0V0.5H4075V0L4077 0ZM4081 0V0.5H4079V0L4081 0ZM4085 0V0.5H4083V0L4085 0ZM4089 0V0.5H4087V0L4089 0ZM4093 0V0.5H4091V0L4093 0ZM4097 0V0.5H4095V0L4097 0ZM4101 0V0.5H4099V0L4101 0ZM4105 0V0.5H4103V0L4105 0ZM4109 0V0.5H4107V0L4109 0ZM4113 0V0.5H4111V0L4113 0ZM4117 0V0.5H4115V0L4117 0ZM4121 0V0.5H4119V0L4121 0ZM4125 0V0.5H4123V0L4125 0ZM4129 0V0.5H4127V0L4129 0ZM4133 0V0.5H4131V0L4133 0ZM4137 0V0.5H4135V0L4137 0ZM4141 0V0.5H4139V0L4141 0ZM4145 0V0.5H4143V0L4145 0ZM4149 0V0.5H4147V0L4149 0ZM4153 0V0.5H4151V0L4153 0ZM4157 0V0.5H4155V0L4157 0ZM4161 0V0.5H4159V0L4161 0ZM4165 0V0.5H4163V0L4165 0ZM4169 0V0.5H4167V0L4169 0ZM4173 0V0.5H4171V0L4173 0ZM4177 0V0.5H4175V0L4177 0ZM4181 0V0.5H4179V0L4181 0ZM4185 0V0.5H4183V0L4185 0ZM4189 0V0.5H4187V0L4189 0ZM4193 0V0.5H4191V0L4193 0ZM4197 0V0.5H4195V0L4197 0ZM4201 0V0.5H4199V0L4201 0ZM4205 0V0.5H4203V0L4205 0ZM4209 0V0.5H4207V0L4209 0ZM4213 0V0.5H4211V0L4213 0ZM4217 0V0.5H4215V0L4217 0ZM4221 0V0.5H4219V0L4221 0ZM4225 0V0.5H4223V0L4225 0ZM4229 0V0.5H4227V0L4229 0ZM4233 0V0.5H4231V0L4233 0ZM4237 0V0.5H4235V0L4237 0ZM4241 0V0.5H4239V0L4241 0ZM4245 0V0.5H4243V0L4245 0ZM4249 0V0.5H4247V0L4249 0ZM4253 0V0.5H4251V0L4253 0ZM4257 0V0.5H4255V0L4257 0ZM4261 0V0.5H4259V0L4261 0ZM4265 0V0.5H4263V0L4265 0ZM4269 0V0.5H4267V0L4269 0ZM4273 0V0.5H4271V0L4273 0ZM4277 0V0.5H4275V0L4277 0ZM4281 0V0.5H4279V0L4281 0ZM4285 0V0.5H4283V0L4285 0ZM4289 0V0.5H4287V0L4289 0ZM4293 0V0.5H4291V0L4293 0ZM4297 0V0.5H4295V0L4297 0ZM4301 0V0.5H4299V0L4301 0ZM4305 0V0.5H4303V0L4305 0ZM4309 0V0.5H4307V0L4309 0ZM4313 0V0.5H4311V0L4313 0ZM4317 0V0.5H4315V0L4317 0ZM4321 0V0.5H4319V0L4321 0ZM4325 0V0.5H4323V0L4325 0ZM4329 0V0.5H4327V0L4329 0ZM4333 0V0.5H4331V0L4333 0ZM4337 0V0.5H4335V0L4337 0ZM4341 0V0.5H4339V0L4341 0ZM4345 0V0.5H4343V0L4345 0ZM4349 0V0.5H4347V0L4349 0ZM4353 0V0.5H4351V0L4353 0ZM4357 0V0.5H4355V0L4357 0ZM4361 0V0.5H4359V0L4361 0ZM4365 0V0.5H4363V0L4365 0ZM4369 0V0.5H4367V0L4369 0ZM4373 0V0.5H4371V0L4373 0ZM4377 0V0.5H4375V0L4377 0ZM4381 0V0.5H4379V0L4381 0ZM4385 0V0.5H4383V0L4385 0ZM4389 0V0.5H4387V0L4389 0ZM4393 0V0.5H4391V0L4393 0ZM4397 0V0.5H4395V0L4397 0ZM4401 0V0.5H4399V0L4401 0ZM4405 0V0.5H4403V0L4405 0ZM4409 0V0.5H4407V0L4409 0ZM4413 0V0.5H4411V0L4413 0ZM4417 0V0.5H4415V0L4417 0ZM4421 0V0.5H4419V0L4421 0ZM4425 0V0.5H4423V0L4425 0ZM4429 0V0.5H4427V0L4429 0ZM4433 0V0.5H4431V0L4433 0ZM4437 0V0.5H4435V0L4437 0ZM4441 0V0.5H4439V0L4441 0ZM4445 0V0.5H4443V0L4445 0ZM4449 0V0.5H4447V0L4449 0ZM4453 0V0.5H4451V0L4453 0ZM4457 0V0.5H4455V0L4457 0ZM4461 0V0.5H4459V0L4461 0ZM4465 0V0.5H4463V0L4465 0ZM4469 0V0.5H4467V0L4469 0ZM4473 0V0.5H4471V0L4473 0ZM4477 0V0.5H4475V0L4477 0ZM4481 0V0.5H4479V0L4481 0ZM4485 0V0.5H4483V0L4485 0ZM4489 0V0.5H4487V0L4489 0ZM4493 0V0.5H4491V0L4493 0ZM4497 0V0.5H4495V0L4497 0ZM4501 0V0.5H4499V0L4501 0ZM4505 0V0.5H4503V0L4505 0ZM4509 0V0.5H4507V0L4509 0ZM4513 0V0.5H4511V0L4513 0ZM4517 0V0.5H4515V0L4517 0ZM4521 0V0.5H4519V0L4521 0ZM4525 0V0.5H4523V0L4525 0ZM4529 0V0.5H4527V0L4529 0ZM4533 0V0.5H4531V0L4533 0ZM4537 0V0.5H4535V0L4537 0ZM4541 0V0.5H4539V0L4541 0ZM4545 0V0.5H4543V0L4545 0ZM4549 0V0.5H4547V0L4549 0ZM4553 0V0.5H4551V0L4553 0ZM4557 0V0.5H4555V0L4557 0ZM4561 0V0.5H4559V0L4561 0ZM4565 0V0.5H4563V0L4565 0ZM4569 0V0.5H4567V0L4569 0ZM4573 0V0.5H4571V0L4573 0ZM4577 0V0.5H4575V0L4577 0ZM4581 0V0.5H4579V0L4581 0ZM4585 0V0.5H4583V0L4585 0ZM4589 0V0.5H4587V0L4589 0ZM4593 0V0.5H4591V0L4593 0ZM4597 0V0.5H4595V0L4597 0ZM4601 0V0.5H4599V0L4601 0ZM4605 0V0.5H4603V0L4605 0ZM4609 0V0.5H4607V0L4609 0ZM4613 0V0.5H4611V0L4613 0ZM4617 0V0.5H4615V0L4617 0ZM4621 0V0.5H4619V0L4621 0ZM4625 0V0.5H4623V0L4625 0ZM4629 0V0.5H4627V0L4629 0ZM4633 0V0.5H4631V0L4633 0ZM4637 0V0.5H4635V0L4637 0ZM4641 0V0.5H4639V0L4641 0ZM4645 0V0.5H4643V0L4645 0ZM4649 0V0.5H4647V0L4649 0ZM4653 0V0.5H4651V0L4653 0ZM4657 0V0.5H4655V0L4657 0ZM4661 0V0.5H4659V0L4661 0ZM4665 0V0.5H4663V0L4665 0ZM4669 0V0.5H4667V0L4669 0ZM4673 0V0.5H4671V0L4673 0ZM4677 0V0.5H4675V0L4677 0ZM4681 0V0.5H4679V0L4681 0ZM4685 0V0.5H4683V0L4685 0ZM4689 0V0.5H4687V0L4689 0ZM4693 0V0.5H4691V0L4693 0ZM4697 0V0.5H4695V0L4697 0ZM4701 0V0.5H4699V0L4701 0ZM4705 0V0.5H4703V0L4705 0ZM4709 0V0.5H4707V0L4709 0ZM4713 0V0.5H4711V0L4713 0ZM4717 0V0.5H4715V0L4717 0ZM4721 0V0.5H4719V0L4721 0ZM4725 0V0.5H4723V0L4725 0ZM4729 0V0.5H4727V0L4729 0ZM4733 0V0.5H4731V0L4733 0ZM4737 0V0.5H4735V0L4737 0ZM4741 0V0.5H4739V0L4741 0ZM4745 0V0.5H4743V0L4745 0ZM4749 0V0.5H4747V0L4749 0ZM4753 0V0.5H4751V0L4753 0ZM4757 0V0.5H4755V0L4757 0ZM4761 0V0.5H4759V0L4761 0ZM4765 0V0.5H4763V0L4765 0ZM4769 0V0.5H4767V0L4769 0ZM4773 0V0.5H4771V0L4773 0ZM4777 0V0.5H4775V0L4777 0ZM4781 0V0.5H4779V0L4781 0ZM4785 0V0.5H4783V0L4785 0ZM4789 0V0.5H4787V0L4789 0ZM4793 0V0.5H4791V0L4793 0ZM4797 0V0.5H4795V0L4797 0ZM4801 0V0.5H4799V0L4801 0ZM4805 0V0.5H4803V0L4805 0ZM4809 0V0.5H4807V0L4809 0ZM4813 0V0.5H4811V0L4813 0ZM4817 0V0.5H4815V0L4817 0ZM4821 0V0.5H4819V0L4821 0ZM4825 0V0.5H4823V0L4825 0ZM4829 0V0.5H4827V0L4829 0ZM4833 0V0.5H4831V0L4833 0ZM4837 0V0.5H4835V0L4837 0ZM4841 0V0.5H4839V0L4841 0ZM4845 0V0.5H4843V0L4845 0ZM4849 0V0.5H4847V0L4849 0ZM4853 0V0.5H4851V0L4853 0ZM4857 0V0.5H4855V0L4857 0ZM4861 0V0.5H4859V0L4861 0ZM4865 0V0.5H4863V0L4865 0ZM4869 0V0.5H4867V0L4869 0ZM4873 0V0.5H4871V0L4873 0ZM4877 0V0.5H4875V0L4877 0ZM4881 0V0.5H4879V0L4881 0ZM4885 0V0.5H4883V0L4885 0ZM4889 0V0.5H4887V0L4889 0ZM4893 0V0.5H4891V0L4893 0ZM4897 0V0.5H4895V0L4897 0ZM4901 0V0.5H4899V0L4901 0ZM4905 0V0.5H4903V0L4905 0ZM4909 0V0.5H4907V0L4909 0ZM4913 0V0.5H4911V0L4913 0ZM4917 0V0.5H4915V0L4917 0ZM4921 0V0.5H4919V0L4921 0ZM4925 0V0.5H4923V0L4925 0ZM4929 0V0.5H4927V0L4929 0ZM4933 0V0.5H4931V0L4933 0ZM4937 0V0.5H4935V0L4937 0ZM4941 0V0.5H4939V0L4941 0ZM4945 0V0.5H4943V0L4945 0ZM4949 0V0.5H4947V0L4949 0ZM4953 0V0.5H4951V0L4953 0ZM4957 0V0.5H4955V0L4957 0ZM4961 0V0.5H4959V0L4961 0ZM4965 0V0.5H4963V0L4965 0ZM4969 0V0.5H4967V0L4969 0ZM4973 0V0.5H4971V0L4973 0ZM4977 0V0.5H4975V0L4977 0ZM4981 0V0.5H4979V0L4981 0ZM4985 0V0.5H4983V0L4985 0ZM4989 0V0.5H4987V0L4989 0ZM4993 0V0.5H4991V0L4993 0ZM4997 0V0.5H4995V0L4997 0ZM5001 0V0.5H4999V0L5001 0ZM5005 0V0.5H5003V0L5005 0ZM5009 0V0.5H5007V0L5009 0ZM5013 0V0.5H5011V0L5013 0ZM5017 0V0.5H5015V0L5017 0ZM5021 0V0.5H5019V0L5021 0ZM5025 0V0.5H5023V0L5025 0ZM5029 0V0.5H5027V0L5029 0ZM5033 0V0.5H5031V0L5033 0ZM5037 0V0.5H5035V0L5037 0ZM5041 0V0.5H5039V0L5041 0ZM5045 0V0.5H5043V0L5045 0ZM5049 0V0.5H5047V0L5049 0ZM5053 0V0.5H5051V0L5053 0ZM5057 0V0.5H5055V0L5057 0ZM5061 0V0.5H5059V0L5061 0ZM5065 0V0.5H5063V0L5065 0ZM5069 0V0.5H5067V0L5069 0ZM5073 0V0.5H5071V0L5073 0ZM5077 0V0.5H5075V0L5077 0ZM5081 0V0.5H5079V0L5081 0ZM5085 0V0.5H5083V0L5085 0ZM5089 0V0.5H5087V0L5089 0ZM5093 0V0.5H5091V0L5093 0ZM5097 0V0.5H5095V0L5097 0ZM5101 0V0.5H5099V0L5101 0ZM5105 0V0.5H5103V0L5105 0ZM5109 0V0.5H5107V0L5109 0ZM5113 0V0.5H5111V0L5113 0ZM5117 0V0.5H5115V0L5117 0ZM5121 0V0.5H5119V0L5121 0ZM5125 0V0.5H5123V0L5125 0ZM5129 0V0.5H5127V0L5129 0ZM5133 0V0.5H5131V0L5133 0ZM5137 0V0.5H5135V0L5137 0ZM5141 0V0.5H5139V0L5141 0ZM5145 0V0.5H5143V0L5145 0ZM5149 0V0.5H5147V0L5149 0ZM5153 0V0.5H5151V0L5153 0ZM5157 0V0.5H5155V0L5157 0ZM5161 0V0.5H5159V0L5161 0ZM5165 0V0.5H5163V0L5165 0ZM5169 0V0.5H5167V0L5169 0ZM5173 0V0.5H5171V0L5173 0ZM5177 0V0.5H5175V0L5177 0ZM5181 0V0.5H5179V0L5181 0ZM5185 0V0.5H5183V0L5185 0ZM5189 0V0.5H5187V0L5189 0ZM5193 0V0.5H5191V0L5193 0ZM5197 0V0.5H5195V0L5197 0ZM5201 0V0.5H5199V0L5201 0ZM5205 0V0.5H5203V0L5205 0ZM5209 0V0.5H5207V0L5209 0ZM5213 0V0.5H5211V0L5213 0ZM5217 0V0.5H5215V0L5217 0ZM5221 0V0.5H5219V0L5221 0ZM5225 0V0.5H5223V0L5225 0ZM5229 0V0.5H5227V0L5229 0ZM5233 0V0.5H5231V0L5233 0ZM5237 0V0.5H5235V0L5237 0ZM5241 0V0.5H5239V0L5241 0ZM5245 0V0.5H5243V0L5245 0ZM5249 0V0.5H5247V0L5249 0ZM5253 0V0.5H5251V0L5253 0ZM5257 0V0.5H5255V0L5257 0ZM5261 0V0.5H5259V0L5261 0ZM5265 0V0.5H5263V0L5265 0ZM5269 0V0.5H5267V0L5269 0ZM5273 0V0.5H5271V0L5273 0ZM5277 0V0.5H5275V0L5277 0ZM5281 0V0.5H5279V0L5281 0ZM5285 0V0.5H5283V0L5285 0ZM5289 0V0.5H5287V0L5289 0ZM5293 0V0.5H5291V0L5293 0ZM5297 0V0.5H5295V0L5297 0ZM5301 0V0.5H5299V0L5301 0ZM5305 0V0.5H5303V0L5305 0ZM5309 0V0.5H5307V0L5309 0ZM5313 0V0.5H5311V0L5313 0ZM5317 0V0.5H5315V0L5317 0ZM5321 0V0.5H5319V0L5321 0ZM5325 0V0.5H5323V0L5325 0ZM5329 0V0.5H5327V0L5329 0ZM5333 0V0.5H5331V0L5333 0ZM5337 0V0.5H5335V0L5337 0ZM5341 0V0.5H5339V0L5341 0ZM5345 0V0.5H5343V0L5345 0ZM5349 0V0.5H5347V0L5349 0ZM5353 0V0.5H5351V0L5353 0ZM5357 0V0.5H5355V0L5357 0ZM5361 0V0.5H5359V0L5361 0ZM5365 0V0.5H5363V0L5365 0ZM5369 0V0.5H5367V0L5369 0ZM5373 0V0.5H5371V0L5373 0ZM5377 0V0.5H5375V0L5377 0ZM5381 0V0.5H5379V0L5381 0ZM5385 0V0.5H5383V0L5385 0ZM5389 0V0.5H5387V0L5389 0ZM5393 0V0.5H5391V0L5393 0ZM5397 0V0.5H5395V0L5397 0ZM5401 0V0.5H5399V0L5401 0ZM5405 0V0.5H5403V0L5405 0ZM5409 0V0.5H5407V0L5409 0ZM5413 0V0.5H5411V0L5413 0ZM5417 0V0.5H5415V0L5417 0ZM5421 0V0.5H5419V0L5421 0ZM5425 0V0.5H5423V0L5425 0ZM5429 0V0.5H5427V0L5429 0ZM5433 0V0.5H5431V0L5433 0ZM5437 0V0.5H5435V0L5437 0ZM5441 0V0.5H5439V0L5441 0ZM5445 0V0.5H5443V0L5445 0ZM5449 0V0.5H5447V0L5449 0ZM5453 0V0.5H5451V0L5453 0ZM5457 0V0.5H5455V0L5457 0ZM5461 0V0.5H5459V0L5461 0ZM5465 0V0.5H5463V0L5465 0ZM5469 0V0.5H5467V0L5469 0ZM5473 0V0.5H5471V0L5473 0ZM5477 0V0.5H5475V0L5477 0ZM5481 0V0.5H5479V0L5481 0ZM5485 0V0.5H5483V0L5485 0ZM5489 0V0.5H5487V0L5489 0ZM5493 0V0.5H5491V0L5493 0ZM5497 0V0.5H5495V0L5497 0ZM5501 0V0.5H5499V0L5501 0ZM5505 0V0.5H5503V0L5505 0ZM5509 0V0.5H5507V0L5509 0ZM5513 0V0.5H5511V0L5513 0ZM5517 0V0.5H5515V0L5517 0ZM5521 0V0.5H5519V0L5521 0ZM5525 0V0.5H5523V0L5525 0ZM5529 0V0.5H5527V0L5529 0ZM5533 0V0.5H5531V0L5533 0ZM5537 0V0.5H5535V0L5537 0ZM5541 0V0.5H5539V0L5541 0ZM5545 0V0.5H5543V0L5545 0ZM5549 0V0.5H5547V0L5549 0ZM5553 0V0.5H5551V0L5553 0ZM5557 0V0.5H5555V0L5557 0ZM5561 0V0.5H5559V0L5561 0ZM5565 0V0.5H5563V0L5565 0ZM5569 0V0.5H5567V0L5569 0ZM5573 0V0.5H5571V0L5573 0ZM5577 0V0.5H5575V0L5577 0ZM5581 0V0.5H5579V0L5581 0ZM5585 0V0.5H5583V0L5585 0ZM5589 0V0.5H5587V0L5589 0ZM5593 0V0.5H5591V0L5593 0ZM5597 0V0.5H5595V0L5597 0ZM5601 0V0.5H5599V0L5601 0ZM5605 0V0.5H5603V0L5605 0ZM5609 0V0.5H5607V0L5609 0ZM5613 0V0.5H5611V0L5613 0ZM5617 0V0.5H5615V0L5617 0ZM5621 0V0.5H5619V0L5621 0ZM5625 0V0.5H5623V0L5625 0ZM5629 0V0.5H5627V0L5629 0ZM5633 0V0.5H5631V0L5633 0ZM5637 0V0.5H5635V0L5637 0ZM5641 0V0.5H5639V0L5641 0ZM5645 0V0.5H5643V0L5645 0ZM5649 0V0.5H5647V0L5649 0ZM5653 0V0.5H5651V0L5653 0ZM5657 0V0.5H5655V0L5657 0ZM5661 0V0.5H5659V0L5661 0ZM5665 0V0.5H5663V0L5665 0ZM5669 0V0.5H5667V0L5669 0ZM5673 0V0.5H5671V0L5673 0ZM5677 0V0.5H5675V0L5677 0ZM5681 0V0.5H5679V0L5681 0ZM5685 0V0.5H5683V0L5685 0ZM5689 0V0.5H5687V0L5689 0ZM5693 0V0.5H5691V0L5693 0ZM5697 0V0.5H5695V0L5697 0ZM5701 0V0.5H5699V0L5701 0ZM5705 0V0.5H5703V0L5705 0ZM5709 0V0.5H5707V0L5709 0ZM5713 0V0.5H5711V0L5713 0ZM5717 0V0.5H5715V0L5717 0ZM5721 0V0.5H5719V0L5721 0ZM5725 0V0.5H5723V0L5725 0ZM5729 0V0.5H5727V0L5729 0ZM5733 0V0.5H5731V0L5733 0ZM5737 0V0.5H5735V0L5737 0ZM5741 0V0.5H5739V0L5741 0ZM5745 0V0.5H5743V0L5745 0ZM5749 0V0.5H5747V0L5749 0ZM5753 0V0.5H5751V0L5753 0ZM5757 0V0.5H5755V0L5757 0ZM5761 0V0.5H5759V0L5761 0ZM5765 0V0.5H5763V0L5765 0ZM5769 0V0.5H5767V0L5769 0ZM5773 0V0.5H5771V0L5773 0ZM5777 0V0.5H5775V0L5777 0ZM5781 0V0.5H5779V0L5781 0ZM5785 0V0.5H5783V0L5785 0ZM5789 0V0.5H5787V0L5789 0ZM5793 0V0.5H5791V0L5793 0ZM5797 0V0.5H5795V0L5797 0ZM5801 0V0.5H5799V0L5801 0ZM5805 0V0.5H5803V0L5805 0ZM5809 0V0.5H5807V0L5809 0ZM5813 0V0.5H5811V0L5813 0ZM5817 0V0.5H5815V0L5817 0ZM5821 0V0.5H5819V0L5821 0ZM5825 0V0.5H5823V0L5825 0ZM5829 0V0.5H5827V0L5829 0ZM5833 0V0.5H5831V0L5833 0ZM5837 0V0.5H5835V0L5837 0ZM5841 0V0.5H5839V0L5841 0ZM5845 0V0.5H5843V0L5845 0ZM5849 0V0.5H5847V0L5849 0ZM5853 0V0.5H5851V0L5853 0ZM5857 0V0.5H5855V0L5857 0ZM5861 0V0.5H5859V0L5861 0ZM5865 0V0.5H5863V0L5865 0ZM5869 0V0.5H5867V0L5869 0ZM5873 0V0.5H5871V0L5873 0ZM5877 0V0.5H5875V0L5877 0ZM5881 0V0.5H5879V0L5881 0ZM5885 0V0.5H5883V0L5885 0ZM5889 0V0.5H5887V0L5889 0ZM5893 0V0.5H5891V0L5893 0ZM5897 0V0.5H5895V0L5897 0ZM5901 0V0.5H5899V0L5901 0ZM5905 0V0.5H5903V0L5905 0ZM5909 0V0.5H5907V0L5909 0ZM5913 0V0.5H5911V0L5913 0ZM5917 0V0.5H5915V0L5917 0ZM5921 0V0.5H5919V0L5921 0ZM5925 0V0.5H5923V0L5925 0ZM5929 0V0.5H5927V0L5929 0ZM5933 0V0.5H5931V0L5933 0ZM5937 0V0.5H5935V0L5937 0ZM5941 0V0.5H5939V0L5941 0ZM5945 0V0.5H5943V0L5945 0ZM5949 0V0.5H5947V0L5949 0ZM5953 0V0.5H5951V0L5953 0ZM5957 0V0.5H5955V0L5957 0ZM5961 0V0.5H5959V0L5961 0ZM5965 0V0.5H5963V0L5965 0ZM5969 0V0.5H5967V0L5969 0ZM5973 0V0.5H5971V0L5973 0ZM5977 0V0.5H5975V0L5977 0ZM5981 0V0.5H5979V0L5981 0ZM5985 0V0.5H5983V0L5985 0ZM5989 0V0.5H5987V0L5989 0ZM5993 0V0.5H5991V0L5993 0ZM5997 0V0.5H5995V0L5997 0ZM6000 0V0.5H5999V0L6000 0Z" fill="white" fill-opacity="0.3"/>
</g>
<defs>
<clipPath id="clip0_993_10649">
<rect width="200" height="1" fill="white"/>
</clipPath>
</defs>
</svg>
