<svg width="11" height="10" viewBox="0 0 11 10" fill="none" xmlns="http://www.w3.org/2000/svg">
<path d="M5 0.125C7.41626 0.125 9.375 2.08375 9.375 4.5C9.375 5.57268 8.98731 6.55461 8.34668 7.31543L10.2656 9.23438C10.4121 9.38082 10.4121 9.61918 10.2656 9.76562C10.1192 9.91207 9.88082 9.91207 9.73438 9.76562L7.81543 7.84668C7.05461 8.48732 6.07269 8.875 5 8.875C2.58375 8.875 0.625 6.91626 0.625 4.5C0.625 2.08375 2.58375 0.125 5 0.125ZM5 0.875C2.99797 0.875 1.375 2.49797 1.375 4.5C1.375 6.50204 2.99797 8.125 5 8.125C6.00287 8.125 6.90974 7.71801 7.56641 7.05957C8.2208 6.40345 8.625 5.49939 8.625 4.5C8.625 2.49797 7.00204 0.875 5 0.875Z" fill="white"/>
</svg>
