<svg width="26" height="26" viewBox="0 0 26 26" fill="none" xmlns="http://www.w3.org/2000/svg">
<rect x="1" y="1" width="24" height="24" rx="12" fill="#539E07"/>
<rect x="1" y="1" width="24" height="24" rx="12" stroke="white"/>
<g clip-path="url(#clip0_1_62)">
<path d="M13 7.66667C14.2867 7.66667 16.3333 8.6 16.3333 11.1C16.3333 12.54 15.1867 14.2133 13 15.98C10.8133 14.2133 9.66666 12.5333 9.66666 11.1C9.66666 8.6 11.7133 7.66667 13 7.66667ZM13 6.33333C10.82 6.33333 8.33333 7.97333 8.33333 11.1C8.33333 13.18 9.88666 15.3733 13 17.6667C16.1133 15.3733 17.6667 13.18 17.6667 11.1C17.6667 7.97333 15.18 6.33333 13 6.33333Z" fill="white"/>
<path d="M13 9.66667C12.2667 9.66667 11.6667 10.2667 11.6667 11C11.6667 11.7333 12.2667 12.3333 13 12.3333C13.3536 12.3333 13.6928 12.1929 13.9428 11.9428C14.1929 11.6928 14.3333 11.3536 14.3333 11C14.3333 10.6464 14.1929 10.3072 13.9428 10.0572C13.6928 9.80714 13.3536 9.66667 13 9.66667ZM8.33333 18.3333H17.6667V19.6667H8.33333V18.3333Z" fill="white"/>
</g>
<defs>
<clipPath id="clip0_1_62">
<rect width="16" height="16" fill="white" transform="translate(5 5)"/>
</clipPath>
</defs>
</svg>
