<svg width="24" height="24" viewBox="0 0 24 24" fill="none" xmlns="http://www.w3.org/2000/svg">
<g clip-path="url(#clip0_47_13505)">
<path d="M11.5 2.13477C14.0322 2.13477 16.0768 4.23478 16.0762 6.81543C16.0762 9.16665 14.3789 11.1165 12.1621 11.4453V18.0508C14.2605 18.0848 16.2288 18.2824 17.792 18.6162V18.6113L18.0371 18.668L18.4082 18.7578C19.2477 18.9727 19.9015 19.2237 20.3633 19.5195C20.8935 19.8593 21.2001 20.2791 21.2002 20.7891C21.2002 21.2992 20.8937 21.7197 20.3633 22.0596C19.8356 22.3977 19.0571 22.6773 18.0371 22.9111C16.279 23.3146 13.957 23.5352 11.5 23.5352C9.04302 23.5352 6.72101 23.3146 4.96289 22.9111C3.94293 22.6773 3.16443 22.3977 2.63672 22.0596C2.10635 21.7197 1.7998 21.2992 1.7998 20.7891C1.79994 20.2791 2.10655 19.8593 2.63672 19.5195C3.16442 19.1814 3.94296 18.9018 4.96289 18.668C6.56272 18.3013 8.62859 18.0866 10.8379 18.0508V11.4443C8.62102 11.1161 6.92383 9.16559 6.92383 6.81445C6.92403 4.23467 8.96787 2.13477 11.5 2.13477ZM12.1621 20.6748H10.8379V19.3965C8.71725 19.4321 6.75538 19.6363 5.25488 19.9805C4.20918 20.2201 3.66046 20.4637 3.37891 20.6377C3.28124 20.6981 3.21782 20.7507 3.17676 20.7891C3.21779 20.8275 3.28052 20.8806 3.37891 20.9414C3.6604 21.1154 4.20875 21.3595 5.25488 21.5996C6.91091 21.9795 9.12882 22.1904 11.5 22.1904C13.8712 22.1904 16.0891 21.9795 17.7451 21.5996C18.7909 21.3599 19.3395 21.1164 19.6211 20.9424C19.7188 20.882 19.7812 20.8284 19.8223 20.79C19.7812 20.7517 19.7186 20.699 19.6211 20.6387C19.3396 20.4647 18.7912 20.2206 17.7451 19.9805C16.2446 19.6363 14.2822 19.4321 12.1621 19.3965V20.6748ZM11.5 3.48047C9.71152 3.48047 8.24728 4.97149 8.24707 6.81445C8.24707 8.65694 9.71141 10.1494 11.5 10.1494C13.2886 10.1494 14.7529 8.65694 14.7529 6.81445C14.7527 4.97214 13.2885 3.48047 11.5 3.48047Z" fill="#D9D9D9" stroke="#D9D9D9" stroke-width="0.4"/>
</g>
<defs>
<clipPath id="clip0_47_13505">
<rect width="24" height="24" fill="white"/>
</clipPath>
</defs>
</svg>
