<svg width="32" height="32" viewBox="0 0 32 32" fill="none" xmlns="http://www.w3.org/2000/svg">
<path d="M11.5556 2H10.6667V2.875V5.5H6.22222H5.33333V6.375V15.125H5.50556L1.48889 16.4867L0.194444 16.9242L1.12778 17.9086L7.35 24.4711L8.65 23.2789L3.36111 17.7008L15.1111 13.725V23V23.875H16.8889V23V13.725L28.6389 17.7008L23.35 23.2789L24.65 24.4711L30.8722 17.9086L31.8056 16.9242L30.5111 16.4867L26.4944 15.125H26.6667V6.375V5.5H25.7778H21.3333V2.875V2H20.4444H11.5556ZM19.5556 5.5H12.4444V3.75H19.5556V5.5ZM10.6667 7.25H11.5556H20.4444H21.3333H24.8889V14.5836L16.2889 11.6742L16 11.5758L15.7111 11.6742L7.11111 14.5836V7.25H10.6667ZM7.43333 27.0906C6.62222 26.5437 5.98889 25.9148 5.33333 25.2203C4.67222 25.9203 4.05 26.5437 3.23333 27.0906C2.31667 27.7086 1.16111 28.25 0 28.25V30C1.68333 30 3.19444 29.2289 4.23333 28.5344C4.67222 28.2391 5.04444 27.9438 5.33333 27.6977C5.61667 27.9438 5.99444 28.2391 6.43333 28.5344C7.46667 29.2289 8.98333 30 10.6667 30C12.35 30 13.8611 29.2289 14.9 28.5344C15.3389 28.2391 15.7111 27.9438 16 27.6977C16.2833 27.9438 16.6611 28.2391 17.1 28.5344C18.1333 29.2289 19.65 30 21.3333 30C23.0167 30 24.5278 29.2289 25.5667 28.5344C26.0056 28.2391 26.3778 27.9438 26.6667 27.6977C26.95 27.9438 27.3278 28.2391 27.7667 28.5344C28.8056 29.2289 30.3167 30 32 30V28.25C30.8389 28.25 29.6833 27.7086 28.7667 27.0906C27.95 26.5437 27.3278 25.9148 26.6667 25.2203C26.0056 25.9203 25.3833 26.5437 24.5667 27.0906C23.6444 27.7086 22.4944 28.25 21.3333 28.25C20.1722 28.25 19.0167 27.7086 18.1 27.0906C17.2833 26.5437 16.6611 25.9148 16 25.2203C15.3389 25.9203 14.7167 26.5437 13.9 27.0906C12.9778 27.7086 11.8278 28.25 10.6667 28.25C9.50556 28.25 8.35 27.7086 7.43333 27.0906Z" fill="white"/>
</svg>
