<svg width="16" height="13" viewBox="0 0 16 13" fill="none" xmlns="http://www.w3.org/2000/svg">
<path d="M0.828205 0.253846L0.505128 0L0 0.648718L0.323077 0.9L15.1718 12.4667L15.4949 12.7179L16 12.0718L15.6769 11.8179L0.828205 0.253846ZM15.3821 6.35641C14.6128 4.44103 12.059 0.61282 7.99744 0.61282C6.71026 0.61282 5.57436 0.997436 4.6 1.58205L5.29487 2.13077C6.09744 1.7 7 1.43333 7.99744 1.43333C9.75128 1.43333 11.2128 2.25641 12.3564 3.35641C13.3769 4.33846 14.0974 5.50256 14.4897 6.35641C14.2205 6.94103 13.7974 7.67436 13.2256 8.39231L13.8692 8.90256C14.5974 7.98461 15.1051 7.04615 15.3821 6.35641ZM2.12564 3.81026C1.39744 4.7282 0.889744 5.66667 0.612821 6.35641C1.38205 8.27179 3.9359 12.1 7.99744 12.1C9.28462 12.1 10.4205 11.7154 11.3949 11.1308L10.7 10.5821C9.89744 11.0128 8.99487 11.2795 7.99744 11.2795C6.24359 11.2795 4.78205 10.4564 3.63846 9.35641C2.61795 8.37436 1.89744 7.21026 1.50513 6.35641C1.77436 5.77179 2.19744 5.03846 2.76923 4.32051L2.12564 3.81026ZM7.99744 9.63846C8.42564 9.63846 8.8359 9.55641 9.21282 9.40513L8.42051 8.77949C8.28205 8.80256 8.14103 8.81538 7.99744 8.81538C6.68974 8.81538 5.61795 7.79487 5.54103 6.50513L4.74872 5.87949C4.72564 6.03333 4.71538 6.19231 4.71538 6.35385C4.71538 8.16667 6.18462 9.6359 7.99744 9.6359V9.63846ZM11.2795 6.35641C11.2795 4.54359 9.81026 3.07436 7.99744 3.07436C7.56923 3.07436 7.15897 3.15641 6.78205 3.30769L7.57436 3.93333C7.71282 3.91026 7.85385 3.89744 7.99744 3.89744C9.30513 3.89744 10.3769 4.91795 10.4538 6.20769L11.2462 6.83333C11.2692 6.67949 11.2795 6.52051 11.2795 6.35897V6.35641Z" fill="white"/>
</svg>
