<svg width="24" height="24" viewBox="0 0 24 24" fill="none" xmlns="http://www.w3.org/2000/svg">
<path d="M11.2119 6.66699C12.3059 6.66699 13.1853 7.69801 13.1855 8.98145L13.4131 9.33301H16.0713C17.4518 9.33309 18.6504 10.1405 19.2891 11.3418C19.6399 10.53 20.4219 10.0001 21.3223 10H24L23.0059 13.333L23.9932 16.6445H21.3223C20.4458 16.6445 19.6528 16.1032 19.2959 15.3115C18.6591 16.5202 17.4569 17.3329 16.0713 17.333L16.0703 17.332H3.70898C1.65494 17.332 0 15.5483 0 13.333C0.000161983 11.1179 1.65499 9.33301 3.70898 9.33301H5.81934L7.5166 7.25684C7.76796 6.87828 8.12663 6.66699 8.52148 6.66699H11.2119ZM24 16.6445V16.667L23.9932 16.6445H24ZM3.70898 10.5645C2.30131 10.5645 1.14177 11.8149 1.1416 13.333C1.1416 14.8513 2.30119 16.1025 3.70898 16.1025H16.0713C17.479 16.1024 18.6387 14.8512 18.6387 13.333C18.6385 11.815 17.4789 10.5646 16.0713 10.5645H3.70898ZM21.3223 11.2275C20.8759 11.2276 20.4901 11.5196 20.3682 11.9355L19.9629 13.29L20.3682 14.6641C20.4901 15.1012 20.8956 15.3935 21.3223 15.3936H22.3359L21.708 13.3096L22.3359 11.2266H21.3223V11.2275ZM8.52246 7.92969C8.5042 7.92969 8.43254 7.93006 8.36035 8.03516L7.50879 9.33301H12.1104V8.98242C12.1104 8.39264 11.7147 7.92969 11.2129 7.92969H8.52246Z" fill="white"/>
</svg>
