<?xml version="1.0" encoding="UTF-8"?>
<svg id="Livello_1" xmlns="http://www.w3.org/2000/svg" version="1.1" viewBox="0 0 32 32">
  <!-- Generator: Adobe Illustrator 29.5.1, SVG Export Plug-In . SVG Version: 2.1.0 Build 141)  -->
  <defs>
    <style>
      .st0 {
        fill: #fff;
      }
    </style>
  </defs>
  <path class="st0" d="M2.6,4.6v5.3h5.3v-5.3H2.6ZM.9,2.8h8.8v8.8h-3.5v4.4h12.3v-4.4h-3.5V2.8h8.8v8.8h-3.5v4.4h8.4c-1.9-1.9-3-3-3.1-3.1l1.2-1.2.6.6,4,4,.6.6-.6.6-4,4-.6.6-1.2-1.2c.1-.1,1.1-1.1,3.1-3.1h-15.5v2.6h3.5v8.8H7.9v-8.8h3.5v-2.6H0v-1.8h4.4v-4.4H.9V2.8ZM22,4.6h-5.3v5.3h5.3v-5.3ZM9.7,22.2v5.3h5.3v-5.3h-5.3Z"/>
</svg>