<svg width="32" height="32" viewBox="0 0 32 32" fill="none" xmlns="http://www.w3.org/2000/svg">
<rect x="0.5" y="0.5" width="31" height="31" stroke="black"/>
<path d="M2.63647 4.57551V9.84842H7.90938V4.57551H2.63647ZM0.878832 2.81787H9.66702V11.6061H6.15175V16.0002H18.4552V11.6061H14.9399V2.81787H23.7281V11.6061H20.2129V16.0002H28.6385C26.6941 14.0558 25.6725 13.0341 25.5627 12.9243L26.804 11.683L27.4247 12.3036L31.3793 16.2583L32 16.879L31.3793 17.4996L27.4247 21.4543L26.804 22.075L25.5627 20.8337C25.6725 20.7238 26.6941 19.6967 28.6385 17.7578H13.1823V20.3943H16.6976V29.1824H7.90938V20.3943H11.4247V17.7578H1.33514e-05V16.0002H4.39411V11.6061H0.878832V2.81787ZM21.9705 4.57551H16.6976V9.84842H21.9705V4.57551ZM9.66702 22.1519V27.4248H14.9399V22.1519H9.66702Z" fill="white"/>
</svg>
