<?xml version="1.0" encoding="UTF-8"?>
<svg id="Livello_1" xmlns="http://www.w3.org/2000/svg" version="1.1" viewBox="0 0 32 32">
  <!-- Generator: Adobe Illustrator 29.5.1, SVG Export Plug-In . SVG Version: 2.1.0 Build 141)  -->
  <defs>
    <style>
      .st0 {
        fill: #fff;
      }
    </style>
  </defs>
  <path class="st0" d="M22.4,5.6H4.8v2.4h-1.6V4h20.8v4.8h4.3l.2.2,3.2,3.2.2.2v12.3h-3.4c-.5,1.8-2.2,3.2-4.2,3.2s-3.7-1.4-4.2-3.2h-5.1c-.5,1.8-2.2,3.2-4.2,3.2s-3.7-1.4-4.2-3.2h-3.4v-8H0v-1.6h8v1.6h-3.2v6.4h1.6c.2-2.2,2.1-4,4.4-4s4.2,1.8,4.4,4h4.8c.1-1.5,1.1-2.9,2.4-3.5V5.6ZM3.2,12H0v-1.6h11.2v1.6H3.2ZM24,19.2c.1,0,.3,0,.4,0,2.3,0,4.2,1.8,4.4,4h1.6v-6.4h-6.4v2.4ZM30.4,13.1l-2.7-2.7h-3.7v4.8h6.4v-2.1ZM13.6,23.6c0-.7-.3-1.5-.8-2-.5-.5-1.2-.8-2-.8s-1.5.3-2,.8-.8,1.2-.8,2,.3,1.5.8,2c.5.5,1.2.8,2,.8s1.5-.3,2-.8c.5-.5.8-1.2.8-2ZM27.2,23.6c0-.7-.3-1.5-.8-2s-1.2-.8-2-.8-1.5.3-2,.8c-.5.5-.8,1.2-.8,2s.3,1.5.8,2c.5.5,1.2.8,2,.8s1.5-.3,2-.8c.5-.5.8-1.2.8-2Z"/>
</svg>