<svg width="14" height="14" viewBox="0 0 14 14" fill="none" xmlns="http://www.w3.org/2000/svg">
<path d="M13.4927 1.95744C13.8832 1.56692 13.8832 0.933752 13.4927 0.543228L13.4566 0.507156C13.0661 0.116631 12.4329 0.116631 12.0424 0.507156L7.70691 4.84266C7.31639 5.23318 6.68322 5.23318 6.2927 4.84266L1.9572 0.507156C1.56667 0.116632 0.933508 0.116631 0.542984 0.507156L0.506911 0.543228C0.116387 0.933752 0.116387 1.56692 0.506911 1.95744L4.84241 6.29294C5.23294 6.68347 5.23294 7.31663 4.84241 7.70716L0.506912 12.0427C0.116388 12.4332 0.116387 13.0663 0.506911 13.4569L0.542984 13.4929C0.933508 13.8835 1.56667 13.8835 1.9572 13.4929L6.2927 9.15744C6.68322 8.76692 7.31639 8.76692 7.70691 9.15744L12.0424 13.4929C12.4329 13.8835 13.0661 13.8835 13.4566 13.4929L13.4927 13.4569C13.8832 13.0663 13.8832 12.4332 13.4927 12.0427L9.1572 7.70716C8.76667 7.31663 8.76667 6.68347 9.1572 6.29294L13.4927 1.95744Z" fill="white"/>
</svg>
