<svg width="12" height="11" viewBox="0 0 12 11" fill="none" xmlns="http://www.w3.org/2000/svg">
<path d="M1 3.625L0.646447 3.27145L0.292893 3.625L0.646447 3.97855L1 3.625ZM7.5625 3.625L7.5625 4.125L7.5625 4.125L7.5625 3.625ZM7.5625 10.5L7.5625 10L7.5625 10L7.5625 10.5ZM4.125 10C3.84886 10 3.625 10.2239 3.625 10.5C3.625 10.7761 3.84886 11 4.125 11L4.125 10ZM4.47855 6.39645L1.35355 3.27145L0.646447 3.97855L3.77145 7.10355L4.47855 6.39645ZM1.35355 3.97855L4.47855 0.853553L3.77145 0.146447L0.646447 3.27145L1.35355 3.97855ZM1 4.125L7.5625 4.125L7.5625 3.125L1 3.125L1 4.125ZM7.5625 10L4.125 10L4.125 11L7.5625 11L7.5625 10ZM10.5 7.0625C10.5 8.68484 9.18484 10 7.5625 10V11C9.73712 11 11.5 9.23712 11.5 7.0625H10.5ZM7.5625 4.125C9.18484 4.125 10.5 5.44016 10.5 7.0625H11.5C11.5 4.88788 9.73712 3.125 7.5625 3.125L7.5625 4.125Z" fill="#EDF7FA"/>
</svg>
