<?xml version="1.0" encoding="UTF-8"?>
<svg xmlns="http://www.w3.org/2000/svg" version="1.1" viewBox="0 0 48 48">
  <defs>
    <style>
      .cls-1 {
        fill: #edf7fa;
      }
    </style>
  </defs>
  <!-- Generator: Adobe Illustrator 28.6.0, SVG Export Plug-In . SVG Version: 1.2.0 Build 709)  -->
  <g>
    <g id="Livello_1">
      <g id="Livello_1-2" data-name="Livello_1">
        <path class="cls-1" d="M39.8,18.6l3.7-3.7c2.9-2.9,2.9-7.5,0-10.4-2.9-2.9-7.5-2.9-10.4,0l-3.8,3.8c2.4,4.3,6.1,7.9,10.4,10.3h0Z"/>
        <path class="cls-1" d="M23.7,13.9l-15.7,15.7c-1.7,1.7-2.5,2.5-3,3.5-.5,1-.8,2.2-1.2,4.5l-1.1,5.5c-.3,1.3-.4,1.9,0,2.3.4.4,1,.2,2.3,0l5.5-1.1c2.3-.5,3.4-.7,4.5-1.2,1-.5,1.8-1.4,3.5-3l15.8-15.8c-4.2-2.7-7.7-6.2-10.4-10.3h0Z"/>
      </g>
    </g>
  </g>
</svg>