<svg width="12" height="14" viewBox="0 0 12 14" fill="none" xmlns="http://www.w3.org/2000/svg">
<path d="M1.70337 4.87499C1.10857 5.90522 0.88129 7.10691 1.05876 8.2832C1.23623 9.45949 1.80792 10.5406 2.68019 11.3495C3.55246 12.1584 4.67358 12.6471 5.8599 12.7355C7.04621 12.8239 8.22738 12.5068 9.20989 11.8361C10.1924 11.1654 10.918 10.1809 11.2679 9.04391C11.6177 7.90691 11.571 6.68481 11.1355 5.57781C10.6999 4.47081 9.90132 3.54455 8.87051 2.95076C8.13746 2.52851 6.54689 2.30952 5.46167 2.30952M5.46167 2.30952L7.75001 1M5.46167 2.30952L7.25001 4M6.25001 10V7.5L3.75001 5.5" stroke="#EDF7FA" stroke-linecap="round"/>
</svg>
