<svg width="13" height="13" viewBox="0 0 13 13" fill="none" xmlns="http://www.w3.org/2000/svg">
<path d="M8.05338 8.25V7.85H7.65338V8.25H8.05338ZM11.3572 12.0362C11.5153 12.1905 11.7685 12.1875 11.9229 12.0295C12.0772 11.8715 12.0743 11.6182 11.9162 11.4638L11.3572 12.0362ZM8.05338 4.75H7.65338V5.15H8.05338V4.75ZM11.9162 1.53615C12.0743 1.38179 12.0772 1.12854 11.9229 0.970504C11.7685 0.812468 11.5153 0.809488 11.3572 0.96385L11.9162 1.53615ZM4.47005 8.25H4.87005V7.85H4.47005V8.25ZM0.607223 11.4638C0.449186 11.6182 0.446207 11.8715 0.600568 12.0295C0.75493 12.1875 1.00818 12.1905 1.16621 12.0362L0.607223 11.4638ZM4.47005 4.75V5.15H4.87005V4.75H4.47005ZM1.16621 0.96385C1.00818 0.809488 0.75493 0.812468 0.600568 0.970504C0.446207 1.12854 0.449186 1.38179 0.607223 1.53615L1.16621 0.96385ZM8.45338 11.1667V8.25H7.65338V11.1667H8.45338ZM8.05338 8.65H11.0395V7.85H8.05338V8.65ZM7.77389 8.53615L11.3572 12.0362L11.9162 11.4638L8.33288 7.96385L7.77389 8.53615ZM7.65338 1.83333V4.75H8.45338V1.83333H7.65338ZM8.05338 5.15H11.0395V4.35H8.05338V5.15ZM8.33288 5.03615L11.9162 1.53615L11.3572 0.96385L7.77389 4.46385L8.33288 5.03615ZM4.87005 11.1667V8.25H4.07005V11.1667H4.87005ZM4.47005 7.85H1.48394V8.65H4.47005V7.85ZM4.19056 7.96385L0.607223 11.4638L1.16621 12.0362L4.74955 8.53615L4.19056 7.96385ZM4.07005 1.83333V4.75H4.87005V1.83333H4.07005ZM4.47005 4.35H1.48394V5.15H4.47005V4.35ZM4.74955 4.46385L1.16621 0.96385L0.607223 1.53615L4.19056 5.03615L4.74955 4.46385Z" fill="#EDF7FA"/>
</svg>
