<svg width="36" height="36" viewBox="0 0 36 36" fill="none" xmlns="http://www.w3.org/2000/svg">
<path d="M36 18C36 27.9411 27.9411 36 18 36C8.05887 36 0 27.9411 0 18C0 8.05887 8.05887 0 18 0C27.9411 0 36 8.05887 36 18ZM2.16 18C2.16 26.7482 9.25181 33.84 18 33.84C26.7482 33.84 33.84 26.7482 33.84 18C33.84 9.25181 26.7482 2.16 18 2.16C9.25181 2.16 2.16 9.25181 2.16 18Z" fill="#FFF0CB"/>
<path d="M6.59961 17.4H29.3996L26.3596 21.6H9.44961L6.59961 17.4Z" fill="white"/>
<path fill-rule="evenodd" clip-rule="evenodd" d="M4.22266 22.2C6.02015 28.1041 11.5087 32.4 18.0005 32.4C24.4924 32.4 29.9809 28.1041 31.7784 22.2H4.22266Z" fill="#FFF0CB"/>
<path fill-rule="evenodd" clip-rule="evenodd" d="M17.4004 13.8H15.0004L15.0004 15H12.6004L11.4004 17.4L15.0004 17.4H19.2004L18.9004 15.6L17.4004 13.8Z" fill="#D9D9D9"/>
<path fill-rule="evenodd" clip-rule="evenodd" d="M21.6 14.4H24V15H26.4L27 17.4H24H20.4L21.6 14.4Z" fill="#D9D9D9"/>
</svg>
