<svg xmlns="http://www.w3.org/2000/svg" viewBox="0 0 512 512"><path fill="currentColor" d="M186.5 461.3c0 10.3 8.4 18.7 18.7 18.7h24.4c10.3 0 18.7-8.4 18.7-18.7V421.4c0-10.3 8.4-18.7 18.7-18.7H384.1c10.3 0 18.7-8.4 18.7-18.7V359.6c0-10.3-8.4-18.7-18.7-18.7H266.9c-10.3 0-18.7-8.4-18.7-18.7V282.4c0-10.3-8.4-18.7-18.7-18.7H205.2c-10.3 0-18.7 8.4-18.7 18.7V461.3zM461.3 325.5c10.3 0 18.7-8.4 18.7-18.7V282.4c0-10.3-8.4-18.7-18.7-18.7H421.4c-10.3 0-18.7-8.4-18.7-18.7V127.9c0-10.3-8.4-18.7-18.7-18.7H359.6c-10.3 0-18.7 8.4-18.7 18.7V245.1c0 10.3-8.4 18.7-18.7 18.7H282.4c-10.3 0-18.7 8.4-18.7 18.7v24.4c0 10.3 8.4 18.7 18.7 18.7H461.3zM325.5 50.7c0-10.3-8.4-18.7-18.7-18.7H282.4c-10.3 0-18.7 8.4-18.7 18.7V90.6c0 10.3-8.4 18.7-18.7 18.7H127.9c-10.3 0-18.7 8.4-18.7 18.7v24.4c0 10.3 8.4 18.7 18.7 18.7H245.1c10.3 0 18.7 8.4 18.7 18.7v39.9c0 10.3 8.4 18.7 18.7 18.7h24.4c10.3 0 18.7-8.4 18.7-18.7V50.7zM50.7 186.5c-10.3 0-18.7 8.4-18.7 18.7v24.4c0 10.3 8.4 18.7 18.7 18.7H90.6c10.3 0 18.7 8.4 18.7 18.7V384.1c0 10.3 8.4 18.7 18.7 18.7h24.4c10.3 0 18.7-8.4 18.7-18.7V266.9c0-10.3 8.4-18.7 18.7-18.7h39.9c10.3 0 18.7-8.4 18.7-18.7V205.2c0-10.3-8.4-18.7-18.7-18.7H50.7z"/></svg>