<svg xmlns="http://www.w3.org/2000/svg" viewBox="0 0 512 512"><path fill="currentColor" d="M265.1 9.1L320 64 301.7 82.3 256 36.6 210.3 82.3 192 64 256 0 265.1 9.1zM164.6 91.4l18.3 18.3-73.1 73.1-18.3-18.3 73.1-73.1zM402.3 329.1l18.3 18.3-73.1 73.1-18.3-18.3 73.1-73.1zM448 320l-18.3-18.3 45.7-45.7-45.7-45.7 18.3-18.3 64 64-64 64zM320 448l-64 64-64-64 18.3-18.3 45.7 45.7 45.7-45.7 18.3 18.3zM82.3 210.3L36.6 256 82.3 301.7 64 320 0 256 64 192 82.3 210.3zm82.3 210.3l-73.1-73.1 18.3-18.3 73.1 73.1-18.3 18.3zM329.1 109.7l18.3-18.3 73.1 73.1-18.3 18.3-73.1-73.1z"/></svg>