<svg xmlns="http://www.w3.org/2000/svg" viewBox="0 0 512 512"><path fill="currentColor" d="M262.5 213.7l65-156.9c2.8-6.7-5.9-12.1-10.7-6.6l-55.3 63.5c-2.5 2.9-7.1 2.9-9.6 0L196.4 50.2c-4.8-5.4-13.5 0-10.7 6.6l65 156.8c2.2 5.3 9.6 5.3 11.8 0l0 0zm-31.8 7.8l-65-156.9c-2.8-6.7-12.8-4.3-12.3 2.9l5.8 84c.3 3.9-3 7.1-6.8 6.8l-84-5.8c-7.2-.5-9.6 9.5-2.9 12.3l156.8 65c5.3 2.2 10.5-3.1 8.4-8.4l0 .1zm-16.9 28l-156.9-65c-6.7-2.8-12.1 5.9-6.6 10.7l63.5 55.3c2.9 2.5 2.9 7.1 0 9.6L50.2 315.6c-5.4 4.8 0 13.5 6.6 10.7l156.8-65c5.3-2.2 5.3-9.6 0-11.8l0 0zm7.8 31.8l-156.9 65c-6.7 2.8-4.3 12.8 2.9 12.3l84-5.8c3.9-.3 7.1 3 6.8 6.8l-5.8 84c-.5 7.2 9.5 9.6 12.3 2.9l65-156.8c2.2-5.3-3.1-10.5-8.4-8.4l.1 0zm28 17l-65 156.8c-2.8 6.7 5.9 12.1 10.7 6.6l55.3-63.5c2.5-2.9 7.1-2.9 9.6 0l55.3 63.5c4.8 5.4 13.5 0 10.7-6.6l-65-156.8c-2.2-5.3-9.6-5.3-11.8 0h0zm31.8-7.8l65 156.8c2.8 6.7 12.8 4.3 12.3-2.9l-5.8-84c-.3-3.9 3-7.1 6.8-6.8l84 5.8c7.2 .5 9.6-9.5 2.9-12.3l-156.8-65c-5.3-2.2-10.5 3.1-8.4 8.4l0 0zm17-28l156.8 65c6.7 2.8 12.1-5.9 6.6-10.7l-63.5-55.3c-2.9-2.5-2.9-7.1 0-9.6l63.5-55.3c5.4-4.8 0-13.5-6.6-10.7l-156.8 65c-5.3 2.2-5.3 9.6 0 11.8v0zm-7.8-31.8l156.8-65c6.7-2.8 4.3-12.8-2.9-12.3l-84 5.8c-3.9 .3-7.1-3-6.8-6.8l5.8-84c.5-7.2-9.5-9.6-12.3-2.9l-65 156.8c-2.2 5.3 3.1 10.5 8.4 8.4l0 0z"/></svg>