<svg xmlns="http://www.w3.org/2000/svg" viewBox="0 0 512 512"><path fill="currentColor" d="M464 242.1v27.8c0 15.3-12.4 27.7-27.7 27.7H408.5c-15.3 0-27.7 12.4-27.7 27.8v27.7c0 15.4-12.4 27.8-27.8 27.8H325.3c-15.3 0-27.8 12.4-27.8 27.7v27.8c0 15.3-12.4 27.7-27.7 27.7H242.1c-15.3 0-27.7-12.4-27.7-27.7V408.5c0-15.3-12.4-27.7-27.8-27.7H158.9c-15.3 0-27.8-12.4-27.8-27.8V325.3c0-15.3-12.4-27.8-27.7-27.8H75.7c-15.3 0-27.7-12.4-27.7-27.7V242.1c0-15.3 12.4-27.7 27.7-27.7h27.8c15.3 0 27.7-12.4 27.7-27.8V158.9c0-15.3 12.4-27.8 27.8-27.8h27.7c15.3 0 27.8-12.4 27.8-27.7V75.7c0-15.3 12.4-27.7 27.7-27.7h27.8c15.3 0 27.7 12.4 27.7 27.7v27.8c0 15.3-12.4 27.7-27.7 27.7H242.1c-15.3 0-27.7 12.4-27.7 27.8v27.7c0 15.3-12.4 27.8-27.8 27.8H158.9c-15.3 0-27.8 12.4-27.8 27.7v27.8c0 15.3 12.4 27.7 27.8 27.7h27.7c15.3 0 27.8 12.4 27.8 27.8v27.7c0 15.4 12.4 27.8 27.7 27.8h27.8c15.3 0 27.7-12.4 27.7-27.8V325.3c0-15.3 12.4-27.8 27.8-27.8h27.7c15.3 0 27.8-12.4 27.8-27.7V242.1c0-15.3-12.4-27.7-27.8-27.7H325.3c-15.3 0-27.8 12.4-27.8 27.7v27.8c0 15.3-12.4 27.7-27.7 27.7H242.1c-15.3 0-27.7-12.4-27.7-27.7V242.1c0-15.3 12.4-27.7 27.7-27.7h27.8c15.3 0 27.7-12.4 27.7-27.8V158.9c0-15.3 12.4-27.8 27.8-27.8h27.7c15.3 0 27.8 12.4 27.8 27.8v27.7c0 15.3 12.4 27.8 27.7 27.8h27.8c15.3 0 27.7 12.4 27.7 27.7z"/></svg>