<svg xmlns="http://www.w3.org/2000/svg" viewBox="0 0 640 512"><path fill="currentColor" d="M446.2 435.7l115.3 43.7c27-10.1 43.6-16.3 49.6-18.6l10.7 28.6-14.3 5.3-40.7 15.2-5.3 2-5.4-2-115.3-43.7-115.3 43.7-5.4 2.1-5.4-2.1-115.3-43.7-115.3 43.7-5.4 2-5.3-2-40.7-15.2-14.3-5.3 10.7-28.6c6 2.3 22.6 8.5 49.6 18.6l115.4-43.7 5.4-2.1 5.4 2.1 115.3 43.7 115.3-43.7 5.4-2.1 5.4 2.1 .1 0zM292.6 53.1l0 46.9 54.7 0 0-46.9-54.7 0zM120 290.5l33.2 99.5-29.8 11.9-43.3-129.9 48-19.2 0-152.8 132.5 0 0-79.2 118.7 0 0 79.2 132.7 0 0 152.8 48 19.2-43.3 129.9-29.8-11.9 33.2-99.5-56.8-22.7c-92-36.7-194.7-36.7-286.7 0L120 290.5zM480.1 132l-320 0 0 108c102.7-41.1 217.3-41.1 320 0l0-108z"/></svg>