<svg xmlns="http://www.w3.org/2000/svg" viewBox="0 0 640 512"><path fill="currentColor" d="M446.2 435.7l115.3 43.7c27-10.1 43.6-16.3 49.6-18.6l10.7 28.6-14.3 5.3-40.7 15.2-5.3 2-5.4-2-115.3-43.7-115.3 43.7-5.4 2.1-5.4-2.1-115.3-43.7-115.3 43.7-5.4 2-5.3-2-40.7-15.2-14.3-5.3 10.7-28.6c6 2.3 22.6 8.5 49.6 18.6l115.4-43.7 5.4-2.1 5.4 2.1 115.3 43.7 115.3-43.7 5.4-2.1 5.4 2.1 .1 0zM166.4 389.4l-40.1-73.3 0-24.2 389.2 0 0 24.2-40.1 73.3 30.3 12.2 42.2-77.2 0-64.9-32.9 0 0 0 0-162.2 0 0 0-32.4-96.8 0 0-64.9-194.6 0 0 64.9-97.2 0 0 32.4 0 0 0 162.2 0 0-32.6 0 0 64.9 42.2 77.2 30.3-12.2zM304.6 259.5l-145.6 0 0-64.9 145.6 0 0 64.9zm178.1 0l-145.6 0 0-64.9 145.6 0 0 64.9zm0-162.2l0 64.9-145.6 0 0-64.9 145.6 0zM256.1 32.4l129.7 0 0 32.4-129.7 0 0-32.4zm48.5 64.9l0 64.9-145.6 0 0-64.9 145.6 0z"/></svg>