<svg xmlns="http://www.w3.org/2000/svg" viewBox="0 0 512 512"><path fill="currentColor" d="M417.8 208.4c-21 0-38.6 13.9-44.2 32.8c-1.5 5.2-6.3 8.7-11.7 8.7H315.2c-17.5 0-26.2-20.9-13.9-33.1l32.3-31.9c3.9-3.8 9.8-4.6 14.5-2c17.5 9.5 39.9 7 54.7-7.7c18.6-18.3 18-48.4-1.8-66.1c-17.8-15.9-45.7-15.2-62.9 1.3C323 125.2 320.3 147.6 330 165c2.6 4.7 1.8 10.5-2 14.3l-34.7 34.3c-12.4 12.2-33.5 3.6-33.5-13.7V148.7c0-5.4 3.6-10 8.8-11.5c19.5-5.6 33.6-23.5 33.2-44.6c-.5-23.6-19.7-43.3-43.5-44.5c-26.6-1.4-48.5 19.5-48.5 45.4c0 20.7 14 38.2 33.2 43.7c5.2 1.5 8.9 6.2 8.9 11.5v51.2c0 17.3-21.1 25.9-33.5 13.7l-34.7-34.3c-3.8-3.8-4.6-9.6-2-14.3c9.7-17.5 7-39.8-8.2-54.5c-17.2-16.5-45-17.2-62.9-1.3c-19.8 17.6-20.4 47.7-1.8 66.1c14.8 14.6 37.2 17.2 54.7 7.7c4.8-2.6 10.7-1.8 14.5 2l32.3 31.9c12.4 12.2 3.6 33.1-13.9 33.1H149.8c-5.4 0-10.2-3.6-11.7-8.7c-5.6-19-23.2-32.8-44.2-32.8c-26.2 0-47.3 21.7-45.9 47.9c1.2 23.5 21.2 42.6 45 43c21.4 .4 39.5-13.6 45.1-32.8c1.5-5.2 6.3-8.7 11.7-8.7h50.9c17.5 0 26.2 20.9 13.9 33.1l-36.6 36.2c-3.9 3.8-9.8 4.6-14.5 2c-17.5-9.5-39.9-7-54.7 7.7c-18.6 18.3-18 48.4 1.8 66.1c17.8 15.9 45.7 15.2 62.9-1.3c15.2-14.7 17.9-37.1 8.2-54.5c-2.6-4.7-1.8-10.5 2-14.3l34.7-34.3c12.4-12.2 33.5-3.6 33.5 13.7v51.2c0 5.4-3.6 10-8.9 11.5c-19.2 5.5-33.2 23-33.2 43.7c0 25.9 22 46.8 48.5 45.4c23.8-1.3 43.1-20.9 43.5-44.5c.4-21.1-13.8-39-33.2-44.6c-5.2-1.5-8.8-6.2-8.8-11.5V312.1c0-17.3 21.1-25.9 33.5-13.7l34.7 34.3c3.8 3.8 4.6 9.6 2 14.3c-9.7 17.5-7 39.8 8.2 54.5c17.2 16.5 45.1 17.2 62.9 1.3c19.8-17.6 20.4-47.7 1.8-66.1c-14.8-14.6-37.2-17.2-54.7-7.7c-4.8 2.6-10.7 1.8-14.5-2l-36.6-36.2c-12.4-12.2-3.6-33.1 13.9-33.1h51c5.4 0 10.2 3.6 11.7 8.7c5.6 19.3 23.7 33.2 45.1 32.8c23.8-.5 43.8-19.5 45-43c1.4-26.2-19.7-47.9-46-47.9h-.2z"/></svg>