<svg xmlns="http://www.w3.org/2000/svg" viewBox="0 0 512 512"><path fill="currentColor" d="M446.8 128l-77 0 0-85.3-369.8 0 0 369.8 59.8 0c9.2 32.8 39.5 56.9 75.3 56.9s66-24.1 75.3-56.9l91.2 0c9.2 32.8 39.5 56.9 75.3 56.9s66-24.1 75.3-56.9l59.8 0 0-219.2-65.2-65.2zM89.1 372.1a49.8 49.8 0 1 1 92 38.1 49.8 49.8 0 1 1 -92-38.1zM299 384l-86 0c-3.6-39.9-37.1-71.1-77.9-71.1S60.9 344.1 57.3 384l-28.9 0 0-312.9 312.9 0 0 250.3C318 333.3 301.4 356.6 299 384zm42.7-28.1a49.8 49.8 0 1 1 70.4 70.4 49.8 49.8 0 1 1 -70.4-70.4zM483.6 384l-28.8 0c-3.6-39.9-37.1-71.1-77.9-71.1-2.4 0-4.8 .1-7.1 .4l0-43 113.8 0 0 113.8zm0-142.2l-113.8 0 0-85.3 65.2 0 48.5 48.5 0 36.8zM184.9 109.2l-83.4 32.4-.7 11.3c-.5 8-.9 36.6 12.5 67.7 13.1 30.3 35.4 52.9 64.5 65.5l7 3 7-3c29-12.6 51.3-35.2 64.5-65.5 9.1-20.9 13.8-46.3 12.6-67.7l-.7-11.3-83.4-32.4zm0 152.4c-47.3-22.3-59.2-74-59-102.5l59-22.9 59.1 22.9c.2 28.5-11.8 80.2-59.1 102.5z"/></svg>