<svg width="26" height="26" viewBox="0 0 26 26" fill="none" xmlns="http://www.w3.org/2000/svg">
<rect x="1" y="1" width="24" height="24" rx="12" fill="#EFB103"/>
<rect x="1" y="1" width="24" height="24" rx="12" stroke="white"/>
<g clip-path="url(#clip0_1_64)">
<path d="M10.6667 7.66667H9C8.26362 7.66667 7.66666 8.26362 7.66666 9V18.3333C7.66666 19.0697 8.26362 19.6667 9 19.6667H17C17.7364 19.6667 18.3333 19.0697 18.3333 18.3333V9C18.3333 8.26362 17.7364 7.66667 17 7.66667H15.3333" stroke="white" stroke-width="1.5" stroke-linecap="round"/>
<path d="M10.3333 9.26667V8C10.3333 7.81591 10.4826 7.66667 10.6667 7.66667C10.8508 7.66667 11.0028 7.51736 11.0343 7.33599C11.1331 6.76781 11.516 5.66667 13 5.66667C14.484 5.66667 14.8669 6.76781 14.9657 7.33599C14.9972 7.51736 15.1493 7.66667 15.3333 7.66667C15.5174 7.66667 15.6667 7.81591 15.6667 8V9.26667C15.6667 9.48758 15.4876 9.66667 15.2667 9.66667H10.7333C10.5124 9.66667 10.3333 9.48758 10.3333 9.26667Z" stroke="white" stroke-width="1.5" stroke-linecap="round"/>
</g>
<defs>
<clipPath id="clip0_1_64">
<rect width="16" height="16" fill="white" transform="translate(5 5)"/>
</clipPath>
</defs>
</svg>
