<?xml version="1.0" encoding="UTF-8"?>
<svg xmlns="http://www.w3.org/2000/svg" xmlns:xlink="http://www.w3.org/1999/xlink" width="24px" height="24px" viewBox="0 0 24 24" version="1.1">
<g id="surface1">
<path style=" stroke:none;fill-rule:nonzero;fill:rgb(0%,0%,0%);fill-opacity:1;" d="M 11 16 C 11 16.550781 11.449219 17 12 17 C 12.550781 17 13 16.550781 13 16 Z M 8.214844 14.390625 C 8.753906 14.273438 9.09375 13.738281 8.976562 13.199219 C 8.855469 12.660156 8.324219 12.320312 7.785156 12.4375 Z M 16.214844 12.4375 C 15.675781 12.320312 15.144531 12.660156 15.023438 13.199219 C 14.90625 13.738281 15.246094 14.273438 15.785156 14.390625 Z M 15 7 C 15 8.65625 13.65625 10 12 10 L 12 12 C 14.761719 12 17 9.761719 17 7 Z M 12 10 C 10.34375 10 9 8.65625 9 7 L 7 7 C 7 9.761719 9.238281 12 12 12 Z M 9 7 C 9 5.34375 10.34375 4 12 4 L 12 2 C 9.238281 2 7 4.238281 7 7 Z M 12 4 C 13.65625 4 15 5.34375 15 7 L 17 7 C 17 4.238281 14.761719 2 12 2 Z M 11 11 L 11 16 L 13 16 L 13 11 Z M 20 17 C 20 17.226562 19.902344 17.519531 19.566406 17.867188 C 19.230469 18.222656 18.695312 18.585938 17.957031 18.914062 C 16.484375 19.570312 14.378906 20 12 20 L 12 22 C 14.589844 22 16.984375 21.535156 18.769531 20.742188 C 19.660156 20.347656 20.445312 19.847656 21.015625 19.246094 C 21.59375 18.636719 22 17.878906 22 17 Z M 12 20 C 9.621094 20 7.515625 19.570312 6.042969 18.914062 C 5.304688 18.585938 4.769531 18.222656 4.433594 17.867188 C 4.097656 17.519531 4 17.226562 4 17 L 2 17 C 2 17.878906 2.40625 18.636719 2.984375 19.246094 C 3.554688 19.847656 4.339844 20.347656 5.230469 20.742188 C 7.015625 21.535156 9.410156 22 12 22 Z M 4 17 C 4 16.683594 4.207031 16.214844 4.964844 15.683594 C 5.703125 15.164062 6.816406 14.703125 8.214844 14.390625 L 7.785156 12.4375 C 6.222656 12.785156 4.835938 13.328125 3.8125 14.046875 C 2.808594 14.75 2 15.746094 2 17 Z M 15.785156 14.390625 C 17.183594 14.703125 18.296875 15.164062 19.035156 15.683594 C 19.792969 16.214844 20 16.683594 20 17 L 22 17 C 22 15.746094 21.191406 14.75 20.1875 14.046875 C 19.164062 13.328125 17.777344 12.785156 16.214844 12.4375 Z M 15.785156 14.390625 "/>
</g>
</svg>
