<?xml version="1.0" encoding="UTF-8"?>
<svg xmlns="http://www.w3.org/2000/svg" xmlns:xlink="http://www.w3.org/1999/xlink" width="24px" height="24px" viewBox="0 0 24 24" version="1.1">
<g id="surface1">
<path style=" stroke:none;fill-rule:nonzero;fill:rgb(0%,0%,0%);fill-opacity:1;" d="M 17.4375 6 C 17.4375 5.996094 17.4375 5.992188 17.4375 5.988281 C 17.4375 2.984375 15.003906 0.550781 12 0.550781 C 8.996094 0.550781 6.5625 2.984375 6.5625 5.988281 C 6.5625 8.65625 8.488281 10.878906 11.03125 11.335938 L 11.0625 11.34375 L 11.0625 22.5 C 11.0625 23.015625 11.484375 23.4375 12 23.4375 C 12.515625 23.4375 12.9375 23.015625 12.9375 22.5 L 12.9375 11.34375 C 15.507812 10.882812 17.429688 8.667969 17.4375 6 Z M 12 9.5625 C 10.03125 9.5625 8.4375 7.96875 8.4375 6 C 8.4375 4.03125 10.03125 2.4375 12 2.4375 C 13.96875 2.4375 15.5625 4.03125 15.5625 6 C 15.558594 7.964844 13.964844 9.558594 12 9.5625 Z M 12 9.5625 "/>
</g>
</svg>
