<?xml version="1.0" encoding="UTF-8"?>
<svg xmlns="http://www.w3.org/2000/svg" xmlns:xlink="http://www.w3.org/1999/xlink" width="24px" height="24px" viewBox="0 0 24 24" version="1.1">
<g id="surface1">
<path style=" stroke:none;fill-rule:nonzero;fill:rgb(0%,0%,0%);fill-opacity:1;" d="M 8.136719 12.734375 L 7.371094 13.792969 C 4.242188 13.730469 1.632812 11.375 1.25 8.265625 C 0.867188 5.15625 2.828125 2.242188 5.851562 1.421875 C 8.871094 0.601562 12.039062 2.125 13.28125 5 L 12.144531 5 C 10.914062 2.726562 8.21875 1.675781 5.777344 2.515625 C 3.332031 3.355469 1.851562 5.839844 2.28125 8.386719 C 2.707031 10.9375 4.914062 12.804688 7.5 12.800781 C 7.710938 12.792969 7.925781 12.769531 8.136719 12.734375 Z M 11 6 L 11 12.921875 L 12 14.308594 L 12 7 L 22 7 L 22 17 L 13.945312 17 L 14.667969 18 L 23 18 L 23 6 Z M 17.042969 23 L 1.957031 23 L 9.5 12.554688 Z M 9.5 14.261719 L 3.910156 22 L 15.089844 22 Z M 9.5 14.261719 "/>
</g>
</svg>
