<svg width="26" height="26" viewBox="0 0 26 26" fill="none" xmlns="http://www.w3.org/2000/svg">
<rect x="1" y="1" width="24" height="24" rx="12" fill="#003AA5"/>
<rect x="1" y="1" width="24" height="24" rx="12" stroke="white"/>
<path d="M12.8062 7.69997C12.6281 7.76247 12.5406 7.83122 12.4437 7.97497L12.3594 8.10622L12.3437 10.2156L12.3281 12.3281L9.54374 12.3437L6.76249 12.3593L6.64687 12.4375C6.58124 12.4812 6.49062 12.5718 6.44374 12.6375L6.35937 12.7593L6.34374 14.5593C6.32499 16.6812 6.33124 16.7656 6.54999 17.2125C6.79374 17.7156 7.22499 18.0843 7.75937 18.2437C8.12499 18.3531 8.57499 18.35 8.92187 18.2375C9.22187 18.1437 9.49687 17.9843 9.68749 17.7937L9.83124 17.6562H12.325L14.8187 17.6593L14.9844 17.8062C15.3844 18.1593 15.8062 18.3187 16.3437 18.3187C16.6094 18.3187 16.7187 18.3031 16.9219 18.2375C17.2219 18.1437 17.4969 17.9843 17.6875 17.7968L17.8281 17.6593L18.5344 17.65C19.2281 17.6406 19.2406 17.6406 19.3531 17.5625C19.4187 17.5187 19.5094 17.4281 19.5562 17.3625L19.6406 17.2406V14.7531C19.6406 12.1062 19.6406 12.075 19.4812 11.4062C19.2156 10.275 18.7344 9.38747 18.0125 8.68747C17.3937 8.0906 16.7562 7.77497 15.9844 7.68747C15.5437 7.63747 12.95 7.64997 12.8062 7.69997ZM14.4687 9.0156C14.4687 9.02497 14.6719 9.98435 14.9219 11.1468C15.4094 13.4218 15.4 13.3875 15.6375 13.5562L15.7594 13.6406L17.0437 13.6562L18.3281 13.6718L18.3344 14.9062C18.3375 15.9468 18.3312 16.1125 18.3 15.9687C18.1969 15.5062 17.9844 15.1281 17.6625 14.8437C17.4562 14.6593 17.0719 14.4593 16.7812 14.3875C16.5125 14.3187 16.0031 14.3406 15.7187 14.4343C14.9781 14.6718 14.4375 15.3437 14.35 16.1281L14.3281 16.3281H14H13.6719L13.6656 12.6625L13.6562 8.99997H14.0625C14.2875 8.99997 14.4687 9.00622 14.4687 9.0156ZM16.2594 9.10935C17.1687 9.41872 17.9406 10.5031 18.2156 11.8656C18.2531 12.0375 18.2812 12.2187 18.2812 12.2625V12.3437H17.4062C16.925 12.3437 16.5312 12.3343 16.5312 12.3218C16.5312 12.3093 16.3781 11.5781 16.1875 10.6968C16 9.8156 15.8437 9.07185 15.8437 9.04685C15.8437 8.9906 15.9562 9.00622 16.2594 9.10935ZM12.3281 15V16.3281L11.3375 16.3375L10.3469 16.3437L10.3312 16.2437C10.3219 16.1875 10.3062 16.0781 10.2969 16C10.2469 15.6031 9.99062 15.1375 9.66249 14.8437C9.46249 14.6625 9.07499 14.4625 8.79687 14.3906C8.56249 14.3312 8.13437 14.3312 7.89062 14.3906C7.78749 14.4156 7.69374 14.4343 7.68124 14.4375C7.64999 14.4375 7.64687 13.7062 7.67812 13.6781C7.68749 13.6656 8.74062 13.6593 10.0125 13.6625L12.3281 13.6718V15ZM8.67812 15.7687C9.04062 15.9781 9.09999 16.4968 8.79999 16.7968C8.58437 17.0125 8.30937 17.0562 8.03437 16.9187C7.79687 16.8 7.68749 16.6187 7.68749 16.3531C7.68749 16.1156 7.73749 15.9875 7.88124 15.85C8.09374 15.6468 8.41562 15.6156 8.67812 15.7687ZM16.6781 15.7687C17.0406 15.9781 17.1 16.4968 16.8 16.7968C16.5844 17.0125 16.3094 17.0562 16.0344 16.9187C15.6281 16.7156 15.5437 16.1812 15.8687 15.8656C16.0906 15.6468 16.4062 15.6125 16.6781 15.7687Z" fill="white"/>
</svg>
