<svg width="40" height="40" viewBox="0 0 40 40" fill="none" xmlns="http://www.w3.org/2000/svg">
<circle cx="20.0003" cy="20.0008" r="18.3569" transform="rotate(-3.5878 20.0003 20.0008)" stroke="#0D27F2"/>
<path opacity="0.3" d="M33.2912 9.34943C31.7008 7.36489 29.6863 5.76167 27.3954 4.65744C25.1045 3.55322 22.5954 2.97604 20.0523 2.96825C17.5092 2.96046 14.9966 3.52227 12.699 4.61244C10.4013 5.70261 8.37701 7.29346 6.77457 9.26822L20.0001 20.0002L33.2912 9.34943Z" fill="#0D27F2"/>
<g filter="url(#filter0_d_1310_3587)">
<path d="M26.1208 13.5L26.1208 30L20.1208 25.5L14.1208 30L14.1208 13.5L20.1208 10L26.1208 13.5Z" fill="#449500"/>
<path d="M25.6208 13.7861V28.999L20.4206 25.0996L20.1208 24.875L19.821 25.0996L14.6208 28.999V13.7861L20.1208 10.5781L25.6208 13.7861Z" stroke="white"/>
</g>
<defs>
<filter id="filter0_d_1310_3587" x="-10" y="-10" width="60" height="60" filterUnits="userSpaceOnUse" color-interpolation-filters="sRGB">
<feGaussianBlur in="SourceAlpha" stdDeviation="5" result="blur"/>
<feOffset in="blur" dx="0" dy="0" result="offsetBlur"/>
<feFlood flood-color="#449500" flood-opacity="1" result="color"/>
<feComposite in="color" in2="offsetBlur" operator="in" result="shadow"/>
<feMerge>
<feMergeNode in="shadow"/>
<feMergeNode in="SourceGraphic"/>
</feMerge>
</filter>
</defs>
</svg>
