<?xml version="1.0" encoding="UTF-8"?>
<svg xmlns="http://www.w3.org/2000/svg" version="1.1" viewBox="0 0 60 60">
  <defs>
    <style>
      .cls-1 {
        fill: #edf7fa;
      }
    </style>
  </defs>
  <!-- Generator: Adobe Illustrator 28.6.0, SVG Export Plug-In . SVG Version: 1.2.0 Build 709)  -->
  <g>
    <g id="Livello_1">
      <g id="Livello_1-2" data-name="Livello_1">
        <path class="cls-1" d="M36.1,49.4c-1.5,3.2-4.6,4.8-9.3,4.8s-4.4-.8-5.9-2.3c-1.3-1.3-1.9-2.7-1.9-4,0-3.5.9-8.6,2.6-15.4l2.6-12.5,14.5-1.3-4.4,20.4c-.8,3.2-1.2,5.3-1.2,6.5,0,2.4,1,3.7,2.9,3.8h0ZM25.6,11c0-1.7.8-3,2.3-3.9,1.6-.9,3.5-1.4,5.7-1.4s4,.5,5.4,1.4c1.4.9,2.1,2.2,2.1,3.9s-.8,3-2.3,3.8c-1.5.9-3.3,1.3-5.6,1.3s-4.1-.4-5.5-1.3c-1.4-.9-2.1-2.1-2.1-3.8h0Z"/>
      </g>
    </g>
  </g>
</svg>