<svg width="12" height="13" viewBox="0 0 12 13" fill="none" xmlns="http://www.w3.org/2000/svg">
<path fill-rule="evenodd" clip-rule="evenodd" d="M0 4.5C0 2.61438 0 1.67157 0.585786 1.08579C1.17157 0.5 2.11438 0.5 4 0.5H8.22876C8.77376 0.5 9.04627 0.5 9.29129 0.601494C9.53632 0.702988 9.72901 0.895675 10.1144 1.28105L11.219 2.38562C11.6043 2.77099 11.797 2.96368 11.8985 3.20871C12 3.45374 12 3.72624 12 4.27124V8.5C12 10.3856 12 11.3284 11.4142 11.9142C10.9867 12.3417 10.369 12.4572 9.33333 12.4885L9.33334 10.4589C9.33338 10.0228 9.33341 9.63103 9.29078 9.3139C9.24423 8.96766 9.13614 8.61245 8.84518 8.32149C8.55422 8.03053 8.19901 7.92244 7.85277 7.87589C7.53563 7.83325 7.14382 7.83329 6.70774 7.83333H4.6256C4.18951 7.83329 3.7977 7.83325 3.48056 7.87589C3.13432 7.92244 2.77911 8.03053 2.48816 8.32149C2.1972 8.61245 2.08911 8.96766 2.04256 9.3139C1.99992 9.63103 1.99996 10.0228 2 10.4589L2 12.4493C1.34994 12.3853 0.912377 12.2408 0.585786 11.9142C0 11.3284 0 10.3856 0 8.5V4.5ZM2.66667 3.16667C2.29848 3.16667 2 3.46514 2 3.83333C2 4.20152 2.29848 4.5 2.66667 4.5H6C6.36819 4.5 6.66667 4.20152 6.66667 3.83333C6.66667 3.46514 6.36819 3.16667 6 3.16667H2.66667Z" fill="#EDF7FA"/>
<path d="M8 10.5V12.5H4C3.76331 12.5 3.54147 12.5 3.33333 12.4988V10.5C3.33333 10.0097 3.33475 9.70913 3.364 9.49156C3.38971 9.30033 3.42628 9.2684 3.43062 9.26461L3.43128 9.26395C3.43507 9.25961 3.467 9.22304 3.65823 9.19733C3.87579 9.16808 4.17642 9.16667 4.66667 9.16667H6.66667C7.15692 9.16667 7.45754 9.16808 7.67511 9.19733C7.86634 9.22304 7.89827 9.25961 7.90206 9.26395L7.90272 9.26461C7.90706 9.2684 7.94362 9.30033 7.96933 9.49156C7.99858 9.70913 8 10.0097 8 10.5Z" fill="#EDF7FA"/>
</svg>
