<?xml version="1.0" encoding="UTF-8" standalone="no"?>
<svg
   width="62"
   height="53"
   viewBox="0 0 62 53"
   fill="none"
   version="1.1"
   id="svg77"
   sodipodi:docname="smartport.svg"
   inkscape:version="1.2.2 (732a01da63, 2022-12-09)"
   xmlns:inkscape="http://www.inkscape.org/namespaces/inkscape"
   xmlns:sodipodi="http://sodipodi.sourceforge.net/DTD/sodipodi-0.dtd"
   xmlns="http://www.w3.org/2000/svg"
   xmlns:svg="http://www.w3.org/2000/svg">
  <sodipodi:namedview
     id="namedview79"
     pagecolor="#ffffff"
     bordercolor="#000000"
     borderopacity="0.25"
     inkscape:showpageshadow="2"
     inkscape:pageopacity="0.0"
     inkscape:pagecheckerboard="0"
     inkscape:deskcolor="#d1d1d1"
     showgrid="false"
     inkscape:zoom="15.641509"
     inkscape:cx="26.627865"
     inkscape:cy="21.41737"
     inkscape:window-width="1920"
     inkscape:window-height="1009"
     inkscape:window-x="1912"
     inkscape:window-y="-8"
     inkscape:window-maximized="1"
     inkscape:current-layer="svg77" />
  <path
     d="M30.8428 39.1776C38.465 39.1776 44.644 33.0086 44.644 25.3986C44.644 17.7887 38.465 11.6196 30.8428 11.6196C23.2205 11.6196 17.0415 17.7887 17.0415 25.3986C17.0415 33.0086 23.2205 39.1776 30.8428 39.1776Z"
     fill="#063062"
     id="path2" />
  <path
     d="M25.3964 31.8717C26.2193 31.0501 26.2534 29.7521 25.4725 28.9725C24.6917 28.1929 23.3916 28.2269 22.5686 29.0485C21.7457 29.8701 21.7116 31.1681 22.4925 31.9477C23.2733 32.7273 24.5734 32.6933 25.3964 31.8717Z"
     fill="white"
     id="path14" />
  <path
     d="M30.661 31.8719C31.4839 31.0503 31.518 29.7523 30.7372 28.9727C29.9563 28.1931 28.6562 28.2272 27.8333 29.0488C27.0104 29.8703 26.9763 31.1684 27.7571 31.948C28.538 32.7276 29.8381 32.6935 30.661 31.8719Z"
     fill="white"
     id="path16" />
  <path
     d="M38.6664 31.8248C39.4893 31.0032 39.5234 29.7052 38.7425 28.9256C37.9617 28.146 36.6616 28.18 35.8387 29.0016C35.0157 29.8232 34.9816 31.1212 35.7625 31.9008C36.5433 32.6804 37.8435 32.6464 38.6664 31.8248Z"
     fill="white"
     id="path18" />
  <path
     d="M39.7951 19.4234H32.5713C32.5175 19.4234 32.4703 19.4234 32.4165 19.4234C32.2684 19.4234 32.1472 19.3697 32.1472 19.2352V16.9499C32.1472 16.829 32.0529 16.7349 31.9317 16.7349C31.8106 16.7349 31.7163 16.829 31.7163 16.9499V26.4675C31.7163 26.5885 31.6221 26.6826 31.5009 26.6826H21.0994C20.9379 26.6826 20.8032 26.8171 20.8032 26.9784V30.1643C20.8032 30.3257 20.9379 30.4601 21.0994 30.4601H21.4495C21.564 30.4601 21.6582 30.3727 21.665 30.2584C21.7659 29.0687 22.7691 28.1345 23.9876 28.1345C25.2062 28.1345 26.2093 29.0687 26.3103 30.2584C26.317 30.3727 26.4112 30.4601 26.5257 30.4601H26.7277C26.8421 30.4601 26.9364 30.3727 26.9431 30.2584C27.0441 29.0687 28.0472 28.1345 29.2657 28.1345C30.4843 28.1345 31.4874 29.0687 31.5884 30.2584C31.5951 30.3727 31.6894 30.4601 31.8038 30.4601H32.4299C32.4299 30.4601 32.4636 30.4601 32.4771 30.4601C32.4905 30.4601 32.5107 30.4601 32.5242 30.4601C32.5444 30.4601 32.5646 30.4601 32.5848 30.4601H34.9209C34.9209 30.4601 34.9209 30.4466 34.9209 30.4399C34.9209 30.4399 34.9209 30.4332 34.9209 30.4265C34.9209 29.1427 35.9644 28.1009 37.2503 28.1009C38.5361 28.1009 39.5797 29.1427 39.5797 30.4265C39.5797 30.4332 39.5797 30.4399 39.5797 30.4466C39.5797 30.4466 39.5797 30.4534 39.5797 30.4601H39.8086C40.3786 30.4601 40.6636 30.2159 40.6636 29.7275V19.8738C40.6636 19.4302 40.6636 19.4234 39.8086 19.4234H39.7951ZM39.7278 20.6333V23.1068C39.7278 23.2278 39.6335 23.3219 39.5123 23.3219H35.3854C35.2642 23.3219 35.17 23.2278 35.17 23.1068V20.6333C35.17 20.5123 35.2642 20.4182 35.3854 20.4182H39.5123C39.6335 20.4182 39.7278 20.5123 39.7278 20.6333Z"
     fill="white"
     id="path20" />
  <path
     d="M32.3563 16.9768V19.094C32.3563 19.1814 32.4573 19.2486 32.5852 19.2486H37.7422C37.8836 19.2486 37.9509 19.1343 37.8499 19.0671C37.1699 18.6437 35.2782 17.575 32.5381 16.8827C32.4506 16.8625 32.3496 16.9028 32.3496 16.97L32.3563 16.9768Z"
     fill="white"
     id="path22" />
  <defs
     id="defs75">
    <filter
       id="filter0_d_80_194"
       x="4.96045"
       y="2.09326"
       width="51.7759"
       height="46.6042"
       filterUnits="userSpaceOnUse"
       color-interpolation-filters="sRGB">
      <feFlood
         flood-opacity="0"
         result="BackgroundImageFix"
         id="feFlood24" />
      <feColorMatrix
         in="SourceAlpha"
         type="matrix"
         values="0 0 0 0 0 0 0 0 0 0 0 0 0 0 0 0 0 0 127 0"
         result="hardAlpha"
         id="feColorMatrix26" />
      <feOffset
         id="feOffset28" />
      <feGaussianBlur
         stdDeviation="1.5"
         id="feGaussianBlur30" />
      <feComposite
         in2="hardAlpha"
         operator="out"
         id="feComposite32" />
      <feColorMatrix
         type="matrix"
         values="0 0 0 0 0.0575709 0 0 0 0 0.8425 0 0 0 0 0.0889681 0 0 0 1 0"
         id="feColorMatrix34" />
      <feBlend
         mode="multiply"
         in2="BackgroundImageFix"
         result="effect1_dropShadow_80_194"
         id="feBlend36" />
      <feBlend
         mode="normal"
         in="SourceGraphic"
         in2="effect1_dropShadow_80_194"
         result="shape"
         id="feBlend38" />
    </filter>
    <filter
       id="filter1_d_80_194"
       x="3.96045"
       y="1.09326"
       width="20.353"
       height="48.6042"
       filterUnits="userSpaceOnUse"
       color-interpolation-filters="sRGB">
      <feFlood
         flood-opacity="0"
         result="BackgroundImageFix"
         id="feFlood41" />
      <feColorMatrix
         in="SourceAlpha"
         type="matrix"
         values="0 0 0 0 0 0 0 0 0 0 0 0 0 0 0 0 0 0 127 0"
         result="hardAlpha"
         id="feColorMatrix43" />
      <feOffset
         id="feOffset45" />
      <feGaussianBlur
         stdDeviation="2"
         id="feGaussianBlur47" />
      <feComposite
         in2="hardAlpha"
         operator="out"
         id="feComposite49" />
      <feColorMatrix
         type="matrix"
         values="0 0 0 0 0.407843 0 0 0 0 0.94902 0 0 0 0 0.360784 0 0 0 1 0"
         id="feColorMatrix51" />
      <feBlend
         mode="multiply"
         in2="BackgroundImageFix"
         result="effect1_dropShadow_80_194"
         id="feBlend53" />
      <feBlend
         mode="normal"
         in="SourceGraphic"
         in2="effect1_dropShadow_80_194"
         result="shape"
         id="feBlend55" />
    </filter>
    <filter
       id="filter2_d_80_194"
       x="37.5337"
       y="1.18066"
       width="20.2026"
       height="48.4431"
       filterUnits="userSpaceOnUse"
       color-interpolation-filters="sRGB">
      <feFlood
         flood-opacity="0"
         result="BackgroundImageFix"
         id="feFlood58" />
      <feColorMatrix
         in="SourceAlpha"
         type="matrix"
         values="0 0 0 0 0 0 0 0 0 0 0 0 0 0 0 0 0 0 127 0"
         result="hardAlpha"
         id="feColorMatrix60" />
      <feOffset
         id="feOffset62" />
      <feGaussianBlur
         stdDeviation="2"
         id="feGaussianBlur64" />
      <feComposite
         in2="hardAlpha"
         operator="out"
         id="feComposite66" />
      <feColorMatrix
         type="matrix"
         values="0 0 0 0 0.407843 0 0 0 0 0.94902 0 0 0 0 0.360784 0 0 0 1 0"
         id="feColorMatrix68" />
      <feBlend
         mode="multiply"
         in2="BackgroundImageFix"
         result="effect1_dropShadow_80_194"
         id="feBlend70" />
      <feBlend
         mode="normal"
         in="SourceGraphic"
         in2="effect1_dropShadow_80_194"
         result="shape"
         id="feBlend72" />
    </filter>
  </defs>
</svg>
