<svg width="52" height="52" viewBox="0 0 52 52" fill="none" xmlns="http://www.w3.org/2000/svg">
<path d="M5.41667 8.61667C5.41667 7.49656 5.41667 6.93651 5.63465 6.50868C5.8264 6.13236 6.13236 5.8264 6.50868 5.63465C6.93651 5.41667 7.49656 5.41667 8.61667 5.41667H43.3833C44.5034 5.41667 45.0635 5.41667 45.4913 5.63465C45.8676 5.8264 46.1736 6.13236 46.3653 6.50868C46.5833 6.93651 46.5833 7.49656 46.5833 8.61667V43.3833C46.5833 44.5034 46.5833 45.0635 46.3653 45.4913C46.1736 45.8676 45.8676 46.1736 45.4913 46.3653C45.0635 46.5833 44.5034 46.5833 43.3833 46.5833H8.61667C7.49656 46.5833 6.93651 46.5833 6.50868 46.3653C6.13236 46.1736 5.8264 45.8676 5.63465 45.4913C5.41667 45.0635 5.41667 44.5034 5.41667 43.3833V8.61667Z" stroke="white" stroke-width="2" stroke-linecap="round"/>
<path d="M30 25.5L25 14M38 47L35.5 41" stroke="white" stroke-width="2"/>
<path d="M46.5833 9.75L5.41667 18.4167" stroke="white" stroke-width="2"/>
<path d="M13.3217 30.0298C13.2393 29.7713 13.1285 29.5398 12.9893 29.3352C12.8529 29.1278 12.6896 28.9517 12.4993 28.8068C12.3089 28.6591 12.0916 28.5469 11.8473 28.4702C11.6058 28.3935 11.3402 28.3551 11.0504 28.3551C10.5589 28.3551 10.1157 28.4815 9.72084 28.7344C9.32596 28.9872 9.01346 29.358 8.78334 29.8466C8.55607 30.3324 8.44244 30.9276 8.44244 31.6321C8.44244 32.3395 8.55749 32.9375 8.78761 33.4261C9.01772 33.9148 9.33306 34.2855 9.73363 34.5384C10.1342 34.7912 10.5902 34.9176 11.1015 34.9176C11.576 34.9176 11.9893 34.821 12.3416 34.6278C12.6967 34.4347 12.9708 34.1619 13.164 33.8097C13.36 33.4545 13.4581 33.0369 13.4581 32.5568L13.799 32.6207H11.3018V31.5341H14.7322V32.527C14.7322 33.2599 14.576 33.8963 14.2635 34.4361C13.9538 34.973 13.5248 35.3878 12.9765 35.6804C12.4311 35.973 11.8061 36.1193 11.1015 36.1193C10.3118 36.1193 9.61857 35.9375 9.02198 35.5739C8.42823 35.2102 7.96516 34.6946 7.63278 34.027C7.30039 33.3565 7.1342 32.5611 7.1342 31.6406C7.1342 30.9446 7.23079 30.3196 7.42397 29.7656C7.61715 29.2116 7.88846 28.7415 8.23789 28.3551C8.59016 27.9659 9.00352 27.669 9.47795 27.4645C9.95522 27.2571 10.4765 27.1534 11.0419 27.1534C11.5135 27.1534 11.9524 27.223 12.3586 27.3622C12.7677 27.5014 13.1314 27.6989 13.4495 27.9545C13.7706 28.2102 14.0362 28.5142 14.2464 28.8665C14.4566 29.2159 14.5987 29.6037 14.6725 30.0298H13.3217ZM18.6986 36.1321C18.0849 36.1321 17.5494 35.9915 17.092 35.7102C16.6346 35.429 16.2795 35.0355 16.0267 34.5298C15.7738 34.0241 15.6474 33.4332 15.6474 32.7571C15.6474 32.0781 15.7738 31.4844 16.0267 30.9759C16.2795 30.4673 16.6346 30.0724 17.092 29.7912C17.5494 29.5099 18.0849 29.3693 18.6986 29.3693C19.3122 29.3693 19.8477 29.5099 20.3051 29.7912C20.7625 30.0724 21.1176 30.4673 21.3704 30.9759C21.6233 31.4844 21.7497 32.0781 21.7497 32.7571C21.7497 33.4332 21.6233 34.0241 21.3704 34.5298C21.1176 35.0355 20.7625 35.429 20.3051 35.7102C19.8477 35.9915 19.3122 36.1321 18.6986 36.1321ZM18.7028 35.0625C19.1005 35.0625 19.4301 34.9574 19.6915 34.7472C19.9528 34.5369 20.146 34.2571 20.271 33.9077C20.3988 33.5582 20.4628 33.1733 20.4628 32.7528C20.4628 32.3352 20.3988 31.9517 20.271 31.6023C20.146 31.25 19.9528 30.9673 19.6915 30.7543C19.4301 30.5412 19.1005 30.4347 18.7028 30.4347C18.3023 30.4347 17.9699 30.5412 17.7057 30.7543C17.4443 30.9673 17.2497 31.25 17.1219 31.6023C16.9969 31.9517 16.9344 32.3352 16.9344 32.7528C16.9344 33.1733 16.9969 33.5582 17.1219 33.9077C17.2497 34.2571 17.4443 34.5369 17.7057 34.7472C17.9699 34.9574 18.3023 35.0625 18.7028 35.0625ZM25.569 36.1321C24.9554 36.1321 24.4199 35.9915 23.9625 35.7102C23.5051 35.429 23.15 35.0355 22.8972 34.5298C22.6443 34.0241 22.5179 33.4332 22.5179 32.7571C22.5179 32.0781 22.6443 31.4844 22.8972 30.9759C23.15 30.4673 23.5051 30.0724 23.9625 29.7912C24.4199 29.5099 24.9554 29.3693 25.569 29.3693C26.1827 29.3693 26.7182 29.5099 27.1756 29.7912C27.6329 30.0724 27.9881 30.4673 28.2409 30.9759C28.4937 31.4844 28.6202 32.0781 28.6202 32.7571C28.6202 33.4332 28.4937 34.0241 28.2409 34.5298C27.9881 35.0355 27.6329 35.429 27.1756 35.7102C26.7182 35.9915 26.1827 36.1321 25.569 36.1321ZM25.5733 35.0625C25.971 35.0625 26.3006 34.9574 26.5619 34.7472C26.8233 34.5369 27.0165 34.2571 27.1415 33.9077C27.2693 33.5582 27.3332 33.1733 27.3332 32.7528C27.3332 32.3352 27.2693 31.9517 27.1415 31.6023C27.0165 31.25 26.8233 30.9673 26.5619 30.7543C26.3006 30.5412 25.971 30.4347 25.5733 30.4347C25.1727 30.4347 24.8403 30.5412 24.5761 30.7543C24.3148 30.9673 24.1202 31.25 23.9923 31.6023C23.8673 31.9517 23.8048 32.3352 23.8048 32.7528C23.8048 33.1733 23.8673 33.5582 23.9923 33.9077C24.1202 34.2571 24.3148 34.5369 24.5761 34.7472C24.8403 34.9574 25.1727 35.0625 25.5733 35.0625ZM32.4267 38.5909C31.9068 38.5909 31.4594 38.5227 31.0844 38.3864C30.7122 38.25 30.4082 38.0696 30.1725 37.8452C29.9367 37.6207 29.7605 37.375 29.644 37.108L30.7392 36.6562C30.8159 36.7812 30.9182 36.9134 31.046 37.0526C31.1767 37.1946 31.3528 37.3153 31.5744 37.4148C31.7989 37.5142 32.0872 37.5639 32.4395 37.5639C32.9225 37.5639 33.3216 37.446 33.6369 37.2102C33.9523 36.9773 34.11 36.6051 34.11 36.0938V34.8068H34.029C33.9523 34.946 33.8415 35.1009 33.6966 35.2713C33.5546 35.4418 33.3585 35.5895 33.1085 35.7145C32.8585 35.8395 32.5332 35.902 32.1327 35.902C31.6156 35.902 31.1497 35.7812 30.7349 35.5398C30.323 35.2955 29.9963 34.9361 29.7548 34.4616C29.5162 33.9844 29.3969 33.3977 29.3969 32.7017C29.3969 32.0057 29.5148 31.4091 29.7506 30.9119C29.9892 30.4148 30.3159 30.0341 30.7307 29.7699C31.1455 29.5028 31.6156 29.3693 32.1412 29.3693C32.5474 29.3693 32.8756 29.4375 33.1256 29.5739C33.3756 29.7074 33.5702 29.8636 33.7094 30.0426C33.8514 30.2216 33.9608 30.3793 34.0375 30.5156H34.1313V29.4545H35.3798V36.1449C35.3798 36.7074 35.2492 37.169 34.9878 37.5298C34.7264 37.8906 34.3727 38.1577 33.9267 38.331C33.4835 38.5043 32.9835 38.5909 32.4267 38.5909ZM32.4139 34.8452C32.7804 34.8452 33.0901 34.7599 33.3429 34.5895C33.5986 34.4162 33.7918 34.169 33.9225 33.848C34.056 33.5241 34.1227 33.1364 34.1227 32.6847C34.1227 32.2443 34.0574 31.8565 33.9267 31.5213C33.796 31.1861 33.6043 30.9247 33.3514 30.7372C33.0986 30.5469 32.7861 30.4517 32.4139 30.4517C32.0304 30.4517 31.7108 30.5511 31.4551 30.75C31.1994 30.946 31.0063 31.2131 30.8756 31.5511C30.7477 31.8892 30.6838 32.267 30.6838 32.6847C30.6838 33.1136 30.7492 33.4901 30.8798 33.8139C31.0105 34.1378 31.2037 34.3906 31.4594 34.5724C31.7179 34.7543 32.0361 34.8452 32.4139 34.8452ZM38.0028 27.2727V36H36.7286V27.2727H38.0028ZM42.1779 36.1321C41.5331 36.1321 40.9777 35.9943 40.5118 35.7188C40.0487 35.4403 39.6907 35.0497 39.4379 34.5469C39.1879 34.0412 39.0629 33.4489 39.0629 32.7699C39.0629 32.0994 39.1879 31.5085 39.4379 30.9972C39.6907 30.4858 40.043 30.0866 40.4947 29.7997C40.9493 29.5128 41.4805 29.3693 42.0885 29.3693C42.4578 29.3693 42.8157 29.4304 43.1623 29.5526C43.5089 29.6747 43.82 29.8665 44.0956 30.1278C44.3711 30.3892 44.5885 30.7287 44.7475 31.1463C44.9066 31.5611 44.9862 32.0653 44.9862 32.6591V33.1108H39.7831V32.1562H43.7376C43.7376 31.821 43.6694 31.5241 43.5331 31.2656C43.3967 31.0043 43.2049 30.7983 42.9578 30.6477C42.7135 30.4972 42.4265 30.4219 42.097 30.4219C41.739 30.4219 41.4265 30.5099 41.1595 30.6861C40.8953 30.8594 40.6907 31.0866 40.5458 31.3679C40.4038 31.6463 40.3328 31.9489 40.3328 32.2756V33.0213C40.3328 33.4588 40.4095 33.831 40.5629 34.1378C40.7191 34.4446 40.9365 34.679 41.2149 34.8409C41.4933 35 41.8186 35.0795 42.1907 35.0795C42.4322 35.0795 42.6524 35.0455 42.8512 34.9773C43.0501 34.9062 43.222 34.8011 43.3669 34.6619C43.5118 34.5227 43.6225 34.3509 43.6993 34.1463L44.9052 34.3636C44.8086 34.7187 44.6353 35.0298 44.3853 35.2969C44.1382 35.5611 43.8271 35.767 43.4521 35.9148C43.0799 36.0597 42.6552 36.1321 42.1779 36.1321Z" fill="white"/>
</svg>
