<?xml version="1.0" encoding="utf-8"?>
<!-- Generator: Adobe Illustrator 28.3.0, SVG Export Plug-In . SVG Version: 6.00 Build 0)  -->
<svg version="1.1" id="Livello_1" xmlns="http://www.w3.org/2000/svg" xmlns:xlink="http://www.w3.org/1999/xlink" x="0px" y="0px"
	 viewBox="0 0 52 52" style="enable-background:new 0 0 52 52;" xml:space="preserve">
<style type="text/css">
	.st0{display:none;}
	.st1{display:inline;}
	.st2{fill:#FEFEFE;}
	.st3{display:inline;fill:#FEFEFE;}
</style>
<g id="Livello_1_00000090998508143953025440000011013199417444372641_" class="st0">
	<g class="st1">
		<path class="st2" d="M47.3,9.5c0.2,0,0.3,0.1,0.3,0.3l2.8,27.9c0,0.2-0.1,0.3-0.3,0.3L4.7,42.5c-0.2,0-0.3-0.1-0.3-0.3L1.6,14.3
			c0-0.2,0.1-0.3,0.3-0.3L47.3,9.5L47.3,9.5 M47.3,8.5c0,0-0.1,0-0.1,0L1.8,13c-0.7,0.1-1.2,0.7-1.2,1.4l2.8,27.9
			C3.5,43,4,43.5,4.7,43.5c0,0,0.1,0,0.1,0L50.2,39c0.7-0.1,1.2-0.7,1.2-1.4L48.6,9.7C48.5,9,48,8.5,47.3,8.5L47.3,8.5z"/>
	</g>
	<path class="st3" d="M34.8,25.2l-14.6-8.4c-0.6-0.4-1.4,0.1-1.4,0.8v16.8c0,0.7,0.8,1.2,1.4,0.8l14.6-8.4
		C35.4,26.4,35.4,25.6,34.8,25.2z"/>
</g>
<g id="Livello_2_00000140711371081897223620000009523073176938799008_">
	<path class="st2" d="M46.5,23.5c0,0.5,0,0.9,0,1.4c0,5.1,0,10.3,0,15.4c0,2.3-1,3.3-3.3,3.3c-11.5,0-22.9,0-34.4,0
		c-2.2,0-3.2-1-3.2-3.2c0-5.3,0-10.6,0-15.9c0-0.5,0.1-1.1-0.7-1.1c-0.1,0-0.4-0.4-0.4-0.7c0-1.7-0.1-3.4,0-5.1
		c0.1-1.9,1.7-3.4,3.7-3.4c2.8,0,5.6,0,8.5,0c0.8,0,1.1-0.2,1-1c-0.1-0.9,0-1.8,0-2.8c0-1.3,0.7-2,2-2c4.2,0,8.4,0,12.7,0
		c1.3,0,2,0.7,2,2.1c0,0.9,0.1,1.8,0,2.7c-0.1,0.8,0.2,1,1,1c2.8-0.1,5.5,0,8.3,0c2.4,0,3.9,1.5,4,3.9c0,1.4,0,2.7,0,4.1
		C47.6,22.9,47.5,23.5,46.5,23.5z M13.5,25.7c-1.2-0.1-1.7-0.6-1.7-1.7c0-0.2-0.4-0.5-0.7-0.5c-1.2-0.1-2.4,0-3.7,0
		c-0.7,0-0.9,0.2-0.9,0.9c0,5.4,0,10.8,0,16.1c0,1.4,0.6,2,1.9,2c10.1,0,20.2,0,30.2,0c0.7,0,0.9-0.2,0.9-0.9c0-2,0-4,0-6
		c0-0.3,0.3-0.6,0.5-0.9c0.2,0.3,0.5,0.6,0.5,0.9c0.1,2,0,3.9,0,5.9c0,0.6,0,1,0.8,1c0.7,0,0.9-0.3,0.9-0.9c0-3.3,0-6.7,0-10
		c0-0.2-0.1-0.5,0-0.7c0.1-0.2,0.3-0.4,0.6-0.4c0.1,0,0.4,0.2,0.5,0.4c0.1,0.2,0.1,0.5,0.1,0.8c0,3.3,0,6.6,0,9.9c0,0.3,0,0.6,0,0.9
		c1.2,0,1.8-0.6,1.8-1.8c0-2.8,0-5.6,0-8.4c0-2.7,0-5.4,0-8c0-0.4,0-0.8-0.6-0.8c-1.4,0-2.7,0-4.1,0c-0.2,0-0.5,0.3-0.5,0.5
		c0.1,1.2-0.5,1.7-1.6,1.8c0,1.3,0,2.5,0,3.7c0,1-0.4,1.4-1.4,1.4c-0.8,0-1.7,0-2.5,0c-1.2,0-1.6-0.4-1.6-1.6c0-1.2,0-2.3,0-3.5
		c-1.2-0.1-1.7-0.6-1.6-1.8c0-0.2-0.4-0.5-0.6-0.5c-3.2,0-6.3,0-9.5,0c-0.2,0-0.6,0.3-0.6,0.5c0.1,1.1-0.4,1.8-1.7,1.8
		c0,1.3,0,2.5,0,3.6c0,1.1-0.4,1.5-1.5,1.5c-0.8,0-1.7,0-2.5,0c-1.1,0-1.5-0.4-1.5-1.5C13.5,28.2,13.5,27,13.5,25.7z M26,15.3
		L26,15.3c-5.8,0-11.6,0-17.5,0c-2,0-3,1-3,3c0,1.1,0,2.2,0,3.3c0,0.6,0.2,0.8,0.8,0.8c1.6,0,3.2,0,4.8,0c0.6,0,0.8-0.2,0.8-0.8
		c0-1.1,0.4-1.5,1.5-1.5c1.9,0,3.8,0,5.7,0c1.1,0,1.5,0.4,1.5,1.4c0,0.7,0.2,0.9,0.9,0.9c3,0,5.9,0,8.9,0c0.6,0,0.9-0.1,0.9-0.8
		c0-1.1,0.4-1.4,1.5-1.4c1.9,0,3.8,0,5.7,0c1.2,0,1.5,0.3,1.6,1.5c0,0.5,0.1,0.8,0.7,0.8c1.7,0,3.3,0,5,0c0.6,0,0.7-0.2,0.7-0.7
		c0-1.1,0-2.2,0-3.3c0-2-1-3-3-3C37.7,15.3,31.8,15.3,26,15.3z M18.8,14.1c2,0.3,2,0.3,2.1-1.5c0-0.9,0.3-1.3,1.3-1.3
		c2.6,0,5.1,0,7.7,0c1,0,1.3,0.3,1.3,1.3c0,1.7,0,1.7,1.7,1.6c0.1,0,0.2,0,0.4-0.1c0-1.1,0-2.3,0-3.4c0-0.8-0.3-1.1-1.1-1.1
		c-1.3,0-2.7,0-4,0c-2.7,0-5.5,0-8.2,0c-0.5,0-1.1,0-1.1,0.7C18.8,11.5,18.8,12.8,18.8,14.1z M19.6,21.2c-2.1,0-4.1,0-6.1,0
		c-0.2,0-0.4,0.2-0.5,0.4c0,0.9,0,1.9,0,2.9c2.1,0,4.1,0,6.1,0c0.2,0,0.4-0.3,0.5-0.5C19.6,23.1,19.6,22.3,19.6,21.2z M38.9,21.2
		c-2.1,0-4.1,0-6.1,0c-0.2,0-0.4,0.4-0.4,0.6c-0.1,0.6,0,1.3,0,1.9c0,0.6,0.2,0.8,0.8,0.8c1,0,2,0,3,0c0.9,0,1.8,0,2.7,0
		C38.9,23.4,38.9,22.3,38.9,21.2z M22,14.1c2.7,0,5.3,0,7.9,0c0-0.6,0-1.2,0-1.7c-2.7,0-5.3,0-7.9,0C22,13,22,13.5,22,14.1z
		 M14.7,25.7c0,1.4,0,2.7,0,4c1.1,0,2.1,0,3.3,0c0-1.2,0-2.4,0-3.6c0-0.2-0.3-0.4-0.5-0.4C16.5,25.6,15.7,25.7,14.7,25.7z
		 M37.4,29.7c0-1.3,0-2.4,0-3.6c0-0.2-0.3-0.4-0.4-0.4c-0.9,0-1.8,0-2.9,0c0,1.3,0,2.4,0,3.6c0,0.2,0.3,0.4,0.5,0.4
		C35.5,29.7,36.4,29.7,37.4,29.7z"/>
</g>
</svg>
