<svg width="34" height="35" viewBox="0 0 34 35" fill="none" xmlns="http://www.w3.org/2000/svg">
<path d="M29.4444 17.3811C29.4444 24.4177 23.8729 30.122 17 30.122M29.4444 17.3811C29.4444 10.3445 23.8729 4.64024 17 4.64024M29.4444 17.3811H33M17 30.122C10.1271 30.122 4.55556 24.4177 4.55556 17.3811M17 30.122V33.7622M4.55556 17.3811C4.55556 10.3445 10.1271 4.64024 17 4.64024M4.55556 17.3811H1M17 4.64024V1M20.5556 17.3811C20.5556 19.3915 18.9637 21.0213 17 21.0213C15.0363 21.0213 13.4444 19.3915 13.4444 17.3811C13.4444 15.3706 15.0363 13.7409 17 13.7409C18.9637 13.7409 20.5556 15.3706 20.5556 17.3811Z" stroke="white" stroke-width="2" stroke-linecap="round"/>
</svg>
