<?xml version="1.0" encoding="utf-8"?>
<!-- Generator: Adobe Illustrator 28.3.0, SVG Export Plug-In . SVG Version: 6.00 Build 0)  -->
<svg version="1.1" xmlns="http://www.w3.org/2000/svg" xmlns:xlink="http://www.w3.org/1999/xlink" x="0px" y="0px"
	 viewBox="0 0 52 52" style="enable-background:new 0 0 52 52;" xml:space="preserve">
<style type="text/css">
	.st0{fill:#FEFEFE;}
	.st1{display:none;}
	.st2{display:inline;fill:#FEFEFE;}
</style>
<g id="Livello_1">
	<g>
		<path class="st0" d="M50.55,24.46c0-1.16-0.44-1.46-1.53-1.05c-2.23,0.83-4.45,1.67-6.68,2.51c-1.73,0.65-3.46,1.29-5.29,1.97
			c-0.02-0.4-0.05-0.67-0.05-0.95c0-1.54,0-3.08,0-4.61c0-1.53-0.11-1.64-1.62-1.64c-1.58,0-3.17,0-4.95,0
			c1.27-1.75,1.74-3.53,1.37-5.48c-0.37-1.99-1.45-3.52-3.18-4.58c-3.14-1.93-6.45-1.08-9.4,2.4c-3.11-3.45-6.09-4.27-9.18-2.55
			c-1.39,0.78-2.42,1.9-3.02,3.37c-0.97,2.38-0.54,4.63,0.87,6.74c-0.17,0.04-0.22,0.07-0.27,0.07c-1.6,0.01-3.19,0.01-4.79,0.02
			c-1.26,0.01-1.4,0.15-1.4,1.4c0,6.94,0,13.87,0,20.81c0,1.34,0.15,1.49,1.51,1.49c10.88,0,21.76,0,32.64,0
			c1.21,0,1.41-0.21,1.41-1.43c0-1.88,0-3.76,0-5.79c0.34,0.11,0.52,0.17,0.71,0.24c3.77,1.41,7.55,2.83,11.32,4.23
			c1.09,0.41,1.52,0.1,1.52-1.07C50.56,35.2,50.56,29.83,50.55,24.46z M22.4,12.17c2.19-1.4,5.01-0.97,6.66,1.03
			c1.65,2,1.54,4.88-0.24,6.74c-0.49,0.51-1.01,0.82-1.75,0.76c-0.66-0.06-1.33-0.01-2-0.01c0,0,0,0,0-0.01
			c-0.41,0-0.82-0.05-1.22,0.01c-1.73,0.28-2.63-0.75-3.3-2.09C19.45,16.33,20.27,13.53,22.4,12.17z M11.64,11.64
			c2.19-0.8,4.71,0.1,5.98,2.12c1.23,1.98,0.96,4.62-0.73,6.22c-0.39,0.37-1.03,0.57-1.58,0.67c-0.65,0.11-1.33,0.03-1.99,0.03
			c0,0,0,0,0,0.01c-0.32,0-0.64,0-0.96,0c-2.44,0-3.81-1.22-4.1-3.67C7.97,14.65,9.35,12.47,11.64,11.64z M35.25,42.65
			c-10.68,0-21.32,0-32.06,0c0-6.77,0-13.46,0-20.23c10.67,0,21.33,0,32.06,0C35.25,29.15,35.25,35.89,35.25,42.65z M48.8,39.74
			c-1.89-0.7-3.73-1.39-5.57-2.08c-1.85-0.69-3.68-1.41-5.54-2.07c-0.52-0.19-0.71-0.45-0.7-1c0.04-1.39-0.02-2.79,0.03-4.18
			c0.01-0.29,0.25-0.75,0.49-0.84c3.65-1.41,7.32-2.77,10.99-4.14c0.08-0.03,0.17-0.03,0.3-0.04C48.8,30.15,48.8,34.89,48.8,39.74z"
			/>
		<path class="st0" d="M12.82,37.66c2.12,0.01,4.24,0,6.35,0c2.15,0,4.29,0.01,6.44,0c0.98,0,1.23-0.25,1.23-1.24
			c0.01-2.61,0.01-5.22,0-7.83c0-0.94-0.27-1.21-1.18-1.21c-4.29-0.01-8.59-0.01-12.88,0c-0.9,0-1.19,0.3-1.2,1.21
			c-0.01,2.61-0.01,5.22,0,7.83C11.59,37.4,11.84,37.65,12.82,37.66z"/>
		<path class="st0" d="M5.67,37.63c0.68,0,0.84-0.48,0.84-1.07c0-2.67,0-5.33,0-8c0-0.89,0-1.79,0-2.8c0.88,0,1.64,0.01,2.39,0
			c0.56-0.01,0.98-0.26,0.98-0.87c-0.01-0.61-0.43-0.83-1-0.83c-0.99,0-1.97,0.01-2.96,0c-0.77-0.01-1.11,0.37-1.11,1.12
			c0,3.8,0,7.59,0.01,11.39C4.82,37.14,4.99,37.63,5.67,37.63z"/>
	</g>
</g>
<g id="Livello_2" class="st1">
	<path class="st2" d="M49.95,23.07c0,0.61,0,1.1,0,1.58c0,6.02,0,12.03,0,18.05c0,2.71-1.16,3.86-3.87,3.86
		c-13.42,0-26.84,0-40.27,0c-2.57,0-3.76-1.18-3.76-3.76c0-6.19,0-12.38,0.01-18.57c0-0.63,0.1-1.27-0.85-1.32
		c-0.16-0.01-0.43-0.52-0.43-0.8c-0.03-1.98-0.07-3.97,0.01-5.95c0.08-2.28,1.98-3.99,4.38-4c3.3-0.02,6.61-0.04,9.91,0.02
		c0.92,0.01,1.24-0.25,1.17-1.17c-0.08-1.07-0.04-2.16-0.01-3.23c0.03-1.48,0.87-2.31,2.36-2.32c4.94-0.01,9.88-0.02,14.81,0
		c1.55,0,2.35,0.83,2.38,2.4c0.02,1.04,0.06,2.09-0.01,3.13c-0.06,0.9,0.21,1.21,1.15,1.19c3.23-0.06,6.47-0.03,9.7-0.02
		c2.86,0.01,4.61,1.75,4.63,4.61c0.01,1.6-0.03,3.2,0.01,4.8C51.28,22.43,51.18,23.12,49.95,23.07z M11.4,25.68
		c-1.36-0.06-1.98-0.68-1.94-2c0.01-0.22-0.49-0.63-0.77-0.64c-1.42-0.07-2.85,0-4.28-0.05c-0.83-0.03-1.06,0.28-1.05,1.09
		c0.03,6.3,0.01,12.59,0.02,18.89c0,1.64,0.65,2.31,2.26,2.31c11.79,0.01,23.58,0,35.37,0.02c0.77,0,1.03-0.23,1.02-1.01
		C42,41.96,42,39.63,42.06,37.3c0.01-0.37,0.39-0.74,0.6-1.11c0.22,0.37,0.61,0.74,0.62,1.11c0.06,2.29,0.04,4.59,0.02,6.89
		c0,0.65-0.01,1.13,0.9,1.13c0.85,0,1.05-0.3,1.05-1.1c-0.03-3.9-0.02-7.79-0.01-11.69c0-0.28-0.07-0.6,0.05-0.82
		c0.12-0.23,0.4-0.48,0.65-0.52c0.17-0.02,0.48,0.27,0.56,0.48c0.11,0.28,0.07,0.62,0.07,0.93c0,3.86,0,7.72,0,11.58
		c0,0.33,0,0.66,0,1c1.43-0.05,2.05-0.69,2.05-2.05c0.02-3.27,0.01-6.54,0.01-9.81c0-3.13,0-6.26,0-9.39c0-0.47,0.03-0.93-0.66-0.92
		c-1.6,0.01-3.2-0.02-4.8,0.03c-0.23,0.01-0.64,0.39-0.63,0.57c0.09,1.35-0.53,2.03-1.93,2.06c0,1.52,0.02,2.95-0.01,4.37
		c-0.02,1.16-0.5,1.61-1.67,1.63c-0.97,0.01-1.95,0.01-2.92,0c-1.43-0.01-1.85-0.43-1.86-1.87c-0.01-1.35,0-2.7,0-4.09
		c-1.35-0.11-2.01-0.72-1.93-2.05c0.01-0.2-0.44-0.62-0.68-0.62c-3.69-0.04-7.37-0.04-11.06,0c-0.23,0-0.66,0.37-0.65,0.55
		c0.07,1.33-0.49,2.07-1.94,2.06c0,1.5,0.01,2.88,0,4.27c-0.01,1.3-0.46,1.73-1.77,1.75c-0.97,0.01-1.95,0.01-2.92,0
		c-1.29-0.01-1.75-0.47-1.76-1.77C11.4,28.52,11.4,27.13,11.4,25.68z M26.02,13.48C26.02,13.48,26.02,13.48,26.02,13.48
		c-6.82-0.01-13.63-0.01-20.45-0.01c-2.36,0-3.53,1.15-3.55,3.51c-0.01,1.29,0.02,2.57-0.01,3.86c-0.02,0.68,0.24,0.91,0.92,0.9
		c1.88-0.04,3.76-0.04,5.63,0c0.73,0.01,0.96-0.24,0.96-0.96c0.01-1.29,0.49-1.71,1.81-1.71c2.23-0.01,4.45-0.01,6.68,0
		c1.24,0.01,1.73,0.44,1.73,1.67c0,0.78,0.28,1.01,1.04,1c3.48-0.03,6.95-0.03,10.43,0c0.73,0.01,1.06-0.17,1.06-0.98
		c-0.01-1.26,0.47-1.69,1.7-1.69c2.23-0.01,4.45-0.01,6.68,0c1.38,0.01,1.78,0.39,1.83,1.79c0.02,0.6,0.17,0.89,0.83,0.88
		c1.95-0.03,3.89-0.03,5.84,0c0.65,0.01,0.85-0.26,0.84-0.87c-0.03-1.29,0-2.57-0.01-3.86c-0.01-2.36-1.17-3.53-3.52-3.53
		C39.65,13.48,32.83,13.48,26.02,13.48z M17.56,12.05c2.38,0.31,2.38,0.31,2.43-1.79c0.02-1.11,0.39-1.51,1.51-1.52
		c2.99-0.02,5.97-0.02,8.96,0c1.19,0.01,1.53,0.38,1.56,1.57c0.04,1.97,0.04,1.97,2.02,1.83c0.1-0.01,0.2-0.05,0.44-0.11
		c0-1.31-0.02-2.66,0.01-4c0.02-0.93-0.39-1.32-1.31-1.31c-1.56,0.02-3.13,0-4.69,0c-3.19,0-6.39,0-9.58,0
		c-0.6,0-1.29,0.01-1.32,0.82C17.52,9.03,17.56,10.52,17.56,12.05z M18.48,20.4c-2.49,0-4.82-0.01-7.14,0.02
		c-0.19,0-0.52,0.29-0.53,0.46c-0.05,1.1-0.02,2.2-0.02,3.39c2.49,0,4.81,0.01,7.14-0.03c0.19,0,0.52-0.36,0.53-0.56
		C18.51,22.65,18.48,21.62,18.48,20.4z M41.15,20.4c-2.42,0-4.77-0.02-7.12,0.03c-0.18,0-0.48,0.44-0.5,0.69
		c-0.07,0.76,0.01,1.52-0.04,2.28c-0.04,0.7,0.26,0.9,0.92,0.88c1.18-0.04,2.36-0.01,3.53-0.01c1.06,0,2.11,0,3.2,0
		C41.15,22.9,41.15,21.71,41.15,20.4z M21.36,12.08c3.18,0,6.22,0,9.25,0c0-0.72,0-1.36,0-1.98c-3.14,0-6.18,0-9.25,0
		C21.36,10.8,21.36,11.41,21.36,12.08z M12.77,25.61c0,1.61,0,3.11,0,4.67c1.27,0,2.46,0,3.82,0c0-1.41,0.02-2.79-0.03-4.16
		c-0.01-0.18-0.38-0.48-0.6-0.49C14.92,25.58,13.89,25.61,12.77,25.61z M39.31,30.34c0-1.47,0.02-2.84-0.02-4.21
		c-0.01-0.18-0.32-0.48-0.49-0.49c-1.06-0.05-2.13-0.02-3.35-0.02c0,1.47-0.02,2.84,0.03,4.21c0.01,0.18,0.38,0.48,0.6,0.49
		C37.09,30.37,38.12,30.34,39.31,30.34z"/>
</g>
</svg>
