<svg width="62" height="53" viewBox="0 0 62 53" fill="none" xmlns="http://www.w3.org/2000/svg">
<path d="M30.8423 39.1776C38.4645 39.1776 44.6435 33.0086 44.6435 25.3986C44.6435 17.7887 38.4645 11.6196 30.8423 11.6196C23.22 11.6196 17.041 17.7887 17.041 25.3986C17.041 33.0086 23.22 39.1776 30.8423 39.1776Z" fill="#063062"/>
<g clip-path="url(#clip0_683_7045)">
<path d="M28.8166 25.3386C30.055 25.337 31.2922 25.2656 32.5306 25.3008C35.0518 25.3722 37.5742 25.3392 40.0954 25.3301C40.9498 25.3269 41.8048 25.2981 42.6604 25.2976C42.9778 25.2976 43.0246 25.3381 42.991 25.6146C42.949 25.9604 42.757 26.2412 42.472 26.4735C42.376 26.5518 42.2572 26.5758 42.127 26.5806C41.3002 26.6094 40.474 26.6467 39.6478 26.6717C37.9756 26.7223 36.3034 26.7708 34.6312 26.8124C33.6166 26.838 32.6014 26.8353 31.5874 26.8694C30.1732 26.9168 28.759 26.9456 27.3436 26.9658C25.9462 26.9861 24.5494 27.0431 23.1526 27.0777C22.468 27.0948 21.7834 27.0964 21.0982 27.1092C20.8948 27.1129 20.7844 27.057 20.7838 26.855C20.782 26.4479 20.5024 26.148 20.2516 25.8411C19.9006 25.4116 19.4878 25.0269 19.0954 24.6279C18.97 24.5005 18.943 24.4483 19.1704 24.4233C19.9228 24.3407 20.677 24.2986 21.4342 24.297C21.8038 24.2965 21.7786 24.2927 21.8122 23.9645C21.8722 23.38 21.8566 22.7955 21.8656 22.211C21.8668 22.1204 21.8518 21.9931 22.006 21.9995C22.135 22.0048 22.1248 22.122 22.1254 22.2068C22.129 22.5472 22.1194 22.8877 22.1302 23.2276C22.1398 23.5271 22.1746 23.826 22.1914 24.1254C22.2004 24.281 22.3144 24.2927 22.4488 24.3002C23.2576 24.3455 24.0646 24.4057 24.8638 24.5336C25.2094 24.589 25.5556 24.655 25.8316 24.8527C26.389 25.2507 27.0454 25.3184 27.7198 25.3365C28.0852 25.3461 28.4506 25.3381 28.816 25.3381L28.8166 25.3386Z" fill="#F6F6F6"/>
<path d="M41.6659 26.8161C41.2495 27.0213 40.8019 27.0815 40.3579 27.1401C39.1861 27.2951 38.0059 27.3756 36.8239 27.4422C35.2075 27.5328 33.5905 27.6052 31.9735 27.6814C30.9253 27.731 29.8771 27.7746 28.8283 27.821C27.4417 27.8823 26.0545 27.9164 24.6673 27.9681C23.4823 28.0123 22.2985 27.9894 21.1141 28C20.9467 28.0016 20.7685 28.0048 20.7985 27.7874C20.8231 27.6084 20.6713 27.3564 21.0583 27.3186C21.4681 27.2786 21.8773 27.2999 22.2865 27.2903C24.1009 27.2477 25.9153 27.2067 27.7297 27.1688C28.4407 27.1545 29.1529 27.1678 29.8633 27.139C31.1263 27.0879 32.3905 27.0681 33.6541 27.0415C34.8283 27.017 36.0025 26.9893 37.1761 26.9546C38.5717 26.9131 39.9667 26.8625 41.3623 26.8161C41.4631 26.8129 41.5639 26.8161 41.6653 26.8161H41.6659Z" fill="#F6F6F6"/>
<path d="M36.2435 23.6177C36.2135 23.4376 36.3149 23.371 36.4991 23.3209C36.9953 23.1856 37.5005 23.1946 38.0081 23.1967C38.2313 23.1978 38.2403 23.3209 38.2409 23.4663C38.2415 23.6134 38.2277 23.7365 38.0063 23.7338C37.4813 23.728 36.9575 23.7194 36.4433 23.8537C36.1997 23.9171 36.2621 23.7269 36.2441 23.6171L36.2435 23.6177Z" fill="#F6F6F6"/>
<path d="M39.663 23.9111C39.8358 23.9111 39.9336 23.9106 40.0314 23.9111C40.3806 23.9133 40.4088 23.9479 40.3908 24.2543C40.3824 24.3997 40.3068 24.4488 40.1574 24.4472C39.633 24.4424 39.108 24.429 38.5986 24.5766C38.4804 24.6107 38.4036 24.5574 38.4006 24.4488C38.397 24.298 38.3328 24.1147 38.583 24.0603C38.9622 23.9772 39.3372 23.8648 39.663 23.9117V23.9111Z" fill="#F6F6F6"/>
<path d="M36.051 23.4669C36.0852 23.6678 35.9838 23.7392 35.7648 23.7365C35.2848 23.7307 34.8024 23.7067 34.335 23.8452C34.227 23.8772 34.0842 23.9166 34.0662 23.7573C34.0506 23.6177 33.9756 23.4355 34.1928 23.3636C34.7466 23.1813 35.325 23.1691 35.9058 23.208C36.0894 23.2202 36.039 23.3657 36.0504 23.4664L36.051 23.4669Z" fill="#F6F6F6"/>
<path d="M36.052 24.1803C36.0856 24.3801 35.9872 24.4526 35.767 24.4499C35.287 24.444 34.8046 24.419 34.3372 24.558C34.2292 24.5906 34.0864 24.6294 34.0684 24.4712C34.0522 24.3316 33.9778 24.1494 34.195 24.0775C34.7488 23.8947 35.3272 23.8819 35.908 23.9213C36.091 23.9336 36.0418 24.0785 36.0526 24.1798L36.052 24.1803Z" fill="#F6F6F6"/>
<path d="M37.5074 23.9113C37.6814 23.9113 37.7798 23.9113 37.8776 23.9113C38.2202 23.9134 38.2634 23.9603 38.2394 24.2555C38.228 24.3983 38.1518 24.4494 38.0012 24.4478C37.4762 24.4425 36.95 24.4292 36.4394 24.572C36.341 24.5997 36.2492 24.5752 36.2504 24.4681C36.2528 24.3151 36.1526 24.1153 36.4262 24.0573C36.8066 23.9768 37.1822 23.8628 37.5074 23.9113Z" fill="#F6F6F6"/>
<path d="M35.3253 24.6247C35.5035 24.6247 35.6103 24.6236 35.7171 24.6247C36.0249 24.6279 36.1527 24.8 36.0423 25.0568C36.0015 25.1522 35.9139 25.1569 35.8251 25.1575C35.3373 25.1591 34.8501 25.1468 34.3683 25.2507C34.2363 25.2795 34.0725 25.2816 34.0557 25.0893C34.0413 24.922 34.0737 24.8 34.2945 24.7579C34.6587 24.6891 35.0157 24.581 35.3253 24.6241V24.6247Z" fill="#F6F6F6"/>
<path d="M39.6868 24.6248C39.853 24.6248 39.9508 24.6242 40.048 24.6248C40.3744 24.628 40.393 24.6525 40.3918 24.9338C40.3912 25.0942 40.324 25.1608 40.1416 25.1613C39.682 25.1624 39.2218 25.1384 38.767 25.2476C38.6344 25.2796 38.431 25.319 38.3968 25.0958C38.3668 24.8986 38.4442 24.7926 38.6788 24.7489C39.0352 24.6828 39.385 24.5912 39.6856 24.6253L39.6868 24.6248Z" fill="#F6F6F6"/>
<path d="M37.5337 24.6247C37.6951 24.6247 37.7929 24.6242 37.8907 24.6247C38.2207 24.6274 38.2723 24.685 38.2393 24.978C38.2249 25.1064 38.1571 25.1576 38.0173 25.1592C37.5307 25.164 37.0423 25.1362 36.5617 25.2503C36.4381 25.2796 36.2617 25.295 36.2443 25.0979C36.2305 24.938 36.2395 24.8043 36.4687 24.7601C36.8419 24.6881 37.2079 24.5832 37.5337 24.6242V24.6247Z" fill="#F6F6F6"/>
<path d="M31.598 24.2629C31.6034 24.3812 31.5854 24.5165 31.3634 24.4968C30.5384 24.4244 29.7632 24.6508 28.9754 24.8043C28.8692 24.825 28.7282 24.9177 28.6604 24.751C28.5854 24.5672 28.6682 24.3626 28.8488 24.3242C29.6492 24.1521 30.4352 23.9006 31.2818 23.9635C31.5578 23.9837 31.5974 24.0045 31.5986 24.2635L31.598 24.2629ZM28.9766 24.7009C29.3744 24.6156 29.8166 24.5229 30.257 24.4244C30.3716 24.3988 30.3578 24.3066 30.3518 24.2272C30.347 24.1606 30.3026 24.1196 30.2288 24.135C29.7782 24.2299 29.3276 24.3247 28.88 24.4286C28.7744 24.4531 28.7732 24.5469 28.7894 24.6284C28.8032 24.6977 28.8638 24.7094 28.9772 24.7004L28.9766 24.7009Z" fill="#F6F6F6"/>
<path d="M33.8952 22.7482C33.912 22.9213 33.852 23.0375 33.6324 23.0183C32.8158 22.9485 32.046 23.1616 31.2666 23.3193C31.1526 23.3423 30.9978 23.4153 30.9684 23.241C30.9426 23.0876 30.8748 22.8856 31.1424 22.8318C31.9548 22.6677 32.7498 22.413 33.6072 22.4786C33.8274 22.4951 33.918 22.5622 33.8952 22.7482ZM32.5266 22.6389C32.0772 22.738 31.6266 22.834 31.179 22.9389C31.0512 22.9688 31.0722 23.0748 31.092 23.1584C31.113 23.2463 31.1928 23.2266 31.2648 23.2117C31.4466 23.1734 31.629 23.1366 31.8114 23.0982C32.0454 23.0487 32.2794 22.9991 32.5128 22.9485C32.6484 22.9192 32.6604 22.8276 32.6544 22.7258C32.6502 22.6501 32.601 22.6336 32.526 22.6389H32.5266Z" fill="#F6F6F6"/>
<path d="M33.1738 23.1973C33.3442 23.1973 33.4516 23.2037 33.5578 23.1958C33.7858 23.1787 33.904 23.241 33.904 23.4696C33.904 23.7067 33.766 23.7472 33.5482 23.7344C32.992 23.7025 32.4472 23.7611 31.912 23.8991C31.6684 23.9614 31.4158 23.9214 31.1674 23.9278C31.0588 23.9305 30.9736 23.9028 30.9598 23.7898C30.946 23.6742 30.9814 23.5858 31.1218 23.5543C31.372 23.4984 31.6216 23.4382 31.873 23.3876C32.323 23.297 32.7622 23.1446 33.1738 23.1973ZM31.4734 23.8101C31.8616 23.8442 32.1784 23.7232 32.5072 23.6668C32.6464 23.6428 32.6722 23.5554 32.6482 23.4536C32.6182 23.3258 32.506 23.3604 32.4136 23.3796C32.1034 23.4451 31.792 23.5074 31.486 23.5852C31.3528 23.6193 31.1032 23.5868 31.1242 23.7392C31.1452 23.8959 31.3822 23.7797 31.4734 23.8101Z" fill="#F6F6F6"/>
<path d="M29.509 25.2581C29.308 25.2581 29.077 25.2591 28.846 25.2575C28.7752 25.257 28.6942 25.2543 28.6828 25.1707C28.672 25.0908 28.741 25.0609 28.813 25.046C29.6488 24.8718 30.4684 24.6155 31.3498 24.6805C31.5772 24.697 31.5994 24.8073 31.6 24.965C31.6 25.1227 31.5568 25.2266 31.3462 25.2138C30.742 25.1771 30.1426 25.2858 29.5084 25.2591L29.509 25.2581ZM28.987 25.1131C28.9888 25.1233 28.9906 25.1334 28.9924 25.1435C29.389 25.1435 29.7862 25.1435 30.1828 25.1435C30.325 25.1435 30.364 25.0678 30.355 24.9565C30.3472 24.8638 30.2944 24.8323 30.1942 24.8537C29.7916 24.9405 29.389 25.0268 28.987 25.1131Z" fill="#F6F6F6"/>
<path d="M33.1942 23.9113C33.3508 23.9113 33.4486 23.9107 33.5464 23.9113C33.8674 23.9145 33.9358 23.9891 33.8956 24.2677C33.877 24.3945 33.8062 24.45 33.6682 24.4457C33.0886 24.4286 32.5144 24.4521 31.9546 24.6029C31.8526 24.6306 31.7662 24.6082 31.7662 24.5022C31.7662 24.3476 31.6774 24.1537 31.9438 24.0898C32.3728 23.9869 32.7994 23.8697 33.1942 23.9107V23.9113ZM32.014 24.4856C32.1952 24.4468 32.3782 24.4143 32.5564 24.3663C32.6626 24.3381 32.6596 24.248 32.6488 24.167C32.6398 24.0988 32.5864 24.0679 32.5174 24.0812C32.3356 24.1153 32.1532 24.1505 31.9756 24.199C31.8694 24.2283 31.8826 24.3221 31.885 24.4009C31.8874 24.4777 31.9414 24.4904 32.014 24.4851V24.4856Z" fill="#F6F6F6"/>
<path d="M32.1678 25.2663C31.956 25.2487 31.7814 25.3004 31.7586 25.0899C31.7382 24.904 31.8336 24.8256 32.0286 24.7771C32.5476 24.6487 33.072 24.6056 33.609 24.6205C33.8334 24.6269 33.9018 24.7084 33.9018 24.8938C33.9018 25.0814 33.8286 25.1693 33.6054 25.1613C33.0996 25.1437 32.5944 25.1517 32.1678 25.2657V25.2663ZM32.2032 25.1533C32.3052 25.1331 32.4264 25.1149 32.544 25.0846C32.6664 25.0531 32.6652 24.9594 32.6472 24.8725C32.6268 24.775 32.5392 24.7846 32.4594 24.8006C32.3478 24.823 32.2368 24.8485 32.1264 24.8746C32.019 24.9002 31.8708 24.9045 31.8978 25.0478C31.926 25.1954 32.0802 25.1256 32.2026 25.1528L32.2032 25.1533Z" fill="#F6F6F6"/>
</g>
<defs>
<clipPath id="clip0_683_7045">
<rect width="24" height="6" fill="white" transform="translate(19 22)"/>
</clipPath>
</defs>
</svg>
