<svg width="62" height="53" viewBox="0 0 62 53" fill="none" xmlns="http://www.w3.org/2000/svg">
<path d="M30.8423 39.1776C38.4645 39.1776 44.6435 33.0086 44.6435 25.3986C44.6435 17.7887 38.4645 11.6196 30.8423 11.6196C23.22 11.6196 17.041 17.7887 17.041 25.3986C17.041 33.0086 23.22 39.1776 30.8423 39.1776Z" fill="#063062"/>
<g clip-path="url(#clip0_683_7038)">
<path d="M41.1717 26.8659C39.8145 26.2563 38.4777 25.6186 37.1127 25.0505C34.9335 24.1434 32.7021 23.396 30.3639 23.0369C28.7799 22.7937 27.1965 22.7108 25.6503 23.2698C25.3269 23.3869 25.0233 23.5618 24.7107 23.71L24.7347 23.8057C25.4079 23.8788 26.0823 23.9459 26.7549 24.0263C30.1773 24.4336 33.5769 24.9694 36.9201 25.8375C37.3287 25.9436 37.6503 26.1411 37.8657 26.5111C38.0961 26.9086 38.4651 27.0799 38.8881 27.1872C40.1841 27.5145 41.4765 27.8553 42.7695 28.1918C42.8415 28.2107 42.9117 28.2393 43.0011 28.2698C42.8943 28.5649 42.7467 28.8081 42.5601 29.0062C42.2265 29.3604 41.8461 29.4963 41.6805 29.5537C39.8229 30.1919 35.0649 29.9584 35.0649 29.9584C34.5123 29.9316 33.3531 29.9273 31.0347 29.9188C31.0347 29.9188 29.5257 29.9133 25.3707 29.4768C25.3041 29.4695 25.1229 29.5049 24.9663 29.3817C24.6543 29.1361 24.3687 28.8563 24.0567 28.5765C27.6567 27.3121 31.1703 27.9522 34.6719 28.9556C34.6773 28.9245 34.6821 28.8934 34.6875 28.863C34.0377 28.6734 33.3897 28.4783 32.7381 28.2954C30.8349 27.7614 28.9053 27.3743 26.9211 27.5316C25.8909 27.6133 24.8685 27.8102 23.8485 27.9894C23.5845 28.0357 23.3913 28.0357 23.2017 27.8285C23.0451 27.6572 22.8573 27.5151 22.6335 27.3152C26.2251 26.1551 29.7681 26.1386 33.3195 27.3347C33.3261 27.2957 33.3333 27.2567 33.3399 27.217C32.5005 26.9555 31.6713 26.6501 30.8193 26.441C27.9603 25.7393 25.1055 25.821 22.2711 26.6019C22.0071 26.6745 21.8367 26.6361 21.6249 26.4617C20.8617 25.8338 20.0811 25.2279 19.2969 24.6274C19.1049 24.4805 18.9609 24.3342 19.0095 24.0757C19.0599 23.8075 19.2675 23.7032 19.4949 23.6972C20.4867 23.6691 21.4797 23.6398 22.4715 23.6533C23.1219 23.6618 23.7705 23.7471 24.4209 23.7837C24.5121 23.7886 24.6423 23.741 24.6951 23.6715C25.4973 22.609 26.6151 22.1603 27.8685 22.0006C28.2525 21.9518 29.3121 21.2788 33.5439 22.8778C35.4789 23.6088 38.1681 24.8225 41.1711 26.8671L41.1717 26.8659Z" fill="#F6F6F6"/>
<path d="M28.6172 21.7458C29.192 21.1697 29.8898 20.8966 30.6602 20.793C31.9664 20.6162 33.2072 20.9149 34.418 21.3727C36.6026 22.1988 38.5226 23.4905 40.3706 24.9042C40.802 25.2346 41.225 25.5766 41.618 25.9716C41.5454 25.9259 41.4716 25.882 41.4002 25.8345C39.0938 24.3238 36.701 22.9858 34.0898 22.0915C32.7962 21.6483 31.4738 21.3337 30.0956 21.4593C29.6084 21.5038 29.129 21.6434 28.6172 21.7458Z" fill="#F6F6F6"/>
<path d="M41.5528 24.7367C41.0176 24.3325 40.4914 23.9161 39.9454 23.5272C38.3788 22.4098 36.7588 21.3869 34.918 20.7901C33.9502 20.4761 32.968 20.3036 31.957 20.6108C32.5702 20.0921 33.2884 19.9482 34.0558 20.0159C35.5216 20.1451 36.7726 20.8279 37.9678 21.6325C39.2518 22.497 40.3978 23.5339 41.5018 24.6196C41.5294 24.6471 41.5522 24.6788 41.5774 24.7086C41.569 24.7178 41.5606 24.7275 41.5522 24.7367H41.5528Z" fill="#F6F6F6"/>
</g>
<defs>
<clipPath id="clip0_683_7038">
<rect width="24" height="10" fill="white" transform="translate(19 20)"/>
</clipPath>
</defs>
</svg>
