<?xml version="1.0" encoding="UTF-8" standalone="no"?>
<svg
   width="27.602501"
   height="27.558001"
   viewBox="0 0 27.602501 27.558001"
   fill="none"
   version="1.1"
   id="svg43"
   xmlns="http://www.w3.org/2000/svg"
   xmlns:svg="http://www.w3.org/2000/svg">
  <path
     d="m 13.8013,27.558 c 7.6222,0 13.8012,-6.169 13.8012,-13.779 C 27.6025,6.1690997 21.4235,-2.9602051e-7 13.8013,-2.9602051e-7 6.1789996,-2.9602051e-7 -3.6621093e-7,6.1690997 -3.6621093e-7,13.779 -3.6621093e-7,21.389 6.1789996,27.558 13.8013,27.558 Z"
     fill="#063062"
     id="path2" />
  <g
     clip-path="url(#clip0_683_7045)"
     id="g36"
     transform="translate(-17.041,-11.6196)">
    <path
       d="m 28.8166,25.3386 c 1.2384,-0.0016 2.4756,-0.073 3.714,-0.0378 2.5212,0.0714 5.0436,0.0384 7.5648,0.0293 0.8544,-0.0032 1.7094,-0.032 2.565,-0.0325 0.3174,0 0.3642,0.0405 0.3306,0.317 -0.042,0.3458 -0.234,0.6266 -0.519,0.8589 -0.096,0.0783 -0.2148,0.1023 -0.345,0.1071 -0.8268,0.0288 -1.653,0.0661 -2.4792,0.0911 -1.6722,0.0506 -3.3444,0.0991 -5.0166,0.1407 -1.0146,0.0256 -2.0298,0.0229 -3.0438,0.057 -1.4142,0.0474 -2.8284,0.0762 -4.2438,0.0964 -1.3974,0.0203 -2.7942,0.0773 -4.191,0.1119 -0.6846,0.0171 -1.3692,0.0187 -2.0544,0.0315 -0.2034,0.0037 -0.3138,-0.0522 -0.3144,-0.2542 -0.0018,-0.4071 -0.2814,-0.707 -0.5322,-1.0139 -0.351,-0.4295 -0.7638,-0.8142 -1.1562,-1.2132 -0.1254,-0.1274 -0.1524,-0.1796 0.075,-0.2046 0.7524,-0.0826 1.5066,-0.1247 2.2638,-0.1263 0.3696,-5e-4 0.3444,-0.0043 0.378,-0.3325 0.06,-0.5845 0.0444,-1.169 0.0534,-1.7535 0.0012,-0.0906 -0.0138,-0.2179 0.1404,-0.2115 0.129,0.0053 0.1188,0.1225 0.1194,0.2073 0.0036,0.3404 -0.006,0.6809 0.0048,1.0208 0.0096,0.2995 0.0444,0.5984 0.0612,0.8978 0.009,0.1556 0.123,0.1673 0.2574,0.1748 0.8088,0.0453 1.6158,0.1055 2.415,0.2334 0.3456,0.0554 0.6918,0.1214 0.9678,0.3191 0.5574,0.398 1.2138,0.4657 1.8882,0.4838 0.3654,0.0096 0.7308,0.0016 1.0962,0.0016 z"
       fill="#f6f6f6"
       id="path4" />
    <path
       d="m 41.6659,26.8161 c -0.4164,0.2052 -0.864,0.2654 -1.308,0.324 -1.1718,0.155 -2.352,0.2355 -3.534,0.3021 -1.6164,0.0906 -3.2334,0.163 -4.8504,0.2392 -1.0482,0.0496 -2.0964,0.0932 -3.1452,0.1396 -1.3866,0.0613 -2.7738,0.0954 -4.161,0.1471 -1.185,0.0442 -2.3688,0.0213 -3.5532,0.0319 -0.1674,0.0016 -0.3456,0.0048 -0.3156,-0.2126 0.0246,-0.179 -0.1272,-0.431 0.2598,-0.4688 0.4098,-0.04 0.819,-0.0187 1.2282,-0.0283 1.8144,-0.0426 3.6288,-0.0836 5.4432,-0.1215 0.711,-0.0143 1.4232,-0.001 2.1336,-0.0298 1.263,-0.0511 2.5272,-0.0709 3.7908,-0.0975 1.1742,-0.0245 2.3484,-0.0522 3.522,-0.0869 1.3956,-0.0415 2.7906,-0.0921 4.1862,-0.1385 0.1008,-0.0032 0.2016,0 0.303,0 z"
       fill="#f6f6f6"
       id="path6" />
    <path
       d="m 36.2435,23.6177 c -0.03,-0.1801 0.0714,-0.2467 0.2556,-0.2968 0.4962,-0.1353 1.0014,-0.1263 1.509,-0.1242 0.2232,0.0011 0.2322,0.1242 0.2328,0.2696 6e-4,0.1471 -0.0132,0.2702 -0.2346,0.2675 -0.525,-0.0058 -1.0488,-0.0144 -1.563,0.1199 -0.2436,0.0634 -0.1812,-0.1268 -0.1992,-0.2366 z"
       fill="#f6f6f6"
       id="path8" />
    <path
       d="m 39.663,23.9111 c 0.1728,0 0.2706,-5e-4 0.3684,0 0.3492,0.0022 0.3774,0.0368 0.3594,0.3432 -0.0084,0.1454 -0.084,0.1945 -0.2334,0.1929 -0.5244,-0.0048 -1.0494,-0.0182 -1.5588,0.1294 -0.1182,0.0341 -0.195,-0.0192 -0.198,-0.1278 -0.0036,-0.1508 -0.0678,-0.3341 0.1824,-0.3885 0.3792,-0.0831 0.7542,-0.1955 1.08,-0.1486 z"
       fill="#f6f6f6"
       id="path10" />
    <path
       d="m 36.051,23.4669 c 0.0342,0.2009 -0.0672,0.2723 -0.2862,0.2696 -0.48,-0.0058 -0.9624,-0.0298 -1.4298,0.1087 -0.108,0.032 -0.2508,0.0714 -0.2688,-0.0879 -0.0156,-0.1396 -0.0906,-0.3218 0.1266,-0.3937 0.5538,-0.1823 1.1322,-0.1945 1.713,-0.1556 0.1836,0.0122 0.1332,0.1577 0.1446,0.2584 z"
       fill="#f6f6f6"
       id="path12" />
    <path
       d="m 36.052,24.1803 c 0.0336,0.1998 -0.0648,0.2723 -0.285,0.2696 -0.48,-0.0059 -0.9624,-0.0309 -1.4298,0.1081 -0.108,0.0326 -0.2508,0.0714 -0.2688,-0.0868 -0.0162,-0.1396 -0.0906,-0.3218 0.1266,-0.3937 0.5538,-0.1828 1.1322,-0.1956 1.713,-0.1562 0.183,0.0123 0.1338,0.1572 0.1446,0.2585 z"
       fill="#f6f6f6"
       id="path14" />
    <path
       d="m 37.5074,23.9113 c 0.174,0 0.2724,0 0.3702,0 0.3426,0.0021 0.3858,0.049 0.3618,0.3442 -0.0114,0.1428 -0.0876,0.1939 -0.2382,0.1923 -0.525,-0.0053 -1.0512,-0.0186 -1.5618,0.1242 -0.0984,0.0277 -0.1902,0.0032 -0.189,-0.1039 0.0024,-0.153 -0.0978,-0.3528 0.1758,-0.4108 0.3804,-0.0805 0.756,-0.1945 1.0812,-0.146 z"
       fill="#f6f6f6"
       id="path16" />
    <path
       d="m 35.3253,24.6247 c 0.1782,0 0.285,-0.0011 0.3918,0 0.3078,0.0032 0.4356,0.1753 0.3252,0.4321 -0.0408,0.0954 -0.1284,0.1001 -0.2172,0.1007 -0.4878,0.0016 -0.975,-0.0107 -1.4568,0.0932 -0.132,0.0288 -0.2958,0.0309 -0.3126,-0.1614 -0.0144,-0.1673 0.018,-0.2893 0.2388,-0.3314 0.3642,-0.0688 0.7212,-0.1769 1.0308,-0.1338 z"
       fill="#f6f6f6"
       id="path18" />
    <path
       d="m 39.6868,24.6248 c 0.1662,0 0.264,-6e-4 0.3612,0 0.3264,0.0032 0.345,0.0277 0.3438,0.309 -6e-4,0.1604 -0.0678,0.227 -0.2502,0.2275 -0.4596,0.0011 -0.9198,-0.0229 -1.3746,0.0863 -0.1326,0.032 -0.336,0.0714 -0.3702,-0.1518 -0.03,-0.1972 0.0474,-0.3032 0.282,-0.3469 0.3564,-0.0661 0.7062,-0.1577 1.0068,-0.1236 z"
       fill="#f6f6f6"
       id="path20" />
    <path
       d="m 37.5337,24.6247 c 0.1614,0 0.2592,-5e-4 0.357,0 0.33,0.0027 0.3816,0.0603 0.3486,0.3533 -0.0144,0.1284 -0.0822,0.1796 -0.222,0.1812 -0.4866,0.0048 -0.975,-0.023 -1.4556,0.0911 -0.1236,0.0293 -0.3,0.0447 -0.3174,-0.1524 -0.0138,-0.1599 -0.0048,-0.2936 0.2244,-0.3378 0.3732,-0.072 0.7392,-0.1769 1.065,-0.1359 z"
       fill="#f6f6f6"
       id="path22" />
    <path
       d="m 31.598,24.2629 c 0.0054,0.1183 -0.0126,0.2536 -0.2346,0.2339 -0.825,-0.0724 -1.6002,0.154 -2.388,0.3075 -0.1062,0.0207 -0.2472,0.1134 -0.315,-0.0533 -0.075,-0.1838 0.0078,-0.3884 0.1884,-0.4268 0.8004,-0.1721 1.5864,-0.4236 2.433,-0.3607 0.276,0.0202 0.3156,0.041 0.3168,0.3 z m -2.6214,0.438 c 0.3978,-0.0853 0.84,-0.178 1.2804,-0.2765 0.1146,-0.0256 0.1008,-0.1178 0.0948,-0.1972 -0.0048,-0.0666 -0.0492,-0.1076 -0.123,-0.0922 -0.4506,0.0949 -0.9012,0.1897 -1.3488,0.2936 -0.1056,0.0245 -0.1068,0.1183 -0.0906,0.1998 0.0138,0.0693 0.0744,0.081 0.1878,0.072 z"
       fill="#f6f6f6"
       id="path24" />
    <path
       d="m 33.8952,22.7482 c 0.0168,0.1731 -0.0432,0.2893 -0.2628,0.2701 -0.8166,-0.0698 -1.5864,0.1433 -2.3658,0.301 -0.114,0.023 -0.2688,0.096 -0.2982,-0.0783 -0.0258,-0.1534 -0.0936,-0.3554 0.174,-0.4092 0.8124,-0.1641 1.6074,-0.4188 2.4648,-0.3532 0.2202,0.0165 0.3108,0.0836 0.288,0.2696 z m -1.3686,-0.1093 c -0.4494,0.0991 -0.9,0.1951 -1.3476,0.3 -0.1278,0.0299 -0.1068,0.1359 -0.087,0.2195 0.021,0.0879 0.1008,0.0682 0.1728,0.0533 0.1818,-0.0383 0.3642,-0.0751 0.5466,-0.1135 0.234,-0.0495 0.468,-0.0991 0.7014,-0.1497 0.1356,-0.0293 0.1476,-0.1209 0.1416,-0.2227 -0.0042,-0.0757 -0.0534,-0.0922 -0.1284,-0.0869 z"
       fill="#f6f6f6"
       id="path26" />
    <path
       d="m 33.1738,23.1973 c 0.1704,0 0.2778,0.0064 0.384,-0.0015 0.228,-0.0171 0.3462,0.0452 0.3462,0.2738 0,0.2371 -0.138,0.2776 -0.3558,0.2648 -0.5562,-0.0319 -1.101,0.0267 -1.6362,0.1647 -0.2436,0.0623 -0.4962,0.0223 -0.7446,0.0287 -0.1086,0.0027 -0.1938,-0.025 -0.2076,-0.138 -0.0138,-0.1156 0.0216,-0.204 0.162,-0.2355 0.2502,-0.0559 0.4998,-0.1161 0.7512,-0.1667 0.45,-0.0906 0.8892,-0.243 1.3008,-0.1903 z m -1.7004,0.6128 c 0.3882,0.0341 0.705,-0.0869 1.0338,-0.1433 0.1392,-0.024 0.165,-0.1114 0.141,-0.2132 -0.03,-0.1278 -0.1422,-0.0932 -0.2346,-0.074 -0.3102,0.0655 -0.6216,0.1278 -0.9276,0.2056 -0.1332,0.0341 -0.3828,0.0016 -0.3618,0.154 0.021,0.1567 0.258,0.0405 0.3492,0.0709 z"
       fill="#f6f6f6"
       id="path28" />
    <path
       d="m 29.509,25.2581 c -0.201,0 -0.432,0.001 -0.663,-6e-4 -0.0708,-5e-4 -0.1518,-0.0032 -0.1632,-0.0868 -0.0108,-0.0799 0.0582,-0.1098 0.1302,-0.1247 0.8358,-0.1742 1.6554,-0.4305 2.5368,-0.3655 0.2274,0.0165 0.2496,0.1268 0.2502,0.2845 0,0.1577 -0.0432,0.2616 -0.2538,0.2488 -0.6042,-0.0367 -1.2036,0.072 -1.8378,0.0453 z m -0.522,-0.145 c 0.0018,0.0102 0.0036,0.0203 0.0054,0.0304 0.3966,0 0.7938,0 1.1904,0 0.1422,0 0.1812,-0.0757 0.1722,-0.187 -0.0078,-0.0927 -0.0606,-0.1242 -0.1608,-0.1028 -0.4026,0.0868 -0.8052,0.1731 -1.2072,0.2594 z"
       fill="#f6f6f6"
       id="path30" />
    <path
       d="m 33.1942,23.9113 c 0.1566,0 0.2544,-6e-4 0.3522,0 0.321,0.0032 0.3894,0.0778 0.3492,0.3564 -0.0186,0.1268 -0.0894,0.1823 -0.2274,0.178 -0.5796,-0.0171 -1.1538,0.0064 -1.7136,0.1572 -0.102,0.0277 -0.1884,0.0053 -0.1884,-0.1007 0,-0.1546 -0.0888,-0.3485 0.1776,-0.4124 0.429,-0.1029 0.8556,-0.2201 1.2504,-0.1791 z m -1.1802,0.5743 c 0.1812,-0.0388 0.3642,-0.0713 0.5424,-0.1193 0.1062,-0.0282 0.1032,-0.1183 0.0924,-0.1993 -0.009,-0.0682 -0.0624,-0.0991 -0.1314,-0.0858 -0.1818,0.0341 -0.3642,0.0693 -0.5418,0.1178 -0.1062,0.0293 -0.093,0.1231 -0.0906,0.2019 0.0024,0.0768 0.0564,0.0895 0.129,0.0842 z"
       fill="#f6f6f6"
       id="path32" />
    <path
       d="m 32.1678,25.2663 c -0.2118,-0.0176 -0.3864,0.0341 -0.4092,-0.1764 -0.0204,-0.1859 0.075,-0.2643 0.27,-0.3128 0.519,-0.1284 1.0434,-0.1715 1.5804,-0.1566 0.2244,0.0064 0.2928,0.0879 0.2928,0.2733 0,0.1876 -0.0732,0.2755 -0.2964,0.2675 -0.5058,-0.0176 -1.011,-0.0096 -1.4376,0.1044 z m 0.0354,-0.113 c 0.102,-0.0202 0.2232,-0.0384 0.3408,-0.0687 0.1224,-0.0315 0.1212,-0.1252 0.1032,-0.2121 -0.0204,-0.0975 -0.108,-0.0879 -0.1878,-0.0719 -0.1116,0.0224 -0.2226,0.0479 -0.333,0.074 -0.1074,0.0256 -0.2556,0.0299 -0.2286,0.1732 0.0282,0.1476 0.1824,0.0778 0.3048,0.105 z"
       fill="#f6f6f6"
       id="path34" />
  </g>
  <defs
     id="defs41">
    <clipPath
       id="clip0_683_7045">
      <rect
         width="24"
         height="6"
         fill="#ffffff"
         transform="translate(19,22)"
         id="rect38"
         x="0"
         y="0" />
    </clipPath>
  </defs>
</svg>
