<svg width="34" height="35" viewBox="0 0 34 35" fill="none" xmlns="http://www.w3.org/2000/svg">
<path d="M29.4444 33.7622L22.3333 7.37044M33 6.46038L1 10.1006M6.68889 33.7622L27.3111 33.7622C29.3024 33.7622 30.2981 33.7622 31.0586 33.3654C31.7277 33.0164 32.2716 32.4596 32.6125 31.7746C33 30.9959 33 29.9765 33 27.9378L33 6.8244C33 4.78568 33 3.76632 32.6125 2.98763C32.2716 2.30267 31.7277 1.74578 31.0586 1.39677C30.2981 1.00001 29.3024 1.00001 27.3111 1.00001L6.68889 1.00001C4.69759 1.00001 3.70195 1.00002 2.94137 1.39678C2.27235 1.74578 1.72842 2.30267 1.38753 2.98762C1 3.76631 1 4.78568 1 6.82441L1 27.9378C1 29.9765 1 30.9959 1.38754 31.7746C1.72842 32.4596 2.27235 33.0164 2.94137 33.3654C3.70195 33.7622 4.69759 33.7622 6.68889 33.7622ZM19.5441 20.4425C19.5441 23.7896 16.4528 26.1671 14.9772 27.1113C14.5037 27.4143 13.9179 27.4143 13.4444 27.1113C11.9688 26.1671 8.87747 23.7896 8.87747 20.4425C8.87747 17.07 11.4617 14.8216 14.2108 14.8216C17.0552 14.8216 19.5441 17.0699 19.5441 20.4425Z" stroke="white" stroke-width="2"/>
</svg>
