<svg width="52" height="52" viewBox="0 0 52 52" fill="none" xmlns="http://www.w3.org/2000/svg">
<path d="M5.41667 8.61667C5.41667 7.49656 5.41667 6.93651 5.63465 6.50868C5.8264 6.13236 6.13236 5.8264 6.50868 5.63465C6.93651 5.41667 7.49656 5.41667 8.61667 5.41667H43.3833C44.5034 5.41667 45.0635 5.41667 45.4913 5.63465C45.8676 5.8264 46.1736 6.13236 46.3653 6.50868C46.5833 6.93651 46.5833 7.49656 46.5833 8.61667V43.3833C46.5833 44.5034 46.5833 45.0635 46.3653 45.4913C46.1736 45.8676 45.8676 46.1736 45.4913 46.3653C45.0635 46.5833 44.5034 46.5833 43.3833 46.5833H8.61667C7.49656 46.5833 6.93651 46.5833 6.50868 46.3653C6.13236 46.1736 5.8264 45.8676 5.63465 45.4913C5.41667 45.0635 5.41667 44.5034 5.41667 43.3833V8.61667Z" stroke="white" stroke-width="2" stroke-linecap="round"/>
<path d="M30 25.5L25 14M38 47L35.5 41" stroke="white" stroke-width="2"/>
<path d="M46.5833 9.75L5.41667 18.4167" stroke="white" stroke-width="2"/>
<path d="M15.0852 32.5775C15.0852 33.5094 14.9148 34.3105 14.5739 34.9809C14.233 35.6486 13.7656 36.1628 13.1719 36.5236C12.581 36.8815 11.9091 37.0605 11.1563 37.0605C10.4006 37.0605 9.72587 36.8815 9.13212 36.5236C8.54121 36.1628 8.0753 35.6471 7.73439 34.9767C7.39348 34.3062 7.22303 33.5065 7.22303 32.5775C7.22303 31.6457 7.39348 30.846 7.73439 30.1784C8.0753 29.5079 8.54121 28.9937 9.13212 28.6358C9.72587 28.275 10.4006 28.0946 11.1563 28.0946C11.9091 28.0946 12.581 28.275 13.1719 28.6358C13.7656 28.9937 14.233 29.5079 14.5739 30.1784C14.9148 30.846 15.0852 31.6457 15.0852 32.5775ZM13.7813 32.5775C13.7813 31.8673 13.6662 31.2693 13.4361 30.7835C13.2088 30.2949 12.8963 29.9256 12.4986 29.6756C12.1037 29.4227 11.6563 29.2963 11.1563 29.2963C10.6534 29.2963 10.2046 29.4227 9.80967 29.6756C9.41479 29.9256 9.10229 30.2949 8.87217 30.7835C8.6449 31.2693 8.53126 31.8673 8.53126 32.5775C8.53126 33.2878 8.6449 33.8872 8.87217 34.3758C9.10229 34.8616 9.41479 35.231 9.80967 35.4838C10.2046 35.7338 10.6534 35.8588 11.1563 35.8588C11.6563 35.8588 12.1037 35.7338 12.4986 35.4838C12.8963 35.231 13.2088 34.8616 13.4361 34.3758C13.6662 33.8872 13.7813 33.2878 13.7813 32.5775ZM20.7669 30.5065C20.7214 30.1031 20.5339 29.7906 20.2044 29.569C19.8748 29.3446 19.4601 29.2324 18.9601 29.2324C18.6021 29.2324 18.2924 29.2892 18.0311 29.4028C17.7697 29.5136 17.5666 29.667 17.4217 29.8631C17.2797 30.0562 17.2086 30.2764 17.2086 30.5236C17.2086 30.7309 17.2569 30.9099 17.3535 31.0605C17.453 31.2111 17.5822 31.3375 17.7413 31.4398C17.9032 31.5392 18.0765 31.623 18.2612 31.6912C18.4459 31.7565 18.6234 31.8105 18.7939 31.8531L19.6461 32.0747C19.9245 32.1429 20.2101 32.2352 20.5027 32.3517C20.7953 32.4682 21.0666 32.6216 21.3166 32.8119C21.5666 33.0023 21.7683 33.2381 21.9217 33.5193C22.078 33.8006 22.1561 34.1372 22.1561 34.5292C22.1561 35.0236 22.0282 35.4625 21.7726 35.846C21.5197 36.2295 21.1518 36.5321 20.6689 36.7537C20.1888 36.9753 19.6078 37.0861 18.926 37.0861C18.2726 37.0861 17.7072 36.9824 17.2299 36.775C16.7527 36.5676 16.3791 36.2736 16.1092 35.8929C15.8393 35.5094 15.6902 35.0548 15.6618 34.5292H16.9828C17.0084 34.8446 17.1106 35.1074 17.2896 35.3176C17.4714 35.525 17.703 35.6798 17.9842 35.7821C18.2683 35.8815 18.5794 35.9312 18.9174 35.9312C19.2896 35.9312 19.6206 35.873 19.9103 35.7565C20.203 35.6372 20.4331 35.4724 20.6007 35.2622C20.7683 35.0491 20.8521 34.8006 20.8521 34.5165C20.8521 34.2579 20.7782 34.0463 20.6305 33.8815C20.4856 33.7167 20.2882 33.5804 20.0382 33.4724C19.791 33.3645 19.5112 33.2693 19.1987 33.1869L18.1674 32.9057C17.4686 32.7153 16.9146 32.4355 16.5055 32.0662C16.0993 31.6969 15.8961 31.2082 15.8961 30.6003C15.8961 30.0974 16.0325 29.6585 16.3052 29.2835C16.578 28.9085 16.9473 28.6173 17.4132 28.4099C17.8791 28.1997 18.4047 28.0946 18.9899 28.0946C19.5808 28.0946 20.1021 28.1983 20.5538 28.4057C21.0084 28.6131 21.3663 28.8986 21.6277 29.2622C21.889 29.623 22.0254 30.0378 22.0368 30.5065H20.7669ZM22.9073 36.9412V30.3957H24.1303V31.4611H24.2113C24.3477 31.1003 24.5707 30.819 24.8803 30.6173C25.19 30.4128 25.5607 30.3105 25.9925 30.3105C26.43 30.3105 26.7965 30.4128 27.092 30.6173C27.3903 30.8219 27.6104 31.1031 27.7525 31.4611H27.8207C27.9769 31.1116 28.2255 30.8332 28.5664 30.6258C28.9073 30.4156 29.3136 30.3105 29.7852 30.3105C30.3789 30.3105 30.8633 30.4966 31.2383 30.8687C31.6161 31.2409 31.805 31.802 31.805 32.552V36.9412H30.5309V32.6713C30.5309 32.2281 30.4102 31.9071 30.1687 31.7082C29.9272 31.5094 29.6388 31.4099 29.3036 31.4099C28.8888 31.4099 28.5664 31.5378 28.3363 31.7934C28.1062 32.0463 27.9911 32.3716 27.9911 32.7693V36.9412H26.7212V32.5903C26.7212 32.2352 26.6104 31.9497 26.3888 31.7338C26.1673 31.5179 25.8789 31.4099 25.5238 31.4099C25.2823 31.4099 25.0593 31.4738 24.8548 31.6017C24.6531 31.7267 24.4897 31.9014 24.3647 32.1258C24.2425 32.3503 24.1815 32.6102 24.1815 32.9057V36.9412H22.9073ZM34.6976 37.0861C34.2828 37.0861 33.9078 37.0094 33.5726 36.856C33.2374 36.6997 32.9718 36.4738 32.7757 36.1784C32.5826 35.8829 32.486 35.5207 32.486 35.0917C32.486 34.7224 32.557 34.4185 32.699 34.1798C32.8411 33.9412 33.0328 33.7523 33.2743 33.6131C33.5158 33.4738 33.7857 33.3687 34.084 33.2977C34.3823 33.2267 34.6863 33.1727 34.9959 33.1358C35.388 33.0903 35.7061 33.0534 35.9505 33.025C36.1948 32.9937 36.3723 32.944 36.4831 32.8758C36.5939 32.8077 36.6493 32.6969 36.6493 32.5434V32.5136C36.6493 32.1415 36.5442 31.8531 36.334 31.6486C36.1266 31.444 35.8169 31.3417 35.405 31.3417C34.976 31.3417 34.638 31.4369 34.3908 31.6273C34.1465 31.8148 33.9774 32.0236 33.8837 32.2537L32.6863 31.9809C32.8283 31.5832 33.0357 31.2622 33.3084 31.0179C33.584 30.7707 33.9007 30.5917 34.2587 30.4809C34.6166 30.3673 34.9931 30.3105 35.388 30.3105C35.6493 30.3105 35.9263 30.3417 36.2189 30.4042C36.5144 30.4639 36.7899 30.5747 37.0456 30.7366C37.3041 30.8986 37.5158 31.1301 37.6806 31.4312C37.8453 31.7295 37.9277 32.1173 37.9277 32.5946V36.9412H36.6834V36.0463H36.6323C36.5499 36.2111 36.4263 36.373 36.2615 36.5321C36.0968 36.6912 35.8851 36.8233 35.6266 36.9284C35.3681 37.0335 35.0584 37.0861 34.6976 37.0861ZM34.9746 36.0633C35.3269 36.0633 35.628 35.9937 35.878 35.8545C36.1309 35.7153 36.3226 35.5335 36.4533 35.3091C36.5868 35.0818 36.6536 34.8389 36.6536 34.5804V33.7366C36.6081 33.7821 36.5201 33.8247 36.3894 33.8645C36.2615 33.9014 36.1152 33.9341 35.9505 33.9625C35.7857 33.9881 35.6252 34.0122 35.4689 34.0349C35.3127 34.0548 35.182 34.0719 35.0769 34.0861C34.8297 34.1173 34.6039 34.1699 34.3993 34.2437C34.1976 34.3176 34.0357 34.4241 33.9135 34.5633C33.7942 34.6997 33.7345 34.8815 33.7345 35.1088C33.7345 35.4241 33.851 35.6628 34.084 35.8247C34.3169 35.9838 34.6138 36.0633 34.9746 36.0633ZM38.9048 39.3957V30.3957H40.1491V31.4568H40.2557C40.3295 31.3204 40.4361 31.1628 40.5753 30.9838C40.7145 30.8048 40.9077 30.6486 41.1548 30.515C41.402 30.3787 41.7287 30.3105 42.1349 30.3105C42.6633 30.3105 43.1349 30.444 43.5497 30.7111C43.9645 30.9781 44.2898 31.3631 44.5256 31.8659C44.7642 32.3687 44.8835 32.9738 44.8835 33.6812C44.8835 34.3886 44.7656 34.9952 44.5298 35.5008C44.294 36.0037 43.9702 36.3915 43.5582 36.6642C43.1463 36.9341 42.6761 37.069 42.1477 37.069C41.75 37.069 41.4247 37.0023 41.1719 36.8687C40.9219 36.7352 40.7258 36.579 40.5838 36.4C40.4417 36.221 40.3324 36.0619 40.2557 35.9227H40.179V39.3957H38.9048ZM40.1534 33.6684C40.1534 34.1287 40.2202 34.5321 40.3537 34.8787C40.4872 35.2253 40.6804 35.4966 40.9332 35.6926C41.1861 35.8858 41.4957 35.9824 41.8622 35.9824C42.2429 35.9824 42.5611 35.8815 42.8167 35.6798C43.0724 35.4753 43.2656 35.1983 43.3963 34.8488C43.5298 34.4994 43.5966 34.1059 43.5966 33.6684C43.5966 33.2366 43.5312 32.8488 43.4006 32.5051C43.2727 32.1613 43.0795 31.89 42.821 31.6912C42.5653 31.4923 42.2457 31.3929 41.8622 31.3929C41.4929 31.3929 41.1804 31.4881 40.9247 31.6784C40.6719 31.8687 40.4801 32.1344 40.3494 32.4753C40.2187 32.8162 40.1534 33.2139 40.1534 33.6684Z" fill="white"/>
</svg>
