<svg width="52" height="52" viewBox="0 0 52 52" fill="none" xmlns="http://www.w3.org/2000/svg">
<path d="M5.41667 8.61667C5.41667 7.49656 5.41667 6.93651 5.63465 6.50868C5.8264 6.13236 6.13236 5.8264 6.50868 5.63465C6.93651 5.41667 7.49656 5.41667 8.61667 5.41667H43.3833C44.5034 5.41667 45.0635 5.41667 45.4913 5.63465C45.8676 5.8264 46.1736 6.13236 46.3653 6.50868C46.5833 6.93651 46.5833 7.49656 46.5833 8.61667V43.3833C46.5833 44.5034 46.5833 45.0635 46.3653 45.4913C46.1736 45.8676 45.8676 46.1736 45.4913 46.3653C45.0635 46.5833 44.5034 46.5833 43.3833 46.5833H8.61667C7.49656 46.5833 6.93651 46.5833 6.50868 46.3653C6.13236 46.1736 5.8264 45.8676 5.63465 45.4913C5.41667 45.0635 5.41667 44.5034 5.41667 43.3833V8.61667Z" stroke="white" stroke-width="2" stroke-linecap="round"/>
<path d="M30 25.5L25 14M38 47L35.5 41" stroke="white" stroke-width="2"/>
<path d="M46.5833 9.75L5.41667 18.4167" stroke="white" stroke-width="2"/>
<path d="M14.8479 36.4706L12.4275 27.7433H13.8124L15.5127 34.5018H15.5937L17.3621 27.7433H18.7343L20.5028 34.5061H20.5837L22.2797 27.7433H23.6689L21.2442 36.4706H19.9189L18.0823 29.9337H18.0141L16.1775 36.4706H14.8479ZM23.9972 36.4706V29.9251H25.2202V30.9905H25.3011C25.4375 30.6297 25.6605 30.3484 25.9702 30.1467C26.2798 29.9422 26.6506 29.8399 27.0824 29.8399C27.5199 29.8399 27.8864 29.9422 28.1818 30.1467C28.4801 30.3513 28.7003 30.6325 28.8423 30.9905H28.9105C29.0668 30.641 29.3153 30.3626 29.6562 30.1552C29.9972 29.945 30.4034 29.8399 30.875 29.8399C31.4688 29.8399 31.9531 30.026 32.3281 30.3981C32.706 30.7703 32.8949 31.3314 32.8949 32.0814V36.4706H31.6207V32.2007C31.6207 31.7575 31.5 31.4365 31.2585 31.2376C31.017 31.0388 30.7287 30.9393 30.3935 30.9393C29.9787 30.9393 29.6562 31.0672 29.4261 31.3229C29.196 31.5757 29.081 31.901 29.081 32.2987V36.4706H27.8111V32.1197C27.8111 31.7646 27.7003 31.4791 27.4787 31.2632C27.2571 31.0473 26.9688 30.9393 26.6136 30.9393C26.3722 30.9393 26.1491 31.0033 25.9446 31.1311C25.7429 31.2561 25.5795 31.4308 25.4545 31.6552C25.3324 31.8797 25.2713 32.1396 25.2713 32.4351V36.4706H23.9972ZM39.1475 31.5231L37.9926 31.7277C37.9443 31.58 37.8676 31.4393 37.7625 31.3058C37.6602 31.1723 37.521 31.0629 37.3449 30.9777C37.1688 30.8925 36.9486 30.8498 36.6844 30.8498C36.3236 30.8498 36.0225 30.9308 35.781 31.0927C35.5395 31.2518 35.4188 31.4578 35.4188 31.7106C35.4188 31.9294 35.4997 32.1055 35.6617 32.2391C35.8236 32.3726 36.085 32.482 36.4458 32.5672L37.4855 32.8058C38.0878 32.945 38.5367 33.1595 38.8321 33.4493C39.1276 33.7391 39.2753 34.1155 39.2753 34.5785C39.2753 34.9706 39.1617 35.32 38.9344 35.6268C38.71 35.9308 38.396 36.1695 37.9926 36.3427C37.5921 36.516 37.1276 36.6027 36.5992 36.6027C35.8662 36.6027 35.2682 36.4464 34.8051 36.1339C34.3421 35.8186 34.058 35.3712 33.9529 34.7916L35.1844 34.6041C35.2611 34.9251 35.4188 35.168 35.6574 35.3328C35.896 35.4947 36.2071 35.5757 36.5906 35.5757C37.0083 35.5757 37.3421 35.4891 37.5921 35.3158C37.8421 35.1396 37.9671 34.9251 37.9671 34.6723C37.9671 34.4677 37.8904 34.2959 37.7369 34.1567C37.5864 34.0175 37.3548 33.9123 37.0423 33.8413L35.9344 33.5984C35.3236 33.4592 34.8719 33.2376 34.5793 32.9337C34.2895 32.6297 34.1446 32.2447 34.1446 31.7788C34.1446 31.3925 34.2526 31.0544 34.4685 30.7646C34.6844 30.4748 34.9827 30.249 35.3634 30.0871C35.744 29.9223 36.1801 29.8399 36.6716 29.8399C37.379 29.8399 37.9358 29.9933 38.3421 30.3001C38.7483 30.6041 39.0168 31.0118 39.1475 31.5231Z" fill="white"/>
</svg>
