<svg xmlns="http://www.w3.org/2000/svg" viewBox="0 0 576 576"><path fill="currentColor" d="M218.5 493.3C218.5 503.6 226.9 512 237.2 512L261.6 512C271.9 512 280.3 503.6 280.3 493.3L280.3 453.4C280.3 443.1 288.7 434.7 299 434.7L416.1 434.7C426.4 434.7 434.8 426.3 434.8 416L434.8 391.6C434.8 381.3 426.4 372.9 416.1 372.9L298.9 372.9C288.6 372.9 280.2 364.5 280.2 354.2L280.2 314.4C280.2 304.1 271.8 295.7 261.5 295.7L237.2 295.7C226.9 295.7 218.5 304.1 218.5 314.4L218.5 493.3zM493.3 357.5C503.6 357.5 512 349.1 512 338.8L512 314.4C512 304.1 503.6 295.7 493.3 295.7L453.4 295.7C443.1 295.7 434.7 287.3 434.7 277L434.7 159.9C434.7 149.6 426.3 141.2 416 141.2L391.6 141.2C381.3 141.2 372.9 149.6 372.9 159.9L372.9 277.1C372.9 287.4 364.5 295.8 354.2 295.8L314.4 295.8C304.1 295.8 295.7 304.2 295.7 314.5L295.7 338.9C295.7 349.2 304.1 357.6 314.4 357.6L493.3 357.6zM357.5 82.7C357.5 72.4 349.1 64 338.8 64L314.4 64C304.1 64 295.7 72.4 295.7 82.7L295.7 122.6C295.7 132.9 287.3 141.3 277 141.3L159.9 141.3C149.6 141.3 141.2 149.7 141.2 160L141.2 184.4C141.2 194.7 149.6 203.1 159.9 203.1L277.1 203.1C287.4 203.1 295.8 211.5 295.8 221.8L295.8 261.7C295.8 272 304.2 280.4 314.5 280.4L338.9 280.4C349.2 280.4 357.6 272 357.6 261.7L357.6 82.7zM82.7 218.5C72.4 218.5 64 226.9 64 237.2L64 261.6C64 271.9 72.4 280.3 82.7 280.3L122.6 280.3C132.9 280.3 141.3 288.7 141.3 299L141.3 416.1C141.3 426.4 149.7 434.8 160 434.8L184.4 434.8C194.7 434.8 203.1 426.4 203.1 416.1L203.1 298.9C203.1 288.6 211.5 280.2 221.8 280.2L261.7 280.2C272 280.2 280.4 271.8 280.4 261.5L280.4 237.2C280.4 226.9 272 218.5 261.7 218.5L82.7 218.5z"/></svg>