<svg xmlns="http://www.w3.org/2000/svg" viewBox="0 0 576 576"><path fill="currentColor" d="M297.1 41.1L352 96L333.7 114.3L288 68.6L242.3 114.3L224 96L288 32L297.1 41.1zM196.6 123.4L214.9 141.7L141.8 214.8L123.5 196.5L196.6 123.4zM434.3 361.1L452.6 379.4L379.5 452.5L361.2 434.2L434.3 361.1zM480 352L461.7 333.7L507.4 288L461.7 242.3L480 224L544 288L480 352zM352 480L288 544L224 480L242.3 461.7L288 507.4L333.7 461.7L352 480zM114.3 242.3L68.6 288L114.3 333.7L96 352L32 288L96 224L114.3 242.3zM196.6 452.6L123.5 379.5L141.8 361.2L214.9 434.3L196.6 452.6zM361.1 141.7L379.4 123.4L452.5 196.5L434.2 214.8L361.1 141.7z"/></svg>