<svg xmlns="http://www.w3.org/2000/svg" viewBox="0 0 576 576"><path fill="currentColor" d="M294.5 245.7L359.5 88.8C362.3 82.1 353.6 76.7 348.8 82.2L293.5 145.7C291 148.6 286.4 148.6 283.9 145.7L228.4 82.2C223.6 76.8 214.9 82.2 217.7 88.8L282.7 245.6C284.9 250.9 292.3 250.9 294.5 245.6L294.5 245.6zM262.7 253.5L197.7 96.6C194.9 89.9 184.9 92.3 185.4 99.5L191.2 183.5C191.5 187.4 188.2 190.6 184.4 190.3L100.4 184.5C93.2 184 90.8 194 97.5 196.8L254.3 261.8C259.6 264 264.8 258.7 262.7 253.4L262.7 253.5zM245.8 281.5L88.9 216.5C82.2 213.7 76.8 222.4 82.3 227.2L145.8 282.5C148.7 285 148.7 289.6 145.8 292.1L82.2 347.6C76.8 352.4 82.2 361.1 88.8 358.3L245.6 293.3C250.9 291.1 250.9 283.7 245.6 281.5L245.6 281.5zM253.6 313.3L96.7 378.3C90 381.1 92.4 391.1 99.6 390.6L183.6 384.8C187.5 384.5 190.7 387.8 190.4 391.6L184.6 475.6C184.1 482.8 194.1 485.2 196.9 478.5L261.9 321.7C264.1 316.4 258.8 311.2 253.5 313.3L253.6 313.3zM281.6 330.3L216.6 487.1C213.8 493.8 222.5 499.2 227.3 493.7L282.6 430.2C285.1 427.3 289.7 427.3 292.2 430.2L347.5 493.7C352.3 499.1 361 493.7 358.2 487.1L293.2 330.3C291 325 283.6 325 281.4 330.3L281.4 330.3zM313.4 322.5L378.4 479.3C381.2 486 391.2 483.6 390.7 476.4L384.9 392.4C384.6 388.5 387.9 385.3 391.7 385.6L475.7 391.4C482.9 391.9 485.3 381.9 478.6 379.1L321.8 314.1C316.5 311.9 311.3 317.2 313.4 322.5L313.4 322.5zM330.4 294.5L487.2 359.5C493.9 362.3 499.3 353.6 493.8 348.8L430.3 293.5C427.4 291 427.4 286.4 430.3 283.9L493.8 228.6C499.2 223.8 493.8 215.1 487.2 217.9L330.4 282.9C325.1 285.1 325.1 292.5 330.4 294.7L330.4 294.7zM322.6 262.7L479.4 197.7C486.1 194.9 483.7 184.9 476.5 185.4L392.5 191.2C388.6 191.5 385.4 188.2 385.7 184.4L391.5 100.4C392 93.2 382 90.8 379.2 97.5L314.2 254.3C312 259.6 317.3 264.8 322.6 262.7L322.6 262.7z"/></svg>