<svg xmlns="http://www.w3.org/2000/svg" viewBox="0 0 576 576"><path fill="currentColor" d="M496 274.1L496 301.9C496 317.2 483.6 329.6 468.3 329.6L440.5 329.6C425.2 329.6 412.8 342 412.8 357.4L412.8 385.1C412.8 400.5 400.4 412.9 385 412.9L357.3 412.9C342 412.9 329.5 425.3 329.5 440.6L329.5 468.4C329.5 483.7 317.1 496.1 301.8 496.1L274.1 496.1C258.8 496.1 246.4 483.7 246.4 468.4L246.4 440.5C246.4 425.2 234 412.8 218.6 412.8L190.9 412.8C175.6 412.8 163.1 400.4 163.1 385L163.1 357.3C163.1 342 150.7 329.5 135.4 329.5L107.7 329.5C92.4 329.5 80 317.1 80 301.8L80 274.1C80 258.8 92.4 246.4 107.7 246.4L135.5 246.4C150.8 246.4 163.2 234 163.2 218.6L163.2 190.9C163.2 175.6 175.6 163.1 191 163.1L218.7 163.1C234 163.1 246.5 150.7 246.5 135.4L246.5 107.7C246.5 92.4 258.9 80 274.2 80L302 80C317.3 80 329.7 92.4 329.7 107.7L329.7 135.5C329.7 150.8 317.3 163.2 302 163.2L274.1 163.2C258.8 163.2 246.4 175.6 246.4 191L246.4 218.7C246.4 234 234 246.5 218.6 246.5L190.9 246.5C175.6 246.5 163.1 258.9 163.1 274.2L163.1 302C163.1 317.3 175.5 329.7 190.9 329.7L218.6 329.7C233.9 329.7 246.4 342.1 246.4 357.5L246.4 385.2C246.4 400.6 258.8 413 274.1 413L301.9 413C317.2 413 329.6 400.6 329.6 385.2L329.6 357.3C329.6 342 342 329.5 357.4 329.5L385.1 329.5C400.4 329.5 412.9 317.1 412.9 301.8L412.9 274.1C412.9 258.8 400.5 246.4 385.1 246.4L357.3 246.4C342 246.4 329.5 258.8 329.5 274.1L329.5 301.9C329.5 317.2 317.1 329.6 301.8 329.6L274.1 329.6C258.8 329.6 246.4 317.2 246.4 301.9L246.4 274.1C246.4 258.8 258.8 246.4 274.1 246.4L301.9 246.4C317.2 246.4 329.6 234 329.6 218.6L329.6 190.9C329.6 175.6 342 163.1 357.4 163.1L385.1 163.1C400.4 163.1 412.9 175.5 412.9 190.9L412.9 218.6C412.9 233.9 425.3 246.4 440.6 246.4L468.4 246.4C483.7 246.4 496.1 258.8 496.1 274.1z"/></svg>