<svg xmlns="http://www.w3.org/2000/svg" viewBox="0 0 576 576"><path fill="currentColor" d="M401.6 396.8L505.4 436.1C529.6 427 544.6 421.5 550 419.4L559.6 445.1L546.8 449.9L510.1 463.6L505.4 465.4L500.5 463.6L396.7 424.3L292.9 463.6L288.1 465.5L283.2 463.6L179.5 424.3L75.7 463.6L70.8 465.4L66.1 463.6L29.4 449.9L16.6 445.1L26.2 419.4C31.6 421.5 46.5 427 70.8 436.1L174.7 396.8L179.5 394.9L184.4 396.8L288.2 436.1L391.9 396.8L396.8 394.9L401.7 396.8L401.8 396.8zM263.3 52.5L263.3 94.7L312.6 94.7L312.6 52.5L263.3 52.5zM108 266.1L137.9 355.7L111.1 366.4L72.1 249.5L115.3 232.2L115.3 94.7L234.5 94.7L234.5 23.4L341.4 23.4L341.4 94.7L460.8 94.7L460.8 232.2L504 249.5L465 366.4L438.2 355.7L468.1 266.1L417 245.7C334.2 212.7 241.7 212.7 158.9 245.7L108 266.1zM432.1 123.5L144.1 123.5L144.1 220.7C236.5 183.7 339.7 183.7 432.1 220.7L432.1 123.5z"/></svg>