<svg xmlns="http://www.w3.org/2000/svg" viewBox="0 0 576 576"><path fill="currentColor" d="M401.6 449.7L505.4 489.1C529.6 480 544.6 474.4 550 472.3L559.6 498.1L546.8 502.8L510.1 516.5L505.4 518.3L500.5 516.5L396.7 477.2L292.9 516.5L288.1 518.4L283.2 516.5L179.5 477.2L75.7 516.5L70.8 518.3L66.1 516.5L29.4 502.8L16.6 498.1L26.2 472.3C31.6 474.4 46.5 480 70.8 489.1L174.7 449.7L179.5 447.8L184.4 449.7L288.2 489.1L391.9 449.7L396.8 447.8L401.7 449.7L401.8 449.7zM149.8 408.1L113.7 342.1L113.7 320.3L464 320.3L464 342.1L427.9 408.1L455.1 419L493.1 349.6L493.1 291.2L463.5 291.2L463.5 291.2L463.5 145.2L463.5 145.2L463.5 116L376.4 116L376.4 57.6L201.2 57.6L201.2 116L113.8 116L113.8 145.2L113.8 145.2L113.8 291.2L113.8 291.2L84.4 291.2L84.4 349.6L122.4 419L149.7 408.1zM274.1 291.2L143.1 291.2L143.1 232.7L274.1 232.7L274.1 291.2zM434.4 291.2L303.4 291.2L303.4 232.7L434.4 232.7L434.4 291.2zM434.4 145.2L434.4 203.6L303.4 203.6L303.4 145.2L434.4 145.2zM230.5 86.8L347.2 86.8L347.2 115.9L230.5 115.9L230.5 86.8zM274.1 145.2L274.1 203.6L143.1 203.6L143.1 145.2L274.1 145.2z"/></svg>