<svg xmlns="http://www.w3.org/2000/svg" viewBox="0 0 576 576"><path fill="currentColor" d="M449.8 240.4C428.8 240.4 411.2 254.3 405.6 273.2C404.1 278.4 399.3 281.9 393.9 281.9L347.2 281.9C329.7 281.9 321 261 333.3 248.8L365.6 216.9C369.5 213.1 375.4 212.3 380.1 214.9C397.6 224.4 420 221.9 434.8 207.2C453.4 188.9 452.8 158.8 433 141.1C415.2 125.2 387.3 125.9 370.1 142.4C355 157.2 352.3 179.6 362 197C364.6 201.7 363.8 207.5 360 211.3L325.3 245.6C312.9 257.8 291.8 249.2 291.8 231.9L291.8 180.7C291.8 175.3 295.4 170.7 300.6 169.2C320.1 163.6 334.2 145.7 333.8 124.6C333.3 101 314.1 81.3 290.3 80.1C263.7 78.7 241.8 99.6 241.8 125.5C241.8 146.2 255.8 163.7 275 169.2C280.2 170.7 283.9 175.4 283.9 180.7L283.9 231.9C283.9 249.2 262.8 257.8 250.4 245.6L215.7 211.3C211.9 207.5 211.1 201.7 213.7 197C223.4 179.5 220.7 157.2 205.5 142.5C188.3 126 160.5 125.3 142.6 141.2C122.8 158.8 122.2 188.9 140.8 207.3C155.6 221.9 178 224.5 195.5 215C200.3 212.4 206.2 213.2 210 217L242.3 248.9C254.7 261.1 245.9 282 228.4 282L181.8 282C176.4 282 171.6 278.4 170.1 273.3C164.5 254.3 146.9 240.5 125.9 240.5C99.7 240.5 78.6 262.2 80 288.4C81.2 311.9 101.2 331 125 331.4C146.4 331.8 164.5 317.8 170.1 298.6C171.6 293.4 176.4 289.9 181.8 289.9L232.7 289.9C250.2 289.9 258.9 310.8 246.6 323L210 359.2C206.1 363 200.2 363.8 195.5 361.2C178 351.7 155.6 354.2 140.8 368.9C122.2 387.2 122.8 417.3 142.6 435C160.4 450.9 188.3 450.2 205.5 433.7C220.7 419 223.4 396.6 213.7 379.2C211.1 374.5 211.9 368.7 215.7 364.9L250.4 330.6C262.8 318.4 283.9 327 283.9 344.3L283.9 395.5C283.9 400.9 280.3 405.5 275 407C255.8 412.5 241.8 430 241.8 450.7C241.8 476.6 263.8 497.5 290.3 496.1C314.1 494.8 333.4 475.2 333.8 451.6C334.2 430.5 320 412.6 300.6 407C295.4 405.5 291.8 400.8 291.8 395.5L291.8 344.1C291.8 326.8 312.9 318.2 325.3 330.4L360 364.7C363.8 368.5 364.6 374.3 362 379C352.3 396.5 355 418.8 370.2 433.5C387.4 450 415.3 450.7 433.1 434.8C452.9 417.2 453.5 387.1 434.9 368.7C420.1 354.1 397.7 351.5 380.2 361C375.4 363.6 369.5 362.8 365.7 359L329.1 322.8C316.7 310.6 325.5 289.7 343 289.7L394 289.7C399.4 289.7 404.2 293.3 405.7 298.4C411.3 317.7 429.4 331.6 450.8 331.2C474.6 330.7 494.6 311.7 495.8 288.2C497.2 262 476.1 240.3 449.8 240.3L449.6 240.3z"/></svg>