<svg xmlns="http://www.w3.org/2000/svg" viewBox="0 0 576 576"><path fill="currentColor" d="M478.8 160L401.8 160L401.8 74.7L32 74.7L32 444.5L91.8 444.5C101 477.3 131.3 501.4 167.1 501.4C202.9 501.4 233.1 477.3 242.4 444.5L333.6 444.5C342.8 477.3 373.1 501.4 408.9 501.4C444.7 501.4 474.9 477.3 484.2 444.5L544 444.5L544 225.3L478.8 160.1zM121.1 404.1C127.6 387.3 142.8 375.3 160.7 372.8C178.5 370.4 196.3 377.7 207.2 392.1C218.1 406.5 220.4 425.7 213.1 442.2C206.6 459 191.4 471 173.5 473.5C155.7 475.9 137.9 468.6 127 454.2C116.1 439.8 113.8 420.6 121.1 404.1zM331 416L245 416C241.4 376.1 207.9 344.9 167.1 344.9C126.3 344.9 92.9 376.1 89.3 416L60.4 416L60.4 103.1L373.3 103.1L373.3 353.4C350 365.3 333.4 388.6 331 416zM373.7 387.9C386.2 374.7 404.8 369.4 422.3 373.9C439.9 378.4 453.6 392.1 458.1 409.7C462.6 427.2 457.3 445.8 444.1 458.3C431.6 471.5 413 476.8 395.5 472.3C377.9 467.8 364.2 454.1 359.7 436.5C355.2 419 360.5 400.4 373.7 387.9zM515.6 416L486.8 416C483.2 376.1 449.7 344.9 408.9 344.9C406.5 344.9 404.1 345 401.8 345.3L401.8 302.3L515.6 302.3L515.6 416.1zM515.6 273.8L401.8 273.8L401.8 188.5L467 188.5L515.5 237L515.5 273.8zM216.9 141.2L133.5 173.6L132.8 184.9C132.3 192.9 131.9 221.5 145.3 252.6C158.4 282.9 180.7 305.5 209.8 318.1L216.8 321.1L223.8 318.1C252.8 305.5 275.1 282.9 288.3 252.6C297.4 231.7 302.1 206.3 300.9 184.9L300.2 173.6L216.8 141.2zM216.9 293.6C169.6 271.3 157.7 219.6 157.9 191.1L216.9 168.2L276 191.1C276.2 219.6 264.2 271.3 216.9 293.6z"/></svg>