<svg width="36" height="36" viewBox="0 0 36 36" fill="none" xmlns="http://www.w3.org/2000/svg">
<path d="M36 18C36 27.9411 27.9411 36 18 36C8.05887 36 0 27.9411 0 18C0 8.05887 8.05887 0 18 0C27.9411 0 36 8.05887 36 18ZM2.16 18C2.16 26.7482 9.25181 33.84 18 33.84C26.7482 33.84 33.84 26.7482 33.84 18C33.84 9.25181 26.7482 2.16 18 2.16C9.25181 2.16 2.16 9.25181 2.16 18Z" fill="#FFF0CB"/>
<path fill-rule="evenodd" clip-rule="evenodd" d="M12.8644 22.6689C12.8644 22.6689 15.6001 25.2003 18.0002 25.2003C20.4003 25.2003 23.1362 22.6689 23.1362 22.6689L23.223 22.2H31.7774C29.9799 28.1041 24.4914 32.4 17.9996 32.4C11.5077 32.4 6.01918 28.1041 4.22168 22.2H12.7776L12.8644 22.6689Z" fill="#FFF0CB"/>
<path d="M14.5714 16H21.4286L22 18H14L14.5714 16Z" fill="#D9D9D9"/>
<path d="M16.2857 14H19.7143L20 16H16L16.2857 14Z" fill="#D9D9D9"/>
<path d="M18.0004 24C16.0004 24 13.7207 22.0823 13.7207 22.0823L13 18.5L18.0004 18L23 18.5L22.2802 22.0823C22.2802 22.0823 20.0004 24 18.0004 24Z" fill="white" stroke="white" stroke-width="1.2"/>
</svg>
