<svg width="40" height="40" viewBox="0 0 40 40" fill="none" xmlns="http://www.w3.org/2000/svg">
<circle cx="20.0002" cy="20.0008" r="18.3569" transform="rotate(-3.5878 20.0002 20.0008)" stroke="#B1BAFF"/>
<path opacity="0.3" d="M33.2911 9.34943C31.7008 7.36489 29.6862 5.76167 27.3953 4.65744C25.1044 3.55322 22.5953 2.97604 20.0522 2.96825C17.5091 2.96046 14.9965 3.52227 12.6989 4.61244C10.4013 5.70261 8.37695 7.29346 6.77451 9.26822L20.0001 20.0002L33.2911 9.34943Z" fill="#B1BAFF"/>
<g filter="url(#filter0_d_1051_19457)">
<path d="M14.1208 17H26.1208V30H14.1208V17Z" fill="white"/>
<path d="M16.1208 10H24.1208L25.1208 15H15.1208L16.1208 10Z" fill="white"/>
<path d="M25.6208 17.5V29.5H14.6208V17.5H25.6208ZM23.7107 10.5L24.5115 14.5H15.7302L16.531 10.5H23.7107Z" stroke="#B1BAFF"/>
</g>
<defs>
<filter id="filter0_d_1051_19457" x="-10" y="-10" width="60" height="60" filterUnits="userSpaceOnUse" color-interpolation-filters="sRGB">
<feGaussianBlur in="SourceAlpha" stdDeviation="5" result="blur"/>
<feOffset in="blur" dx="0" dy="0" result="offsetBlur"/>
<feFlood flood-color="#B1BAFF" flood-opacity="1" result="color"/>
<feComposite in="color" in2="offsetBlur" operator="in" result="shadow"/>
<feMerge>
<feMergeNode in="shadow"/>
<feMergeNode in="SourceGraphic"/>
</feMerge>
</filter>
</defs>
</svg>

