<?xml version="1.0" encoding="UTF-8"?>
<svg id="Livello_1" data-name="Livello 1" xmlns="http://www.w3.org/2000/svg" viewBox="0 0 853 185.27">
  <defs>
    <style>
      .cls-1 {
        fill: #0a6fbd;
      }

      .cls-2 {
        fill: #fff;
      }

      .cls-3 {
        fill: #003778;
      }
    </style>
  </defs>
  <path class="cls-3" d="M799,0c.69,.39,1.35,.9,2.09,1.16,18.42,6.38,25.86,30.88,13.56,46.1-3.3,4.09-8.34,6.77-13.07,10.49,3.25,5.24,7,11.29,10.76,17.33,3.76,6.03,7.53,12.06,11.87,19-8.87,0-16.78,.16-24.67-.16-1.33-.05-2.9-1.95-3.81-3.36-6.24-9.64-12.45-19.31-18.4-29.14-1.71-2.82-3.63-3.83-6.84-3.68-5.3,.25-10.62,.07-16.5,.07v35.91h-21.13c-.15-1.28-.44-2.55-.44-3.82-.03-28.5-.03-56.99,0-85.49,0-1.47,.37-2.95,.57-4.42,22,0,44,0,66,0Zm-44.94,41.15c11.97,0,23.56,.17,35.14-.08,4.89-.11,8.26-4.98,8.56-11.18,.28-6-2.83-11.49-7.8-11.68-11.87-.45-23.77-.15-35.9-.15v23.08Z"/>
  <path class="cls-3" d="M715,0V18.92c-12.24,0-23.85-.06-35.47,.02-10.1,.07-16.86,7.46-16.43,18.41h51.5v17.37h-51.23c-2.24,11.78,5.23,20.98,16.81,21.12,11.31,.13,22.63,.03,34.33,.03v18.27c-4.21,0-8.32,0-12.42,0-9.83,0-19.66,.01-29.5,0-16.37-.03-26.36-6.66-30.86-22.24-4.7-16.27-4.69-32.96,.07-49.26,3.45-11.85,11.03-20,23.99-21.84,.43-.06,.8-.51,1.2-.78,16,0,32,0,48,0Z"/>
  <path class="cls-3" d="M178,0c3.21,.74,6.48,1.3,9.63,2.24,12.26,3.66,20.38,12.03,20.94,24.58,.99,22.09,.28,44.26,.28,66.86h-21.44c0-1.89,0-3.67,0-5.45,0-17.66,.02-35.33,0-52.99-.02-11.66-4.71-16.29-16.42-16.31-7.98,0-15.96,0-24.71,0V93.79h-21.39c-.16-1.34-.44-2.61-.44-3.88-.03-28.49-.03-56.99,0-85.48,0-1.47,.37-2.95,.57-4.42C142.67,0,160.33,0,178,0Z"/>
  <path class="cls-3" d="M473,0c3.04,.71,6.11,1.34,9.13,2.14,11.84,3.13,21.06,12.54,21.48,24.71,.75,22.1,.21,44.24,.21,66.82h-21.17c-.08-1.84-.23-3.62-.23-5.41-.02-17.48,.03-34.97-.02-52.45-.04-12.32-4.64-16.88-16.88-16.89-6.16,0-12.34,.32-18.47-.1-4.99-.34-6.07,1.56-6.01,6.23,.24,20.81,.1,41.62,.1,62.44,0,1.96,0,3.92,0,6.26h-22.13V0C437,0,455,0,473,0Z"/>
  <path class="cls-3" d="M370,0c6.1,13.8,12.12,27.64,18.31,41.4,7.76,17.26,15.64,34.47,23.9,52.64-7.6,0-14.47,.12-21.32-.14-.98-.04-2.2-1.74-2.8-2.93-2.45-4.91-4.46-10.05-7.14-14.81-.91-1.62-3.28-3.36-5.02-3.41-10.82-.31-21.65-.29-32.47-.02-1.66,.04-3.95,1.55-4.77,3.04-2.74,4.93-4.84,10.21-7.42,15.23-.65,1.27-2.16,2.9-3.34,2.95-6.61,.29-13.24,.14-20.8,.14C321.63,62.23,335.82,31.11,350,0c6.67,0,13.33,0,20,0Zm1.37,54.14c-3.81-8.42-7.38-16.32-11.51-25.46-4.15,9.18-7.71,17.05-11.52,25.46h23.03Z"/>
  <path class="cls-3" d="M298,0V18.92c-11.54,0-22.47,0-33.4,0-12.25,0-18.74,6.34-18.98,18.67-.12,6.49-.12,12.98,0,19.47,.22,12.22,6.86,18.76,18.97,18.8,9.15,.03,18.31,0,27.46,.02,1.78,0,3.56,.16,5.59,.26v17.5c-1.35,.17-2.62,.47-3.88,.47-13.48,.03-26.96,.02-40.45,.02-13.36,0-22.52-6.45-27.26-18.68-2.07-5.34-3.42-11.15-3.95-16.85-.67-7.26-.64-14.66-.11-21.95C223.34,18.47,230.09,4.13,250,0h48Z"/>
  <path class="cls-3" d="M76,0V18.92c-12.54,0-24.48-.01-36.41,0-11.7,.01-18.57,7.66-17.6,20.09h53.55v17.03H21.5v37.95H0C0,74,0,54,0,34c.4-1.58,.87-3.15,1.2-4.75C4.06,15.01,11.59,5.03,26.3,1.54,28.53,1.01,30.77,.51,33,0h43Z"/>
  <path class="cls-3" d="M593,0V18.94h-32.32V93.68h-21.32V19.18h-31.36V0h85Z"/>
  <path class="cls-3" d="M109,0c-.06,29.12-.12,58.25-.18,87.37,0,1.97,0,3.94,0,6.34h-20.82V0h21Z"/>
  <path class="cls-3" d="M627,0V93.72h-21V0h21Z"/>
  <path class="cls-3" d="M853,0V93.71h-21V0h21Z"/>
  <path class="cls-1" d="M549.38,169.05c0-4.09,.01-8.18,0-12.27-.03-9.83,.2-19.67-.23-29.48-.23-5.22,2.6-4.87,6.17-5.04,4.04-.2,5.49,.94,5.44,5.24-.23,17.49-.17,34.98-.03,52.47,.03,3.52-.85,4.77-4.65,5.15-7.05,.72-11.12-1.62-14.38-8.16-6.24-12.49-13.53-24.45-20.41-36.62-.93-1.65-2-3.22-4.24-4.53-.1,1.72-.31,3.44-.27,5.15,.26,12.98,.39,25.96,.95,38.92,.2,4.55-1.79,5.22-5.6,5.17-3.77-.05-6.24-.28-6.17-5.25,.26-17.49,.19-34.98,.03-52.47-.04-3.94,1.36-4.74,5.17-5.16,7.66-.85,11.95,1.86,15.44,8.85,6.52,13.06,14.16,25.57,21.33,38.31l1.48-.28Z"/>
  <path class="cls-1" d="M821.61,147.61c0,11.31-.13,21.78,.07,32.24,.07,3.56-.77,5.04-4.67,5.01-3.72-.03-4.86-1.16-4.83-4.88,.17-17.64,.17-35.29,0-52.93-.04-3.81,1.26-4.73,4.89-4.79,3.99-.07,4.87,1.55,4.59,5.05-.23,2.81,.15,5.67-.09,8.48-.31,3.63,1.33,4.66,4.67,4.51,3.99-.18,7.99-.1,11.98,.02,8.88,.27,13.81,4.51,14.27,13.32,.48,9.3,.08,18.64,.18,27.96,.04,3.83-2.65,3.06-4.86,3.13-2.39,.08-4.8,.27-4.76-3.33,.07-6.99,.02-13.98-.02-20.97-.05-10.77-2.09-12.79-12.82-12.81-2.63,0-5.25,0-8.59,0Z"/>
  <path class="cls-1" d="M695.61,131.61c0,11.32,0,21.95,0,32.57,0,5.33-.29,10.69,.09,15.99,.31,4.42-1.91,4.9-5.4,4.84-3.55-.06-6.46,.15-6.36-5.02,.28-13.83,.1-27.66,.09-41.49,0-6.88-.03-6.88-6.78-6.89-3,0-6.02-.22-8.99,.05-3.8,.34-5.34-.82-5.34-4.92,0-4.15,2.01-4.48,5.3-4.45,14.5,.12,29,.14,43.49-.01,3.47-.04,5.12,.59,5.07,4.6-.05,3.72-1.11,5.02-4.87,4.8-5.13-.29-10.29-.07-16.3-.07Z"/>
  <path class="cls-1" d="M584.34,158.39c7.52,0,15.14,.13,22.76-.06,3.34-.09,4.77,.73,4.74,4.41-.03,3.67-1.83,3.97-4.7,3.92-7.62-.12-15.25-.04-22.76-.04-1.11,6.85,1.68,10.49,8.05,10.7,6.13,.2,12.28,.04,18.27,.04,2.05,6.74,1.51,7.6-4.66,7.59-5.66,0-11.35,.12-16.98-.29-8.03-.58-14.04-5.21-15.64-13.08-1.1-5.41-1.43-11.35-.41-16.73,1.95-10.3,8.8-14.67,22.03-15.41,4.32-.24,8.67,.08,12.99-.09,2.88-.11,3.76,1.06,3.77,3.81,.01,2.84-1.13,3.79-3.85,3.83-5.48,.1-10.98,.24-16.44,.74-5.65,.52-8.1,4.14-7.16,10.66Z"/>
  <path class="cls-1" d="M726.16,158.39c7.98,0,15.62,.12,23.24-.06,3.18-.08,4.42,.84,4.43,4.2,0,3.42-1.36,4.21-4.48,4.14-7.63-.17-15.26-.06-22.77-.06-1.46,6.5,1.36,10.41,7.64,10.69,5.32,.24,10.65,.16,15.98,.05,2.56-.06,3.59,.87,3.57,3.47-.01,2.52-.46,4.21-3.5,4.14-5.99-.13-11.99,.1-17.97-.2-9.3-.47-15.4-5.26-17.19-14.43-.96-4.93-1.03-10.34-.07-15.27,2.02-10.4,8.57-14.79,21.82-15.62,4.48-.28,8.99,.05,13.48-.09,2.7-.09,3.41,1.14,3.44,3.6,.04,2.65-.74,3.99-3.64,4.03-5.48,.08-10.97,.23-16.42,.73-5.73,.52-8.08,3.82-7.55,10.67Z"/>
  <path class="cls-1" d="M662.04,184.32c-7.22,1.78-12.65,.87-15.99-5.95-1.21-2.48-3.28-4.53-5.44-7.42-1.99,2.55-4.05,4.5-5.26,6.88-3.42,6.7-8.68,8.56-16.53,6.46,3.9-5.33,7.67-10.45,11.41-15.59,4.61-6.34,4.57-6.33-.05-12.55-3.86-5.2-7.65-10.45-11.53-15.77,7.85-2.45,10.54-1.59,14.86,4.52,2.17,3.07,4.36,6.13,7.02,9.85,2.68-3.68,5.23-6.39,6.86-9.59,3.36-6.6,8.7-6.48,15.43-5.21-4.62,6.45-8.8,12.6-13.33,18.48-2.36,3.06-2.89,5.31-.15,8.6,4.45,5.35,8.29,11.21,12.71,17.29Z"/>
  <path class="cls-1" d="M787.96,185.27c-4.13-.37-8.41-.16-12.36-1.21-9.21-2.44-15.75-14.25-13.99-24.32,2.47-14.14,8.25-19.25,23.31-20.29,4.15-.28,8.33,.07,12.49-.1,3.1-.13,3.52,1.57,3.57,4.06,.05,2.76-.57,4.45-3.86,4.29-3.82-.19-7.67-.18-11.49,.03-9,.48-13.8,5.91-13.54,15.07,.25,9.15,5.37,14.41,14.18,14.54,3.83,.05,7.69-.24,11.48,.18,1.17,.13,3.05,2.16,2.97,3.19-.11,1.46-1.57,3.8-2.76,4-3.24,.56-6.63,.19-9.96,.19l-.03,.37Z"/>
  <path class="cls-2" d="M371.37,54.14h-23.03c3.81-8.41,7.37-16.28,11.52-25.46,4.13,9.14,7.71,17.05,11.51,25.46Z"/>
</svg>