<svg width="34" height="34" viewBox="0 0 34 34" fill="none" xmlns="http://www.w3.org/2000/svg">
<path fill-rule="evenodd" clip-rule="evenodd" d="M20.4034 3.01743L20.4475 3.45516C20.632 5.28501 20.7243 6.19993 21.3486 6.45644C21.973 6.71294 22.6905 6.13068 24.1255 4.96617L24.4688 4.68763C25.2207 4.07746 25.5966 3.77237 26.0313 3.79387C26.4659 3.81537 26.8094 4.15605 27.4964 4.8374L29.1309 6.45857C29.8179 7.13992 30.1614 7.4806 30.183 7.91168C30.2047 8.34277 29.8971 8.71565 29.2819 9.46142L29.001 9.80191C27.8269 11.2252 27.2399 11.9368 27.4985 12.5561C27.7571 13.1753 28.6796 13.2668 30.5245 13.4498L30.9659 13.4936C31.9326 13.5895 32.416 13.6374 32.708 13.9575C33 14.2775 33 14.7593 33 15.7228V18.0155C33 18.9791 33 19.4609 32.708 19.7809C32.416 20.1009 31.9326 20.1489 30.966 20.2448L30.5251 20.2885C28.6802 20.4715 27.7577 20.563 27.4991 21.1822C27.2405 21.8015 27.8275 22.5131 29.0016 23.9364L29.282 24.2762C29.8972 25.022 30.2048 25.3949 30.1831 25.826C30.1614 26.2571 29.818 26.5977 29.131 27.2791L27.4965 28.9003C26.8095 29.5816 26.466 29.9223 26.0314 29.9438C25.5967 29.9653 25.2208 29.6602 24.4689 29.05L24.1256 28.7715C22.6906 27.607 21.9731 27.0247 21.3487 27.2812C20.7244 27.5377 20.6321 28.4527 20.4476 30.2825L20.4034 30.7209C20.3067 31.6797 20.2584 32.1591 19.9357 32.4488C19.6131 32.7384 19.1273 32.7384 18.1558 32.7384H15.8442C14.8727 32.7384 14.3869 32.7384 14.0643 32.4488C13.7416 32.1591 13.6933 31.6797 13.5966 30.7209L13.5525 30.2831C13.368 28.4533 13.2757 27.5384 12.6514 27.2819C12.027 27.0254 11.3095 27.6076 9.87447 28.7721L9.5311 29.0508C8.77918 29.6609 8.40323 29.966 7.96859 29.9445C7.53395 29.923 7.19047 29.5823 6.5035 28.901L4.86896 27.2798C4.182 26.5985 3.83851 26.2578 3.81683 25.8267C3.79515 25.3956 4.10275 25.0227 4.71795 24.277L4.99886 23.9365C6.17297 22.5132 6.76002 21.8015 6.50141 21.1823C6.24279 20.563 5.32032 20.4715 3.47539 20.2885L3.03406 20.2448C2.06738 20.1489 1.58401 20.1009 1.29201 19.7809C1 19.4609 1 18.9791 1 18.0155L1 15.7228C1 14.7593 1 14.2775 1.29201 13.9574C1.58401 13.6374 2.06736 13.5895 3.03406 13.4936L3.47599 13.4498C5.32092 13.2668 6.24339 13.1753 6.50201 12.556C6.76062 11.9368 6.17357 11.2251 4.99946 9.80186L4.71803 9.4607C4.10283 8.71493 3.79522 8.34205 3.8169 7.91097C3.83858 7.47988 4.18206 7.13921 4.86903 6.45785L6.50357 4.83668C7.19054 4.15533 7.53403 3.81465 7.96866 3.79315C8.4033 3.77165 8.77926 4.07674 9.53117 4.68691L9.87454 4.96555C11.3096 6.13006 12.0271 6.71232 12.6514 6.45581C13.2758 6.19931 13.368 5.28439 13.5525 3.45453L13.5966 3.01743C13.6933 2.05864 13.7416 1.57924 14.0643 1.28962C14.3869 1 14.8727 1 15.8442 1H18.1558C19.1273 1 19.6131 1 19.9357 1.28962C20.2584 1.57924 20.3067 2.05865 20.4034 3.01743ZM17 23.2169C20.5346 23.2169 23.4 20.3749 23.4 16.8692C23.4 13.3635 20.5346 10.5215 17 10.5215C13.4654 10.5215 10.6 13.3635 10.6 16.8692C10.6 20.3749 13.4654 23.2169 17 23.2169Z" stroke="white" stroke-width="2"/>
</svg>
