<svg width="62" height="53" viewBox="0 0 62 53" fill="none" xmlns="http://www.w3.org/2000/svg">
<path d="M30.8428 39.1776C38.465 39.1776 44.644 33.0086 44.644 25.3986C44.644 17.7887 38.465 11.6196 30.8428 11.6196C23.2205 11.6196 17.0415 17.7887 17.0415 25.3986C17.0415 33.0086 23.2205 39.1776 30.8428 39.1776Z" fill="#063062"/>
<g filter="url(#filter0_d_80_194)">
<g filter="url(#filter1_d_80_194)">
<path d="M19.4182 44.9247C17.5264 43.5266 16.3012 42.3571 14.5979 40.5423C6.73454 32.127 6.67395 18.8521 14.4834 10.3898C16.1934 8.53465 17.2235 7.37184 19.0008 6.16197L20.3136 5.09326C17.4389 6.57871 14.8672 8.68252 12.7667 11.3577C6.01418 19.9679 6.42485 32.369 13.6958 40.549C15.6347 42.7335 17.8833 44.4474 20.3136 45.6976L19.4182 44.9179V44.9247Z" fill="#1D1D1B"/>
</g>
<g filter="url(#filter2_d_80_194)">
<path d="M49.0066 11.4787C46.9263 8.80353 44.3815 6.68627 41.5337 5.18066L42.6378 6.05445C44.3747 7.37858 45.0345 8.21204 46.5425 9.71765C50.7435 13.9051 53.0527 19.4772 53.0527 25.3988C53.0527 31.3204 50.7435 36.8925 46.5493 41.0867C45.0278 42.6058 44.3007 43.3451 42.5233 44.8171L41.5337 45.6237C43.513 44.5819 45.3711 43.2309 47.034 41.5707C51.9957 36.6102 54.3992 29.7812 53.5778 22.6766C53.1065 18.6101 51.5177 14.7184 49.0066 11.4854V11.4787Z" fill="#1D1D1B"/>
</g>
</g>
<path d="M25.3964 31.8717C26.2193 31.0501 26.2534 29.7521 25.4725 28.9725C24.6917 28.1929 23.3916 28.2269 22.5686 29.0485C21.7457 29.8701 21.7116 31.1681 22.4925 31.9477C23.2733 32.7273 24.5734 32.6933 25.3964 31.8717Z" fill="white"/>
<path d="M30.661 31.8719C31.4839 31.0503 31.518 29.7523 30.7372 28.9727C29.9563 28.1931 28.6562 28.2272 27.8333 29.0488C27.0104 29.8703 26.9763 31.1684 27.7571 31.948C28.538 32.7276 29.8381 32.6935 30.661 31.8719Z" fill="white"/>
<path d="M38.6664 31.8248C39.4893 31.0032 39.5234 29.7052 38.7425 28.9256C37.9617 28.146 36.6616 28.18 35.8387 29.0016C35.0157 29.8232 34.9816 31.1212 35.7625 31.9008C36.5433 32.6804 37.8435 32.6464 38.6664 31.8248Z" fill="white"/>
<path d="M39.7951 19.4234H32.5713C32.5175 19.4234 32.4703 19.4234 32.4165 19.4234C32.2684 19.4234 32.1472 19.3697 32.1472 19.2352V16.9499C32.1472 16.829 32.0529 16.7349 31.9317 16.7349C31.8106 16.7349 31.7163 16.829 31.7163 16.9499V26.4675C31.7163 26.5885 31.6221 26.6826 31.5009 26.6826H21.0994C20.9379 26.6826 20.8032 26.8171 20.8032 26.9784V30.1643C20.8032 30.3257 20.9379 30.4601 21.0994 30.4601H21.4495C21.564 30.4601 21.6582 30.3727 21.665 30.2584C21.7659 29.0687 22.7691 28.1345 23.9876 28.1345C25.2062 28.1345 26.2093 29.0687 26.3103 30.2584C26.317 30.3727 26.4112 30.4601 26.5257 30.4601H26.7277C26.8421 30.4601 26.9364 30.3727 26.9431 30.2584C27.0441 29.0687 28.0472 28.1345 29.2657 28.1345C30.4843 28.1345 31.4874 29.0687 31.5884 30.2584C31.5951 30.3727 31.6894 30.4601 31.8038 30.4601H32.4299C32.4299 30.4601 32.4636 30.4601 32.4771 30.4601C32.4905 30.4601 32.5107 30.4601 32.5242 30.4601C32.5444 30.4601 32.5646 30.4601 32.5848 30.4601H34.9209C34.9209 30.4601 34.9209 30.4466 34.9209 30.4399C34.9209 30.4399 34.9209 30.4332 34.9209 30.4265C34.9209 29.1427 35.9644 28.1009 37.2503 28.1009C38.5361 28.1009 39.5797 29.1427 39.5797 30.4265C39.5797 30.4332 39.5797 30.4399 39.5797 30.4466C39.5797 30.4466 39.5797 30.4534 39.5797 30.4601H39.8086C40.3786 30.4601 40.6636 30.2159 40.6636 29.7275V19.8738C40.6636 19.4302 40.6636 19.4234 39.8086 19.4234H39.7951ZM39.7278 20.6333V23.1068C39.7278 23.2278 39.6335 23.3219 39.5123 23.3219H35.3854C35.2642 23.3219 35.17 23.2278 35.17 23.1068V20.6333C35.17 20.5123 35.2642 20.4182 35.3854 20.4182H39.5123C39.6335 20.4182 39.7278 20.5123 39.7278 20.6333Z" fill="white"/>
<path d="M32.3563 16.9768V19.094C32.3563 19.1814 32.4573 19.2486 32.5852 19.2486H37.7422C37.8836 19.2486 37.9509 19.1343 37.8499 19.0671C37.1699 18.6437 35.2782 17.575 32.5381 16.8827C32.4506 16.8625 32.3496 16.9028 32.3496 16.97L32.3563 16.9768Z" fill="white"/>
<defs>
<filter id="filter0_d_80_194" x="4.96045" y="2.09326" width="51.7759" height="46.6042" filterUnits="userSpaceOnUse" color-interpolation-filters="sRGB">
<feFlood flood-opacity="0" result="BackgroundImageFix"/>
<feColorMatrix in="SourceAlpha" type="matrix" values="0 0 0 0 0 0 0 0 0 0 0 0 0 0 0 0 0 0 127 0" result="hardAlpha"/>
<feOffset/>
<feGaussianBlur stdDeviation="1.5"/>
<feComposite in2="hardAlpha" operator="out"/>
<feColorMatrix type="matrix" values="0 0 0 0 0.0575709 0 0 0 0 0.8425 0 0 0 0 0.0889681 0 0 0 1 0"/>
<feBlend mode="multiply" in2="BackgroundImageFix" result="effect1_dropShadow_80_194"/>
<feBlend mode="normal" in="SourceGraphic" in2="effect1_dropShadow_80_194" result="shape"/>
</filter>
<filter id="filter1_d_80_194" x="3.96045" y="1.09326" width="20.353" height="48.6042" filterUnits="userSpaceOnUse" color-interpolation-filters="sRGB">
<feFlood flood-opacity="0" result="BackgroundImageFix"/>
<feColorMatrix in="SourceAlpha" type="matrix" values="0 0 0 0 0 0 0 0 0 0 0 0 0 0 0 0 0 0 127 0" result="hardAlpha"/>
<feOffset/>
<feGaussianBlur stdDeviation="2"/>
<feComposite in2="hardAlpha" operator="out"/>
<feColorMatrix type="matrix" values="0 0 0 0 0.407843 0 0 0 0 0.94902 0 0 0 0 0.360784 0 0 0 1 0"/>
<feBlend mode="multiply" in2="BackgroundImageFix" result="effect1_dropShadow_80_194"/>
<feBlend mode="normal" in="SourceGraphic" in2="effect1_dropShadow_80_194" result="shape"/>
</filter>
<filter id="filter2_d_80_194" x="37.5337" y="1.18066" width="20.2026" height="48.4431" filterUnits="userSpaceOnUse" color-interpolation-filters="sRGB">
<feFlood flood-opacity="0" result="BackgroundImageFix"/>
<feColorMatrix in="SourceAlpha" type="matrix" values="0 0 0 0 0 0 0 0 0 0 0 0 0 0 0 0 0 0 127 0" result="hardAlpha"/>
<feOffset/>
<feGaussianBlur stdDeviation="2"/>
<feComposite in2="hardAlpha" operator="out"/>
<feColorMatrix type="matrix" values="0 0 0 0 0.407843 0 0 0 0 0.94902 0 0 0 0 0.360784 0 0 0 1 0"/>
<feBlend mode="multiply" in2="BackgroundImageFix" result="effect1_dropShadow_80_194"/>
<feBlend mode="normal" in="SourceGraphic" in2="effect1_dropShadow_80_194" result="shape"/>
</filter>
</defs>
</svg>
